%FSLAX25Y25*%
%MOIN*%
G70*
G01*
G75*
G04 Layer_Color=32896*
%ADD10P,0.08352X4X381.0*%
%ADD11R,0.05906X0.05906*%
%ADD12P,0.08352X4X393.0*%
%ADD13P,0.08352X4X375.0*%
%ADD14P,0.08352X4X387.0*%
%ADD15P,0.08352X4X165.0*%
%ADD16R,0.05906X0.05906*%
%ADD17C,0.01000*%
%ADD18C,0.01969*%
%ADD19C,0.07874*%
%ADD20C,0.14961*%
%ADD21C,0.11811*%
%ADD22C,0.07575*%
%ADD23C,0.09843*%
%ADD24P,0.08908X4X47.0*%
%ADD25C,0.06299*%
%ADD26C,0.18740*%
%ADD27P,0.09410X4X312.0*%
%ADD28C,0.06654*%
%ADD29C,0.05906*%
%ADD30C,0.11024*%
%ADD31R,0.11024X0.11024*%
%ADD32C,0.25000*%
%ADD33C,0.05512*%
%ADD34P,0.05966X8X112.5*%
%ADD35R,0.06654X0.06654*%
%ADD36R,0.11024X0.11024*%
%ADD37R,0.04921X0.04921*%
%ADD38C,0.04921*%
G04:AMPARAMS|DCode=39|XSize=60mil|YSize=59.96mil|CornerRadius=0mil|HoleSize=0mil|Usage=FLASHONLY|Rotation=357.000|XOffset=0mil|YOffset=0mil|HoleType=Round|Shape=Round|*
%AMOVALD39*
21,1,0.00004,0.05996,0.00000,0.00000,357.0*
1,1,0.05996,-0.00002,0.00000*
1,1,0.05996,0.00002,-0.00000*
%
%ADD39OVALD39*%

%ADD40C,0.04724*%
%ADD41R,0.04921X0.04921*%
%ADD42C,0.05000*%
%ADD43O,0.01181X0.09843*%
%ADD44O,0.09843X0.01181*%
%ADD45R,0.03150X0.03543*%
%ADD46R,0.03543X0.03150*%
%ADD47R,0.07480X0.05906*%
%ADD48R,0.12992X0.05512*%
%ADD49O,0.09055X0.02362*%
%ADD50R,0.03937X0.15551*%
%ADD51R,0.05906X0.07480*%
%ADD52R,0.05906X0.09449*%
%ADD53R,0.27362X0.35827*%
%ADD54R,0.28740X0.34252*%
%ADD55R,0.02362X0.04331*%
%ADD56O,0.06102X0.01181*%
%ADD57O,0.01181X0.06102*%
%ADD58C,0.00984*%
%ADD59C,0.00787*%
%ADD60C,0.00500*%
%ADD61C,0.00591*%
%ADD62P,0.09483X4X381.0*%
%ADD63R,0.06706X0.06706*%
%ADD64P,0.09483X4X393.0*%
%ADD65P,0.09483X4X375.0*%
%ADD66P,0.09483X4X387.0*%
%ADD67P,0.09483X4X165.0*%
%ADD68R,0.06706X0.06706*%
%ADD69C,0.08674*%
%ADD70C,0.15761*%
%ADD71C,0.12611*%
%ADD72C,0.08375*%
%ADD73C,0.10642*%
%ADD74P,0.10040X4X47.0*%
%ADD75C,0.07099*%
%ADD76C,0.19540*%
%ADD77P,0.10541X4X312.0*%
%ADD78C,0.07453*%
%ADD79C,0.06706*%
%ADD80C,0.11824*%
%ADD81R,0.11824X0.11824*%
%ADD82C,0.25800*%
%ADD83C,0.06312*%
%ADD84P,0.06832X8X112.5*%
%ADD85R,0.07453X0.07453*%
%ADD86R,0.11824X0.11824*%
%ADD87R,0.05721X0.05721*%
%ADD88C,0.05721*%
G04:AMPARAMS|DCode=89|XSize=68mil|YSize=67.96mil|CornerRadius=0mil|HoleSize=0mil|Usage=FLASHONLY|Rotation=357.000|XOffset=0mil|YOffset=0mil|HoleType=Round|Shape=Round|*
%AMOVALD89*
21,1,0.00004,0.06796,0.00000,0.00000,357.0*
1,1,0.06796,-0.00002,0.00000*
1,1,0.06796,0.00002,-0.00000*
%
%ADD89OVALD89*%

%ADD90C,0.05524*%
%ADD91R,0.05721X0.05721*%
%ADD92C,0.05800*%
%ADD93O,0.01981X0.10642*%
%ADD94O,0.10642X0.01981*%
%ADD95R,0.03950X0.04343*%
%ADD96R,0.04343X0.03950*%
%ADD97R,0.08280X0.06706*%
%ADD98R,0.13792X0.06312*%
%ADD99O,0.09855X0.03162*%
%ADD100R,0.04737X0.16351*%
%ADD101R,0.06706X0.08280*%
%ADD102R,0.06706X0.10249*%
%ADD103R,0.28162X0.36627*%
%ADD104R,0.29540X0.35052*%
%ADD105R,0.03162X0.05131*%
%ADD106O,0.06902X0.01981*%
%ADD107O,0.01981X0.06902*%
%ADD108C,0.02362*%
%ADD109R,0.22047X0.03150*%
%ADD110R,0.06693X0.02165*%
%ADD111R,0.03150X0.22047*%
%ADD112R,0.02165X0.06693*%
D17*
X901110Y906088D02*
Y901090D01*
X902110Y900090D01*
X904109D01*
X905109Y901090D01*
Y906088D01*
X907108Y905088D02*
X908108Y906088D01*
X910107D01*
X911107Y905088D01*
Y904089D01*
X910107Y903089D01*
X909107D01*
X910107D01*
X911107Y902089D01*
Y901090D01*
X910107Y900090D01*
X908108D01*
X907108Y901090D01*
X1085001Y846098D02*
X1086001Y847098D01*
X1088000D01*
X1089000Y846098D01*
Y842100D01*
X1088000Y841100D01*
X1086001D01*
X1085001Y842100D01*
X1083002Y841100D02*
X1081003D01*
X1082002D01*
Y847098D01*
X1083002Y846098D01*
X1078004D02*
X1077004Y847098D01*
X1075004D01*
X1074005Y846098D01*
Y842100D01*
X1075004Y841100D01*
X1077004D01*
X1078004Y842100D01*
Y846098D01*
X1341500Y867498D02*
Y861500D01*
X1338501D01*
X1337501Y862500D01*
Y866498D01*
X1338501Y867498D01*
X1341500D01*
X1331503Y861500D02*
X1335502D01*
X1331503Y865499D01*
Y866498D01*
X1332503Y867498D01*
X1334502D01*
X1335502Y866498D01*
X830031Y935438D02*
X831031Y936438D01*
X833030D01*
X834030Y935438D01*
Y931440D01*
X833030Y930440D01*
X831031D01*
X830031Y931440D01*
X828032Y935438D02*
X827032Y936438D01*
X825033D01*
X824033Y935438D01*
Y934439D01*
X825033Y933439D01*
X826033D01*
X825033D01*
X824033Y932439D01*
Y931440D01*
X825033Y930440D01*
X827032D01*
X828032Y931440D01*
X819035Y930440D02*
Y936438D01*
X822034Y933439D01*
X818035D01*
X815601Y891298D02*
X816601Y892298D01*
X818600D01*
X819600Y891298D01*
Y887300D01*
X818600Y886300D01*
X816601D01*
X815601Y887300D01*
X813602Y891298D02*
X812602Y892298D01*
X810603D01*
X809603Y891298D01*
Y890299D01*
X810603Y889299D01*
X811603D01*
X810603D01*
X809603Y888299D01*
Y887300D01*
X810603Y886300D01*
X812602D01*
X813602Y887300D01*
X803605Y886300D02*
X807604D01*
X803605Y890299D01*
Y891298D01*
X804605Y892298D01*
X806604D01*
X807604Y891298D01*
X964080Y831420D02*
Y837418D01*
X962081Y835419D01*
X960081Y837418D01*
Y831420D01*
X958082D02*
Y835419D01*
X956083Y837418D01*
X954083Y835419D01*
Y831420D01*
Y834419D01*
X958082D01*
X952084Y837418D02*
X948085Y831420D01*
Y837418D02*
X952084Y831420D01*
X943087D02*
Y837418D01*
X946086Y834419D01*
X942087D01*
X940088Y837418D02*
X936089D01*
Y836418D01*
X940088Y832420D01*
Y831420D01*
X934090Y832420D02*
X933090Y831420D01*
X931091D01*
X930091Y832420D01*
Y836418D01*
X931091Y837418D01*
X933090D01*
X934090Y836418D01*
Y835419D01*
X933090Y834419D01*
X930091D01*
X928092Y836418D02*
X927092Y837418D01*
X925093D01*
X924093Y836418D01*
Y835419D01*
X925093Y834419D01*
X926092D01*
X925093D01*
X924093Y833419D01*
Y832420D01*
X925093Y831420D01*
X927092D01*
X928092Y832420D01*
X1007700Y943198D02*
Y942198D01*
X1005701Y940199D01*
X1003701Y942198D01*
Y943198D01*
X1005701Y940199D02*
Y937200D01*
X997703D02*
X1001702D01*
X997703Y941199D01*
Y942198D01*
X998703Y943198D01*
X1000702D01*
X1001702Y942198D01*
X862500Y856998D02*
Y852000D01*
X861500Y851000D01*
X859501D01*
X858501Y852000D01*
Y856998D01*
X852503D02*
X856502D01*
Y853999D01*
X854503Y854999D01*
X853503D01*
X852503Y853999D01*
Y852000D01*
X853503Y851000D01*
X855502D01*
X856502Y852000D01*
X798100Y870898D02*
Y865900D01*
X797100Y864900D01*
X795101D01*
X794101Y865900D01*
Y870898D01*
X789103Y864900D02*
Y870898D01*
X792102Y867899D01*
X788103D01*
X841690Y750490D02*
X841589Y756487D01*
X838590Y756436D01*
X837607Y755420D01*
X837641Y753421D01*
X838658Y752438D01*
X841656Y752489D01*
X839657Y752455D02*
X837692Y750422D01*
X835693Y750389D02*
X833694Y750355D01*
X834693Y750372D01*
X834592Y756369D01*
X835608Y755386D01*
X830678Y751304D02*
X829696Y750287D01*
X827697Y750254D01*
X826680Y751236D01*
X826613Y755234D01*
X827595Y756251D01*
X829594Y756285D01*
X830611Y755302D01*
X830628Y754302D01*
X829645Y753286D01*
X826646Y753235D01*
X945900Y767400D02*
Y773398D01*
X942901D01*
X941901Y772398D01*
Y770399D01*
X942901Y769399D01*
X945900D01*
X943901D02*
X941901Y767400D01*
X939902D02*
X937903D01*
X938902D01*
Y773398D01*
X939902Y772398D01*
X934904D02*
X933904Y773398D01*
X931905D01*
X930905Y772398D01*
Y771399D01*
X931905Y770399D01*
X930905Y769399D01*
Y768400D01*
X931905Y767400D01*
X933904D01*
X934904Y768400D01*
Y769399D01*
X933904Y770399D01*
X934904Y771399D01*
Y772398D01*
X933904Y770399D02*
X931905D01*
X817500Y750400D02*
Y756398D01*
X814501D01*
X813501Y755398D01*
Y753399D01*
X814501Y752399D01*
X817500D01*
X815501D02*
X813501Y750400D01*
X811502D02*
X809503D01*
X810502D01*
Y756398D01*
X811502Y755398D01*
X806504Y756398D02*
X802505D01*
Y755398D01*
X806504Y751400D01*
Y750400D01*
X988500Y877800D02*
Y883798D01*
X985501D01*
X984501Y882798D01*
Y880799D01*
X985501Y879799D01*
X988500D01*
X986501D02*
X984501Y877800D01*
X982502D02*
X980503D01*
X981502D01*
Y883798D01*
X982502Y882798D01*
X973505Y883798D02*
X975504Y882798D01*
X977504Y880799D01*
Y878800D01*
X976504Y877800D01*
X974504D01*
X973505Y878800D01*
Y879799D01*
X974504Y880799D01*
X977504D01*
X1043400Y771900D02*
Y777898D01*
X1040401D01*
X1039401Y776898D01*
Y774899D01*
X1040401Y773899D01*
X1043400D01*
X1041401D02*
X1039401Y771900D01*
X1037402D02*
X1035403D01*
X1036402D01*
Y777898D01*
X1037402Y776898D01*
X1028405Y777898D02*
X1032404D01*
Y774899D01*
X1030404Y775899D01*
X1029405D01*
X1028405Y774899D01*
Y772900D01*
X1029405Y771900D01*
X1031404D01*
X1032404Y772900D01*
X1057400Y743900D02*
Y749898D01*
X1054401D01*
X1053401Y748898D01*
Y746899D01*
X1054401Y745899D01*
X1057400D01*
X1055401D02*
X1053401Y743900D01*
X1051402D02*
X1049403D01*
X1050402D01*
Y749898D01*
X1051402Y748898D01*
X1043404Y743900D02*
Y749898D01*
X1046404Y746899D01*
X1042405D01*
X902800Y806800D02*
X902861Y812798D01*
X899862Y812828D01*
X898853Y811839D01*
X898832Y809840D01*
X899821Y808830D01*
X902820Y808799D01*
X900821Y808820D02*
X898802Y806841D01*
X896802Y806861D02*
X894803Y806882D01*
X895803Y806872D01*
X895864Y812869D01*
X896853Y811859D01*
X891855Y811910D02*
X890866Y812920D01*
X888867Y812941D01*
X887857Y811951D01*
X887846Y810952D01*
X888836Y809942D01*
X889835Y809932D01*
X888836Y809942D01*
X887826Y808952D01*
X887816Y807953D01*
X888805Y806943D01*
X890804Y806923D01*
X891814Y807912D01*
X939500Y804800D02*
Y810798D01*
X936501D01*
X935501Y809798D01*
Y807799D01*
X936501Y806799D01*
X939500D01*
X937501D02*
X935501Y804800D01*
X933502D02*
X931503D01*
X932502D01*
Y810798D01*
X933502Y809798D01*
X924505Y804800D02*
X928504D01*
X924505Y808799D01*
Y809798D01*
X925504Y810798D01*
X927504D01*
X928504Y809798D01*
X718000Y760000D02*
Y765998D01*
X715001D01*
X714001Y764998D01*
Y762999D01*
X715001Y761999D01*
X718000D01*
X716001D02*
X714001Y760000D01*
X712002D02*
X710003D01*
X711002D01*
Y765998D01*
X712002Y764998D01*
X707004Y760000D02*
X705004D01*
X706004D01*
Y765998D01*
X707004Y764998D01*
X797400Y756500D02*
Y762498D01*
X794401D01*
X793401Y761498D01*
Y759499D01*
X794401Y758499D01*
X797400D01*
X795401D02*
X793401Y756500D01*
X791402D02*
X789403D01*
X790402D01*
Y762498D01*
X791402Y761498D01*
X786404D02*
X785404Y762498D01*
X783404D01*
X782405Y761498D01*
Y757500D01*
X783404Y756500D01*
X785404D01*
X786404Y757500D01*
Y761498D01*
X1031200Y919600D02*
Y925598D01*
X1028201D01*
X1027201Y924598D01*
Y922599D01*
X1028201Y921599D01*
X1031200D01*
X1029201D02*
X1027201Y919600D01*
X1025202Y920600D02*
X1024202Y919600D01*
X1022203D01*
X1021203Y920600D01*
Y924598D01*
X1022203Y925598D01*
X1024202D01*
X1025202Y924598D01*
Y923599D01*
X1024202Y922599D01*
X1021203D01*
X759800Y717700D02*
Y723698D01*
X756801D01*
X755801Y722698D01*
Y720699D01*
X756801Y719699D01*
X759800D01*
X757801D02*
X755801Y717700D01*
X753802Y722698D02*
X752802Y723698D01*
X750803D01*
X749803Y722698D01*
Y721699D01*
X750803Y720699D01*
X749803Y719699D01*
Y718700D01*
X750803Y717700D01*
X752802D01*
X753802Y718700D01*
Y719699D01*
X752802Y720699D01*
X753802Y721699D01*
Y722698D01*
X752802Y720699D02*
X750803D01*
X991900Y766400D02*
Y772398D01*
X988901D01*
X987901Y771398D01*
Y769399D01*
X988901Y768399D01*
X991900D01*
X989901D02*
X987901Y766400D01*
X985902Y772398D02*
X981903D01*
Y771398D01*
X985902Y767400D01*
Y766400D01*
X1099900Y753400D02*
Y759398D01*
X1096901D01*
X1095901Y758398D01*
Y756399D01*
X1096901Y755399D01*
X1099900D01*
X1097901D02*
X1095901Y753400D01*
X1089903Y759398D02*
X1091903Y758398D01*
X1093902Y756399D01*
Y754400D01*
X1092902Y753400D01*
X1090903D01*
X1089903Y754400D01*
Y755399D01*
X1090903Y756399D01*
X1093902D01*
X1219900Y887400D02*
Y893398D01*
X1216901D01*
X1215901Y892398D01*
Y890399D01*
X1216901Y889399D01*
X1219900D01*
X1217901D02*
X1215901Y887400D01*
X1209903Y893398D02*
X1213902D01*
Y890399D01*
X1211903Y891399D01*
X1210903D01*
X1209903Y890399D01*
Y888400D01*
X1210903Y887400D01*
X1212902D01*
X1213902Y888400D01*
X1207900Y931400D02*
Y937398D01*
X1204901D01*
X1203901Y936398D01*
Y934399D01*
X1204901Y933399D01*
X1207900D01*
X1205901D02*
X1203901Y931400D01*
X1198903D02*
Y937398D01*
X1201902Y934399D01*
X1197903D01*
X1235900Y945400D02*
Y951398D01*
X1232901D01*
X1231901Y950398D01*
Y948399D01*
X1232901Y947399D01*
X1235900D01*
X1233901D02*
X1231901Y945400D01*
X1229902Y950398D02*
X1228902Y951398D01*
X1226903D01*
X1225903Y950398D01*
Y949399D01*
X1226903Y948399D01*
X1227903D01*
X1226903D01*
X1225903Y947399D01*
Y946400D01*
X1226903Y945400D01*
X1228902D01*
X1229902Y946400D01*
X1269110Y945140D02*
Y951138D01*
X1266111D01*
X1265111Y950138D01*
Y948139D01*
X1266111Y947139D01*
X1269110D01*
X1267111D02*
X1265111Y945140D01*
X1259113D02*
X1263112D01*
X1259113Y949139D01*
Y950138D01*
X1260113Y951138D01*
X1262112D01*
X1263112Y950138D01*
X1287290Y935070D02*
Y941068D01*
X1284291D01*
X1283291Y940068D01*
Y938069D01*
X1284291Y937069D01*
X1287290D01*
X1285291D02*
X1283291Y935070D01*
X1281292D02*
X1279293D01*
X1280292D01*
Y941068D01*
X1281292Y940068D01*
X1106100Y821798D02*
Y815800D01*
X1102101D01*
X1096103D02*
X1100102D01*
X1096103Y819799D01*
Y820798D01*
X1097103Y821798D01*
X1099102D01*
X1100102Y820798D01*
X1216100Y855798D02*
Y849800D01*
X1212101D01*
X1210102D02*
X1208103D01*
X1209102D01*
Y855798D01*
X1210102Y854798D01*
X1198000Y812398D02*
Y806400D01*
X1195001D01*
X1194001Y807400D01*
Y811398D01*
X1195001Y812398D01*
X1198000D01*
X1189003Y806400D02*
Y812398D01*
X1192002Y809399D01*
X1188003D01*
X1026251Y760228D02*
X1027251Y761228D01*
X1029250D01*
X1030250Y760228D01*
Y756230D01*
X1029250Y755230D01*
X1027251D01*
X1026251Y756230D01*
X1024252Y760228D02*
X1023252Y761228D01*
X1021253D01*
X1020253Y760228D01*
Y759229D01*
X1021253Y758229D01*
X1022253D01*
X1021253D01*
X1020253Y757229D01*
Y756230D01*
X1021253Y755230D01*
X1023252D01*
X1024252Y756230D01*
X1018254Y760228D02*
X1017254Y761228D01*
X1015255D01*
X1014255Y760228D01*
Y759229D01*
X1015255Y758229D01*
X1014255Y757229D01*
Y756230D01*
X1015255Y755230D01*
X1017254D01*
X1018254Y756230D01*
Y757229D01*
X1017254Y758229D01*
X1018254Y759229D01*
Y760228D01*
X1017254Y758229D02*
X1015255D01*
X890081Y917078D02*
X891081Y918078D01*
X893080D01*
X894080Y917078D01*
Y913080D01*
X893080Y912080D01*
X891081D01*
X890081Y913080D01*
X888082Y917078D02*
X887082Y918078D01*
X885083D01*
X884083Y917078D01*
Y916079D01*
X885083Y915079D01*
X886083D01*
X885083D01*
X884083Y914079D01*
Y913080D01*
X885083Y912080D01*
X887082D01*
X888082Y913080D01*
X882084Y918078D02*
X878085D01*
Y917078D01*
X882084Y913080D01*
Y912080D01*
X1106201Y960898D02*
X1107201Y961898D01*
X1109200D01*
X1110200Y960898D01*
Y956900D01*
X1109200Y955900D01*
X1107201D01*
X1106201Y956900D01*
X1104202Y960898D02*
X1103202Y961898D01*
X1101203D01*
X1100203Y960898D01*
Y959899D01*
X1101203Y958899D01*
X1102203D01*
X1101203D01*
X1100203Y957899D01*
Y956900D01*
X1101203Y955900D01*
X1103202D01*
X1104202Y956900D01*
X1094205Y961898D02*
X1096204Y960898D01*
X1098204Y958899D01*
Y956900D01*
X1097204Y955900D01*
X1095205D01*
X1094205Y956900D01*
Y957899D01*
X1095205Y958899D01*
X1098204D01*
X1081401Y752898D02*
X1082401Y753898D01*
X1084400D01*
X1085400Y752898D01*
Y748900D01*
X1084400Y747900D01*
X1082401D01*
X1081401Y748900D01*
X1079402Y752898D02*
X1078402Y753898D01*
X1076403D01*
X1075403Y752898D01*
Y751899D01*
X1076403Y750899D01*
X1077403D01*
X1076403D01*
X1075403Y749899D01*
Y748900D01*
X1076403Y747900D01*
X1078402D01*
X1079402Y748900D01*
X1069405Y753898D02*
X1073404D01*
Y750899D01*
X1071404Y751899D01*
X1070405D01*
X1069405Y750899D01*
Y748900D01*
X1070405Y747900D01*
X1072404D01*
X1073404Y748900D01*
X915901Y844398D02*
X916901Y845398D01*
X918900D01*
X919900Y844398D01*
Y840400D01*
X918900Y839400D01*
X916901D01*
X915901Y840400D01*
X913902Y844398D02*
X912902Y845398D01*
X910903D01*
X909903Y844398D01*
Y843399D01*
X910903Y842399D01*
X911903D01*
X910903D01*
X909903Y841399D01*
Y840400D01*
X910903Y839400D01*
X912902D01*
X913902Y840400D01*
X907904Y844398D02*
X906904Y845398D01*
X904905D01*
X903905Y844398D01*
Y843399D01*
X904905Y842399D01*
X905904D01*
X904905D01*
X903905Y841399D01*
Y840400D01*
X904905Y839400D01*
X906904D01*
X907904Y840400D01*
X743001Y864498D02*
X744001Y865498D01*
X746000D01*
X747000Y864498D01*
Y860500D01*
X746000Y859500D01*
X744001D01*
X743001Y860500D01*
X741002Y864498D02*
X740002Y865498D01*
X738003D01*
X737003Y864498D01*
Y863499D01*
X738003Y862499D01*
X739003D01*
X738003D01*
X737003Y861499D01*
Y860500D01*
X738003Y859500D01*
X740002D01*
X741002Y860500D01*
X735004Y864498D02*
X734004Y865498D01*
X732005D01*
X731005Y864498D01*
Y860500D01*
X732005Y859500D01*
X734004D01*
X735004Y860500D01*
Y864498D01*
X734501Y805398D02*
X735501Y806398D01*
X737500D01*
X738500Y805398D01*
Y801400D01*
X737500Y800400D01*
X735501D01*
X734501Y801400D01*
X728503Y800400D02*
X732502D01*
X728503Y804399D01*
Y805398D01*
X729503Y806398D01*
X731502D01*
X732502Y805398D01*
X726504Y801400D02*
X725504Y800400D01*
X723505D01*
X722505Y801400D01*
Y805398D01*
X723505Y806398D01*
X725504D01*
X726504Y805398D01*
Y804399D01*
X725504Y803399D01*
X722505D01*
X765701Y800798D02*
X766701Y801798D01*
X768700D01*
X769700Y800798D01*
Y796800D01*
X768700Y795800D01*
X766701D01*
X765701Y796800D01*
X759703Y795800D02*
X763702D01*
X759703Y799799D01*
Y800798D01*
X760703Y801798D01*
X762702D01*
X763702Y800798D01*
X757704D02*
X756704Y801798D01*
X754705D01*
X753705Y800798D01*
Y799799D01*
X754705Y798799D01*
X753705Y797799D01*
Y796800D01*
X754705Y795800D01*
X756704D01*
X757704Y796800D01*
Y797799D01*
X756704Y798799D01*
X757704Y799799D01*
Y800798D01*
X756704Y798799D02*
X754705D01*
X803301Y800298D02*
X804301Y801298D01*
X806300D01*
X807300Y800298D01*
Y796300D01*
X806300Y795300D01*
X804301D01*
X803301Y796300D01*
X797303Y795300D02*
X801302D01*
X797303Y799299D01*
Y800298D01*
X798303Y801298D01*
X800302D01*
X801302Y800298D01*
X795304Y801298D02*
X791305D01*
Y800298D01*
X795304Y796300D01*
Y795300D01*
X1003801Y916198D02*
X1004801Y917198D01*
X1006800D01*
X1007800Y916198D01*
Y912200D01*
X1006800Y911200D01*
X1004801D01*
X1003801Y912200D01*
X997803Y911200D02*
X1001802D01*
X997803Y915199D01*
Y916198D01*
X998803Y917198D01*
X1000802D01*
X1001802Y916198D01*
X991805Y917198D02*
X993804Y916198D01*
X995804Y914199D01*
Y912200D01*
X994804Y911200D01*
X992805D01*
X991805Y912200D01*
Y913199D01*
X992805Y914199D01*
X995804D01*
X982001Y919498D02*
X983001Y920498D01*
X985000D01*
X986000Y919498D01*
Y915500D01*
X985000Y914500D01*
X983001D01*
X982001Y915500D01*
X976003Y914500D02*
X980002D01*
X976003Y918499D01*
Y919498D01*
X977003Y920498D01*
X979002D01*
X980002Y919498D01*
X970005Y920498D02*
X974004D01*
Y917499D01*
X972005Y918499D01*
X971005D01*
X970005Y917499D01*
Y915500D01*
X971005Y914500D01*
X973004D01*
X974004Y915500D01*
X956301Y870198D02*
X957301Y871198D01*
X959300D01*
X960300Y870198D01*
Y866200D01*
X959300Y865200D01*
X957301D01*
X956301Y866200D01*
X950303Y865200D02*
X954302D01*
X950303Y869199D01*
Y870198D01*
X951303Y871198D01*
X953302D01*
X954302Y870198D01*
X945305Y865200D02*
Y871198D01*
X948304Y868199D01*
X944305D01*
X915801Y886298D02*
X916801Y887298D01*
X918800D01*
X919800Y886298D01*
Y882300D01*
X918800Y881300D01*
X916801D01*
X915801Y882300D01*
X909803Y881300D02*
X913802D01*
X909803Y885299D01*
Y886298D01*
X910803Y887298D01*
X912802D01*
X913802Y886298D01*
X907804D02*
X906804Y887298D01*
X904805D01*
X903805Y886298D01*
Y885299D01*
X904805Y884299D01*
X905805D01*
X904805D01*
X903805Y883299D01*
Y882300D01*
X904805Y881300D01*
X906804D01*
X907804Y882300D01*
X902201Y938598D02*
X903201Y939598D01*
X905200D01*
X906200Y938598D01*
Y934600D01*
X905200Y933600D01*
X903201D01*
X902201Y934600D01*
X896203Y933600D02*
X900202D01*
X896203Y937599D01*
Y938598D01*
X897203Y939598D01*
X899202D01*
X900202Y938598D01*
X890205Y933600D02*
X894204D01*
X890205Y937599D01*
Y938598D01*
X891205Y939598D01*
X893204D01*
X894204Y938598D01*
X960801Y952198D02*
X961801Y953198D01*
X963800D01*
X964800Y952198D01*
Y948200D01*
X963800Y947200D01*
X961801D01*
X960801Y948200D01*
X954803Y947200D02*
X958802D01*
X954803Y951199D01*
Y952198D01*
X955803Y953198D01*
X957802D01*
X958802Y952198D01*
X952804Y947200D02*
X950805D01*
X951804D01*
Y953198D01*
X952804Y952198D01*
X987381Y934088D02*
X988381Y935088D01*
X990380D01*
X991380Y934088D01*
Y930090D01*
X990380Y929090D01*
X988381D01*
X987381Y930090D01*
X981383Y929090D02*
X985382D01*
X981383Y933089D01*
Y934088D01*
X982383Y935088D01*
X984382D01*
X985382Y934088D01*
X979384D02*
X978384Y935088D01*
X976385D01*
X975385Y934088D01*
Y930090D01*
X976385Y929090D01*
X978384D01*
X979384Y930090D01*
Y934088D01*
X1013201Y960598D02*
X1014201Y961598D01*
X1016200D01*
X1017200Y960598D01*
Y956600D01*
X1016200Y955600D01*
X1014201D01*
X1013201Y956600D01*
X1011202Y955600D02*
X1009203D01*
X1010202D01*
Y961598D01*
X1011202Y960598D01*
X1006204Y956600D02*
X1005204Y955600D01*
X1003205D01*
X1002205Y956600D01*
Y960598D01*
X1003205Y961598D01*
X1005204D01*
X1006204Y960598D01*
Y959599D01*
X1005204Y958599D01*
X1002205D01*
X987201Y960598D02*
X988201Y961598D01*
X990200D01*
X991200Y960598D01*
Y956600D01*
X990200Y955600D01*
X988201D01*
X987201Y956600D01*
X985202Y955600D02*
X983203D01*
X984202D01*
Y961598D01*
X985202Y960598D01*
X980204D02*
X979204Y961598D01*
X977205D01*
X976205Y960598D01*
Y959599D01*
X977205Y958599D01*
X976205Y957599D01*
Y956600D01*
X977205Y955600D01*
X979204D01*
X980204Y956600D01*
Y957599D01*
X979204Y958599D01*
X980204Y959599D01*
Y960598D01*
X979204Y958599D02*
X977205D01*
X710950Y735957D02*
X711939Y736967D01*
X713938Y736987D01*
X714948Y735998D01*
X714990Y732000D01*
X714000Y730990D01*
X712001Y730969D01*
X710991Y731958D01*
X709002Y730938D02*
X707003Y730917D01*
X708003Y730928D01*
X707940Y736925D01*
X708951Y735936D01*
X703942Y736884D02*
X699943Y736842D01*
X699954Y735843D01*
X703994Y731886D01*
X704004Y730886D01*
X1077801Y910698D02*
X1078801Y911698D01*
X1080800D01*
X1081800Y910698D01*
Y906700D01*
X1080800Y905700D01*
X1078801D01*
X1077801Y906700D01*
X1075802Y905700D02*
X1073803D01*
X1074802D01*
Y911698D01*
X1075802Y910698D01*
X1066805Y911698D02*
X1068804Y910698D01*
X1070804Y908699D01*
Y906700D01*
X1069804Y905700D01*
X1067805D01*
X1066805Y906700D01*
Y907699D01*
X1067805Y908699D01*
X1070804D01*
X1076794Y932111D02*
X1077772Y933132D01*
X1079771Y933175D01*
X1080792Y932197D01*
X1080878Y928199D01*
X1079900Y927178D01*
X1077902Y927135D01*
X1076881Y928113D01*
X1074903Y927070D02*
X1072904Y927027D01*
X1073904Y927048D01*
X1073774Y933045D01*
X1074795Y932067D01*
X1065778Y932872D02*
X1069776Y932958D01*
X1069841Y929960D01*
X1067821Y930916D01*
X1066821Y930894D01*
X1065843Y929873D01*
X1065887Y927875D01*
X1066908Y926897D01*
X1068907Y926940D01*
X1069884Y927961D01*
X1198501Y953498D02*
X1199501Y954498D01*
X1201500D01*
X1202500Y953498D01*
Y949500D01*
X1201500Y948500D01*
X1199501D01*
X1198501Y949500D01*
X1196502Y948500D02*
X1194503D01*
X1195502D01*
Y954498D01*
X1196502Y953498D01*
X1188505Y948500D02*
Y954498D01*
X1191504Y951499D01*
X1187505D01*
X1179501Y972998D02*
X1180501Y973998D01*
X1182500D01*
X1183500Y972998D01*
Y969000D01*
X1182500Y968000D01*
X1180501D01*
X1179501Y969000D01*
X1177502Y968000D02*
X1175503D01*
X1176502D01*
Y973998D01*
X1177502Y972998D01*
X1172504D02*
X1171504Y973998D01*
X1169505D01*
X1168505Y972998D01*
Y971999D01*
X1169505Y970999D01*
X1170504D01*
X1169505D01*
X1168505Y969999D01*
Y969000D01*
X1169505Y968000D01*
X1171504D01*
X1172504Y969000D01*
X1221501Y964998D02*
X1222501Y965998D01*
X1224500D01*
X1225500Y964998D01*
Y961000D01*
X1224500Y960000D01*
X1222501D01*
X1221501Y961000D01*
X1219502Y960000D02*
X1217503D01*
X1218502D01*
Y965998D01*
X1219502Y964998D01*
X1210505Y960000D02*
X1214504D01*
X1210505Y963999D01*
Y964998D01*
X1211504Y965998D01*
X1213504D01*
X1214504Y964998D01*
X1220901Y924098D02*
X1221901Y925098D01*
X1223900D01*
X1224900Y924098D01*
Y920100D01*
X1223900Y919100D01*
X1221901D01*
X1220901Y920100D01*
X1218902Y919100D02*
X1216903D01*
X1217902D01*
Y925098D01*
X1218902Y924098D01*
X1213904Y919100D02*
X1211904D01*
X1212904D01*
Y925098D01*
X1213904Y924098D01*
X1199761Y905618D02*
X1200761Y906618D01*
X1202760D01*
X1203760Y905618D01*
Y901620D01*
X1202760Y900620D01*
X1200761D01*
X1199761Y901620D01*
X1197762D02*
X1196762Y900620D01*
X1194763D01*
X1193763Y901620D01*
Y905618D01*
X1194763Y906618D01*
X1196762D01*
X1197762Y905618D01*
Y904619D01*
X1196762Y903619D01*
X1193763D01*
X1236501Y928998D02*
X1237501Y929998D01*
X1239500D01*
X1240500Y928998D01*
Y925000D01*
X1239500Y924000D01*
X1237501D01*
X1236501Y925000D01*
X1234502Y928998D02*
X1233502Y929998D01*
X1231503D01*
X1230503Y928998D01*
Y927999D01*
X1231503Y926999D01*
X1230503Y925999D01*
Y925000D01*
X1231503Y924000D01*
X1233502D01*
X1234502Y925000D01*
Y925999D01*
X1233502Y926999D01*
X1234502Y927999D01*
Y928998D01*
X1233502Y926999D02*
X1231503D01*
X1252901Y932098D02*
X1253901Y933098D01*
X1255900D01*
X1256900Y932098D01*
Y928100D01*
X1255900Y927100D01*
X1253901D01*
X1252901Y928100D01*
X1250902Y933098D02*
X1246903D01*
Y932098D01*
X1250902Y928100D01*
Y927100D01*
X1106201Y938898D02*
X1107201Y939898D01*
X1109200D01*
X1110200Y938898D01*
Y934900D01*
X1109200Y933900D01*
X1107201D01*
X1106201Y934900D01*
X1100203Y939898D02*
X1104202D01*
Y936899D01*
X1102203Y937899D01*
X1101203D01*
X1100203Y936899D01*
Y934900D01*
X1101203Y933900D01*
X1103202D01*
X1104202Y934900D01*
X1182501Y927498D02*
X1183501Y928498D01*
X1185500D01*
X1186500Y927498D01*
Y923500D01*
X1185500Y922500D01*
X1183501D01*
X1182501Y923500D01*
X1177503Y922500D02*
Y928498D01*
X1180502Y925499D01*
X1176503D01*
X1270901Y915398D02*
X1271901Y916398D01*
X1273900D01*
X1274900Y915398D01*
Y911400D01*
X1273900Y910400D01*
X1271901D01*
X1270901Y911400D01*
X1268902Y915398D02*
X1267902Y916398D01*
X1265903D01*
X1264903Y915398D01*
Y914399D01*
X1265903Y913399D01*
X1266903D01*
X1265903D01*
X1264903Y912399D01*
Y911400D01*
X1265903Y910400D01*
X1267902D01*
X1268902Y911400D01*
X1287201Y846198D02*
X1288201Y847198D01*
X1290200D01*
X1291200Y846198D01*
Y842200D01*
X1290200Y841200D01*
X1288201D01*
X1287201Y842200D01*
X1281203Y841200D02*
X1285202D01*
X1281203Y845199D01*
Y846198D01*
X1282203Y847198D01*
X1284202D01*
X1285202Y846198D01*
X1286901Y924098D02*
X1287901Y925098D01*
X1289900D01*
X1290900Y924098D01*
Y920100D01*
X1289900Y919100D01*
X1287901D01*
X1286901Y920100D01*
X1284902Y919100D02*
X1282903D01*
X1283902D01*
Y925098D01*
X1284902Y924098D01*
X873500Y918400D02*
Y924398D01*
X871501Y922399D01*
X869501Y924398D01*
Y918400D01*
X867502D02*
Y922399D01*
X865503Y924398D01*
X863503Y922399D01*
Y918400D01*
Y921399D01*
X867502D01*
X861504Y924398D02*
X857505Y918400D01*
Y924398D02*
X861504Y918400D01*
X855506Y923398D02*
X854506Y924398D01*
X852507D01*
X851507Y923398D01*
Y922399D01*
X852507Y921399D01*
X853506D01*
X852507D01*
X851507Y920399D01*
Y919400D01*
X852507Y918400D01*
X854506D01*
X855506Y919400D01*
X846509Y918400D02*
Y924398D01*
X849508Y921399D01*
X845509D01*
X839511Y918400D02*
X843510D01*
X839511Y922399D01*
Y923398D01*
X840511Y924398D01*
X842510D01*
X843510Y923398D01*
X837512Y918400D02*
X835512D01*
X836512D01*
Y924398D01*
X837512Y923398D01*
X1258900Y885698D02*
Y880700D01*
X1257900Y879700D01*
X1255901D01*
X1254901Y880700D01*
Y885698D01*
X1252902Y879700D02*
X1250903D01*
X1251902D01*
Y885698D01*
X1252902Y884698D01*
X1127500Y990998D02*
Y986999D01*
X1125501Y985000D01*
X1123501Y986999D01*
Y990998D01*
X1121502Y985000D02*
Y990998D01*
X1118503D01*
X1117503Y989998D01*
Y987999D01*
X1118503Y986999D01*
X1121502D01*
X1119503D02*
X1117503Y985000D01*
X1115504D02*
X1113505D01*
X1114504D01*
Y990998D01*
X1115504Y989998D01*
X1051300Y943198D02*
Y942198D01*
X1049301Y940199D01*
X1047301Y942198D01*
Y943198D01*
X1049301Y940199D02*
Y937200D01*
X1045302D02*
X1043303D01*
X1044302D01*
Y943198D01*
X1045302Y942198D01*
X789188Y937698D02*
X789200Y936698D01*
X787225Y934675D01*
X785201Y936650D01*
X785189Y937650D01*
X787225Y934675D02*
X787261Y931676D01*
X783202Y936626D02*
X782191Y937613D01*
X780191Y937589D01*
X779204Y936578D01*
X779216Y935578D01*
X780227Y934590D01*
X781227Y934603D01*
X780227Y934590D01*
X779240Y933579D01*
X779252Y932579D01*
X780264Y931592D01*
X782263Y931616D01*
X783250Y932627D01*
X1253011Y802638D02*
X1254011Y803638D01*
X1256010D01*
X1257010Y802638D01*
Y798640D01*
X1256010Y797640D01*
X1254011D01*
X1253011Y798640D01*
X1247013Y803638D02*
X1249013Y802638D01*
X1251012Y800639D01*
Y798640D01*
X1250012Y797640D01*
X1248013D01*
X1247013Y798640D01*
Y799639D01*
X1248013Y800639D01*
X1251012D01*
X765701Y884398D02*
X766701Y885398D01*
X768700D01*
X769700Y884398D01*
Y880400D01*
X768700Y879400D01*
X766701D01*
X765701Y880400D01*
X763702Y884398D02*
X762702Y885398D01*
X760703D01*
X759703Y884398D01*
Y883399D01*
X760703Y882399D01*
X761703D01*
X760703D01*
X759703Y881399D01*
Y880400D01*
X760703Y879400D01*
X762702D01*
X763702Y880400D01*
X757704Y879400D02*
X755704D01*
X756704D01*
Y885398D01*
X757704Y884398D01*
X1124270Y909868D02*
Y904870D01*
X1123270Y903870D01*
X1121271D01*
X1120271Y904870D01*
Y909868D01*
X1114273Y903870D02*
X1118272D01*
X1114273Y907869D01*
Y908868D01*
X1115273Y909868D01*
X1117272D01*
X1118272Y908868D01*
D58*
X963536Y927720D02*
G03*
X963536Y927720I-492J0D01*
G01*
X758079Y819153D02*
G03*
X758079Y819153I-492J0D01*
G01*
X878405Y847847D02*
G03*
X878405Y847847I-492J0D01*
G01*
X1261207Y818283D02*
G03*
X1261207Y818283I-492J0D01*
G01*
X1151110Y926106D02*
G03*
X1151110Y926106I-492J0D01*
G01*
X910518Y823600D02*
G03*
X910518Y823600I-492J0D01*
G01*
X1135207Y842284D02*
G03*
X1135207Y842284I-492J0D01*
G01*
X869878Y906546D02*
G03*
X869878Y906546I-492J0D01*
G01*
D59*
X1083685Y818000D02*
G03*
X1083685Y818000I-19685J0D01*
G01*
X1291842Y828000D02*
G03*
X1291842Y828000I-9843J0D01*
G01*
X1003867Y933280D02*
G03*
X999923Y933383I-2067J-3580D01*
G01*
X999923Y926017D02*
G03*
X1003867Y926120I1877J3683D01*
G01*
X1195842Y890000D02*
G03*
X1195842Y890000I-9843J0D01*
G01*
X1251720Y778000D02*
G03*
X1251720Y778000I-19685J0D01*
G01*
X924068Y893468D02*
X957532D01*
X924068Y926932D02*
X957532D01*
X924068Y893468D02*
Y926932D01*
X957532Y893468D02*
Y926932D01*
X1323024Y849102D02*
Y886898D01*
X1300976Y849102D02*
Y886898D01*
X1323024D01*
X1038548Y889259D02*
Y934141D01*
X1057052D01*
Y889259D02*
Y934141D01*
X1038548Y889259D02*
X1057052D01*
X813252Y895559D02*
Y940441D01*
X794748Y895559D02*
X813252D01*
X794748D02*
Y940441D01*
X813252D01*
X1225346Y906425D02*
Y909575D01*
X1218654Y906425D02*
Y909575D01*
Y906425D02*
X1225346D01*
X1250654Y914425D02*
Y917575D01*
X1257346Y914425D02*
Y917575D01*
X1250654D02*
X1257346D01*
X1291346Y906425D02*
Y909575D01*
X1284654Y906425D02*
Y909575D01*
Y906425D02*
X1291346D01*
X1093898Y798850D02*
Y805150D01*
X1106102Y798850D02*
Y805150D01*
X1174898Y780976D02*
Y803024D01*
X1137102D02*
X1174898D01*
X1137102Y780976D02*
X1174898D01*
X1203898Y832850D02*
Y839150D01*
X1216102Y832850D02*
Y839150D01*
X763689Y819331D02*
Y860669D01*
X787311Y819331D02*
Y860669D01*
X763689Y819331D02*
X787311D01*
X763689Y860669D02*
X787311D01*
X848189Y796409D02*
X871811D01*
X848189Y847591D02*
X871811D01*
X848189Y796409D02*
Y847591D01*
X871811Y796409D02*
Y847591D01*
X1222709Y832457D02*
Y840331D01*
Y832457D02*
X1263654D01*
Y840331D01*
X1098425Y928346D02*
X1101575D01*
X1098425Y921654D02*
X1101575D01*
Y928346D01*
X1098425Y950346D02*
X1101575D01*
X1098425Y943654D02*
X1101575D01*
Y950346D01*
X1177346Y952425D02*
Y955575D01*
X1170654Y952425D02*
Y955575D01*
Y952425D02*
X1177346D01*
X1184425Y909654D02*
X1187575D01*
X1184425Y916346D02*
X1187575D01*
X1184425Y909654D02*
Y916346D01*
X1114831Y936736D02*
Y944020D01*
Y936736D02*
X1156169D01*
Y944020D01*
X736654Y818425D02*
Y821575D01*
X743346Y818425D02*
Y821575D01*
X736654D02*
X743346D01*
Y844425D02*
Y847575D01*
X736654Y844425D02*
Y847575D01*
Y844425D02*
X743346D01*
X984646Y901125D02*
Y904275D01*
X977954Y901125D02*
Y904275D01*
Y901125D02*
X984646D01*
X911207Y817891D02*
X923018D01*
X911207Y819860D02*
X923018D01*
Y817891D02*
Y819860D01*
X911207Y817891D02*
Y819860D01*
X796425Y806654D02*
X799575D01*
X796425Y813346D02*
X799575D01*
X796425Y806654D02*
Y813346D01*
X760425Y806654D02*
X763575D01*
X760425Y813346D02*
X763575D01*
X760425Y806654D02*
Y813346D01*
X746654Y886425D02*
Y889575D01*
X753346Y886425D02*
Y889575D01*
X746654D02*
X753346D01*
X1020654Y742425D02*
Y745575D01*
X1027346Y742425D02*
Y745575D01*
X1020654D02*
X1027346D01*
X1096709Y856457D02*
Y864331D01*
Y856457D02*
X1137654D01*
Y864331D01*
X862693Y890207D02*
Y903593D01*
X849307Y890207D02*
Y903593D01*
X862693D01*
X849307Y890207D02*
X862693D01*
D61*
X1089453Y817999D02*
X1085517D01*
X1087485Y819967D02*
Y816031D01*
X1281999Y812350D02*
Y816286D01*
X1283967Y814318D02*
X1280031D01*
X1201650Y889999D02*
X1197714D01*
X1199682Y891967D02*
Y888031D01*
X1257488Y777999D02*
X1253552D01*
X1255520Y779967D02*
Y776031D01*
D108*
X954776Y922995D02*
G03*
X954776Y922995I-1181J0D01*
G01*
X768807Y823268D02*
G03*
X768807Y823268I-1181J0D01*
G01*
X869055Y843653D02*
G03*
X869055Y843653I-1181J0D01*
G01*
X859937Y899656D02*
G03*
X859937Y899656I-1181J0D01*
G01*
D109*
X1312000Y850284D02*
D03*
D110*
X1222000Y907508D02*
D03*
X1254000Y916492D02*
D03*
X1288000Y907508D02*
D03*
X1174000Y953508D02*
D03*
X740000Y820492D02*
D03*
Y845508D02*
D03*
X981300Y902208D02*
D03*
X750000Y888492D02*
D03*
X1024000Y744492D02*
D03*
D111*
X1138284Y792000D02*
D03*
D112*
X1100492Y925000D02*
D03*
Y947000D02*
D03*
X1185508Y913000D02*
D03*
X797508Y810000D02*
D03*
X761508D02*
D03*
M02*
