%FSLAX25Y25*%
%MOIN*%
G70*
G01*
G75*
G04 Layer_Color=2752767*
%ADD10P,0.08352X4X381.0*%
%ADD11R,0.05906X0.05906*%
%ADD12P,0.08352X4X393.0*%
%ADD13P,0.08352X4X375.0*%
%ADD14P,0.08352X4X387.0*%
%ADD15P,0.08352X4X165.0*%
%ADD16R,0.05906X0.05906*%
%ADD17C,0.01000*%
%ADD18C,0.01969*%
%ADD19C,0.07874*%
%ADD20C,0.14961*%
%ADD21C,0.11811*%
%ADD22C,0.07575*%
%ADD23C,0.09843*%
%ADD24P,0.08908X4X47.0*%
%ADD25C,0.06299*%
%ADD26C,0.18740*%
%ADD27P,0.09410X4X312.0*%
%ADD28C,0.06654*%
%ADD29C,0.05906*%
%ADD30C,0.11024*%
%ADD31R,0.11024X0.11024*%
%ADD32C,0.25000*%
%ADD33C,0.05512*%
%ADD34P,0.05966X8X112.5*%
%ADD35R,0.06654X0.06654*%
%ADD36R,0.11024X0.11024*%
%ADD37R,0.04921X0.04921*%
%ADD38C,0.04921*%
G04:AMPARAMS|DCode=39|XSize=60mil|YSize=59.96mil|CornerRadius=0mil|HoleSize=0mil|Usage=FLASHONLY|Rotation=357.000|XOffset=0mil|YOffset=0mil|HoleType=Round|Shape=Round|*
%AMOVALD39*
21,1,0.00004,0.05996,0.00000,0.00000,357.0*
1,1,0.05996,-0.00002,0.00000*
1,1,0.05996,0.00002,-0.00000*
%
%ADD39OVALD39*%

%ADD40C,0.04724*%
%ADD41R,0.04921X0.04921*%
%ADD42C,0.05000*%
%ADD43O,0.01181X0.09843*%
%ADD44O,0.09843X0.01181*%
%ADD45R,0.03150X0.03543*%
%ADD46R,0.03543X0.03150*%
%ADD47R,0.07480X0.05906*%
%ADD48R,0.12992X0.05512*%
%ADD49O,0.09055X0.02362*%
%ADD50R,0.03937X0.15551*%
%ADD51R,0.05906X0.07480*%
%ADD52R,0.05906X0.09449*%
%ADD53R,0.27362X0.35827*%
%ADD54R,0.28740X0.34252*%
%ADD55R,0.02362X0.04331*%
%ADD56O,0.06102X0.01181*%
%ADD57O,0.01181X0.06102*%
%ADD58C,0.00984*%
%ADD59C,0.00787*%
%ADD60C,0.00500*%
%ADD61C,0.00591*%
%ADD62P,0.09483X4X381.0*%
%ADD63R,0.06706X0.06706*%
%ADD64P,0.09483X4X393.0*%
%ADD65P,0.09483X4X375.0*%
%ADD66P,0.09483X4X387.0*%
%ADD67P,0.09483X4X165.0*%
%ADD68R,0.06706X0.06706*%
%ADD69C,0.08674*%
%ADD70C,0.15761*%
%ADD71C,0.12611*%
%ADD72C,0.08375*%
%ADD73C,0.10642*%
%ADD74P,0.10040X4X47.0*%
%ADD75C,0.07099*%
%ADD76C,0.19540*%
%ADD77P,0.10541X4X312.0*%
%ADD78C,0.07453*%
%ADD79C,0.06706*%
%ADD80C,0.11824*%
%ADD81R,0.11824X0.11824*%
%ADD82C,0.25800*%
%ADD83C,0.06312*%
%ADD84P,0.06832X8X112.5*%
%ADD85R,0.07453X0.07453*%
%ADD86R,0.11824X0.11824*%
%ADD87R,0.05721X0.05721*%
%ADD88C,0.05721*%
G04:AMPARAMS|DCode=89|XSize=68mil|YSize=67.96mil|CornerRadius=0mil|HoleSize=0mil|Usage=FLASHONLY|Rotation=357.000|XOffset=0mil|YOffset=0mil|HoleType=Round|Shape=Round|*
%AMOVALD89*
21,1,0.00004,0.06796,0.00000,0.00000,357.0*
1,1,0.06796,-0.00002,0.00000*
1,1,0.06796,0.00002,-0.00000*
%
%ADD89OVALD89*%

%ADD90C,0.05524*%
%ADD91R,0.05721X0.05721*%
%ADD92C,0.05800*%
%ADD93O,0.01981X0.10642*%
%ADD94O,0.10642X0.01981*%
%ADD95R,0.03950X0.04343*%
%ADD96R,0.04343X0.03950*%
%ADD97R,0.08280X0.06706*%
%ADD98R,0.13792X0.06312*%
%ADD99O,0.09855X0.03162*%
%ADD100R,0.04737X0.16351*%
%ADD101R,0.06706X0.08280*%
%ADD102R,0.06706X0.10249*%
%ADD103R,0.28162X0.36627*%
%ADD104R,0.29540X0.35052*%
%ADD105R,0.03162X0.05131*%
%ADD106O,0.06902X0.01981*%
%ADD107O,0.01981X0.06902*%
%ADD108C,0.02362*%
%ADD109R,0.22047X0.03150*%
%ADD110R,0.06693X0.02165*%
%ADD111R,0.03150X0.22047*%
%ADD112R,0.02165X0.06693*%
%ADD113C,0.01333*%
%ADD114C,0.00800*%
D60*
X1216000Y732000D02*
Y740000D01*
X1224000D01*
Y732000D01*
X1216000D01*
X1223059Y747138D02*
Y755138D01*
X1231059D01*
Y747138D01*
X1223059D01*
X1211960Y743099D02*
Y751099D01*
X1219960D01*
Y743099D01*
X1211960D01*
X1227099Y736040D02*
Y744040D01*
X1235099D01*
Y736040D01*
X1227099D01*
X1300572Y742391D02*
X1296572Y750391D01*
X1304572D01*
X1300572Y742391D01*
X1274453Y730211D02*
X1270453Y738211D01*
X1278453D01*
X1274453Y730211D01*
X1285677Y754211D02*
X1287677Y756211D01*
X1289677D01*
X1287677Y758211D01*
X1289677Y760211D01*
X1287677D01*
X1285677Y762211D01*
X1283677Y760211D01*
X1281677D01*
X1283677Y758211D01*
X1281677Y756211D01*
X1283677D01*
X1285677Y754211D01*
X1274973Y749220D02*
X1276972Y751220D01*
X1278973D01*
X1276972Y753220D01*
X1278973Y755220D01*
X1276972D01*
X1274973Y757220D01*
X1272972Y755220D01*
X1270973D01*
X1272972Y753220D01*
X1270973Y751220D01*
X1272972D01*
X1274973Y749220D01*
X739221Y689948D02*
X741222Y693948D01*
X739221Y697948D01*
X743222Y695948D01*
X747222Y697948D01*
X745222Y693948D01*
X747222Y689948D01*
X743222Y691948D01*
X739221Y689948D01*
X713693Y691733D02*
X715693Y695733D01*
X713693Y699733D01*
X717693Y697733D01*
X721693Y699733D01*
X719693Y695733D01*
X721693Y691733D01*
X717693Y693733D01*
X713693Y691733D01*
X714929Y709407D02*
X716929Y713407D01*
X714929Y717407D01*
X718929Y715407D01*
X722929Y717407D01*
X720929Y713407D01*
X722929Y709407D01*
X718929Y711407D01*
X714929Y709407D01*
X740457Y707622D02*
X742457Y711622D01*
X740457Y715622D01*
X744457Y713622D01*
X748457Y715622D01*
X746457Y711622D01*
X748457Y707622D01*
X744457Y709622D01*
X740457Y707622D01*
X1123356Y751387D02*
Y749387D01*
X1127356D01*
Y751387D01*
X1129356D01*
Y755387D01*
X1127356D01*
Y757387D01*
X1123356D01*
Y755387D01*
X1121356D01*
Y751387D01*
X1123356D01*
X1105737Y749535D02*
Y747535D01*
X1109737D01*
Y749535D01*
X1111737D01*
Y753535D01*
X1109737D01*
Y755535D01*
X1105737D01*
Y753535D01*
X1103737D01*
Y749535D01*
X1105737D01*
X1125620Y729852D02*
Y727852D01*
X1129620D01*
Y729852D01*
X1131619D01*
Y733852D01*
X1129620D01*
Y735852D01*
X1125620D01*
Y733852D01*
X1123619D01*
Y729852D01*
X1125620D01*
X1108000Y728000D02*
Y726000D01*
X1112000D01*
Y728000D01*
X1114000D01*
Y732000D01*
X1112000D01*
Y734000D01*
X1108000D01*
Y732000D01*
X1106000D01*
Y728000D01*
X1108000D01*
X1173687Y760401D02*
Y758401D01*
X1177687D01*
Y760401D01*
X1179687D01*
Y764401D01*
X1177687D01*
Y766401D01*
X1173687D01*
Y764401D01*
X1171687D01*
Y760401D01*
X1173687D01*
X1156240Y757325D02*
Y755325D01*
X1160240D01*
Y757325D01*
X1162240D01*
Y761325D01*
X1160240D01*
Y763325D01*
X1156240D01*
Y761325D01*
X1154240D01*
Y757325D01*
X1156240D01*
X1177447Y739076D02*
Y737076D01*
X1181447D01*
Y739076D01*
X1183447D01*
Y743076D01*
X1181447D01*
Y745076D01*
X1177447D01*
Y743076D01*
X1175447D01*
Y739076D01*
X1177447D01*
X1160000Y736000D02*
Y734000D01*
X1164000D01*
Y736000D01*
X1166000D01*
Y740000D01*
X1164000D01*
Y742000D01*
X1160000D01*
Y740000D01*
X1158000D01*
Y736000D01*
X1160000D01*
X1081869Y706318D02*
X1083869D01*
X1085869Y708318D01*
X1087869Y706318D01*
X1089869D01*
Y708318D01*
X1087869Y710318D01*
X1089869Y712318D01*
Y714318D01*
X1087869D01*
X1085869Y712318D01*
X1083869Y714318D01*
X1081869D01*
Y712318D01*
X1083869Y710318D01*
X1081869Y708318D01*
Y706318D01*
X1030168Y704512D02*
X1032168D01*
X1034168Y706512D01*
X1036168Y704512D01*
X1038168D01*
Y706512D01*
X1036168Y708512D01*
X1038168Y710512D01*
Y712512D01*
X1036168D01*
X1034168Y710512D01*
X1032168Y712512D01*
X1030168D01*
Y710512D01*
X1032168Y708512D01*
X1030168Y706512D01*
Y704512D01*
X1041875Y719597D02*
X1045875Y723597D01*
X1049875Y719597D01*
X1045875Y715597D01*
X1041875Y719597D01*
X1051712Y719940D02*
X1055712Y723940D01*
X1059712Y719940D01*
X1055712Y715940D01*
X1051712Y719940D01*
X1069418Y720559D02*
X1073418Y724559D01*
X1077418Y720559D01*
X1073418Y716559D01*
X1069418Y720559D01*
X1059581Y720215D02*
X1063581Y724215D01*
X1067581Y720215D01*
X1063581Y716215D01*
X1059581Y720215D01*
X768832Y711925D02*
Y719925D01*
X776832D01*
Y711925D01*
X768832D01*
X770432Y713525D02*
Y718325D01*
X775232D01*
Y713525D01*
X770432D01*
X867083Y706776D02*
Y714776D01*
X875083D01*
Y706776D01*
X867083D01*
X868683Y708376D02*
Y713176D01*
X873483D01*
Y708376D01*
X868683D01*
X1054157Y814000D02*
X1050157Y822000D01*
X1058157D01*
X1054157Y814000D01*
Y815600D02*
X1051757Y820400D01*
X1056557D01*
X1054157Y815600D01*
X1073843Y814000D02*
X1069843Y822000D01*
X1077843D01*
X1073843Y814000D01*
Y815600D02*
X1071443Y820400D01*
X1076243D01*
X1073843Y815600D01*
X1312000Y901087D02*
X1314000Y903087D01*
X1316000D01*
X1314000Y905087D01*
X1316000Y907087D01*
X1314000D01*
X1312000Y909087D01*
X1310000Y907087D01*
X1308000D01*
X1310000Y905087D01*
X1308000Y903087D01*
X1310000D01*
X1312000Y901087D01*
Y902687D02*
X1313200Y903887D01*
X1314400D01*
X1313200Y905087D01*
X1314400Y906287D01*
X1313200D01*
X1312000Y907487D01*
X1310800Y906287D01*
X1309600D01*
X1310800Y905087D01*
X1309600Y903887D01*
X1310800D01*
X1312000Y902687D01*
Y826913D02*
X1314000Y828913D01*
X1316000D01*
X1314000Y830913D01*
X1316000Y832913D01*
X1314000D01*
X1312000Y834913D01*
X1310000Y832913D01*
X1308000D01*
X1310000Y830913D01*
X1308000Y828913D01*
X1310000D01*
X1312000Y826913D01*
Y828513D02*
X1313200Y829713D01*
X1314400D01*
X1313200Y830913D01*
X1314400Y832113D01*
X1313200D01*
X1312000Y833313D01*
X1310800Y832113D01*
X1309600D01*
X1310800Y830913D01*
X1309600Y829713D01*
X1310800D01*
X1312000Y828513D01*
X710000Y816000D02*
X712000Y820000D01*
X710000Y824000D01*
X714000Y822000D01*
X718000Y824000D01*
X716000Y820000D01*
X718000Y816000D01*
X714000Y818000D01*
X710000Y816000D01*
X711600Y817600D02*
X712800Y820000D01*
X711600Y822400D01*
X714000Y821200D01*
X716400Y822400D01*
X715200Y820000D01*
X716400Y817600D01*
X714000Y818800D01*
X711600Y817600D01*
X1045800Y919306D02*
Y917306D01*
X1049800D01*
Y919306D01*
X1051800D01*
Y923306D01*
X1049800D01*
Y925306D01*
X1045800D01*
Y923306D01*
X1043800D01*
Y919306D01*
X1045800D01*
X1046600Y920106D02*
Y918906D01*
X1049000D01*
Y920106D01*
X1050200D01*
Y922506D01*
X1049000D01*
Y923706D01*
X1046600D01*
Y922506D01*
X1045400D01*
Y920106D01*
X1046600D01*
X1045800Y900094D02*
Y898094D01*
X1049800D01*
Y900094D01*
X1051800D01*
Y904094D01*
X1049800D01*
Y906094D01*
X1045800D01*
Y904094D01*
X1043800D01*
Y900094D01*
X1045800D01*
X1046600Y900894D02*
Y899694D01*
X1049000D01*
Y900894D01*
X1050200D01*
Y903294D01*
X1049000D01*
Y904494D01*
X1046600D01*
Y903294D01*
X1045400D01*
Y900894D01*
X1046600D01*
X802000Y906394D02*
Y904394D01*
X806000D01*
Y906394D01*
X808000D01*
Y910394D01*
X806000D01*
Y912394D01*
X802000D01*
Y910394D01*
X800000D01*
Y906394D01*
X802000D01*
X802800Y907194D02*
Y905994D01*
X805200D01*
Y907194D01*
X806400D01*
Y909594D01*
X805200D01*
Y910794D01*
X802800D01*
Y909594D01*
X801600D01*
Y907194D01*
X802800D01*
X802000Y925606D02*
Y923606D01*
X806000D01*
Y925606D01*
X808000D01*
Y929606D01*
X806000D01*
Y931606D01*
X802000D01*
Y929606D01*
X800000D01*
Y925606D01*
X802000D01*
X802800Y926406D02*
Y925206D01*
X805200D01*
Y926406D01*
X806400D01*
Y928806D01*
X805200D01*
Y930006D01*
X802800D01*
Y928806D01*
X801600D01*
Y926406D01*
X802800D01*
X999193Y705402D02*
Y713402D01*
X1007193D01*
Y705402D01*
X999193D01*
X1000793Y707002D02*
Y711802D01*
X1005593D01*
Y707002D01*
X1000793D01*
X900807Y705402D02*
Y713402D01*
X908807D01*
Y705402D01*
X900807D01*
X902407Y707002D02*
Y711802D01*
X907207D01*
Y707002D01*
X902407D01*
X1118913Y788000D02*
X1120913Y790000D01*
X1122913D01*
X1120913Y792000D01*
X1122913Y794000D01*
X1120913D01*
X1118913Y796000D01*
X1116913Y794000D01*
X1114913D01*
X1116913Y792000D01*
X1114913Y790000D01*
X1116913D01*
X1118913Y788000D01*
Y789600D02*
X1120113Y790800D01*
X1121313D01*
X1120113Y792000D01*
X1121313Y793200D01*
X1120113D01*
X1118913Y794400D01*
X1117713Y793200D01*
X1116513D01*
X1117713Y792000D01*
X1116513Y790800D01*
X1117713D01*
X1118913Y789600D01*
X1193087Y788000D02*
X1195087Y790000D01*
X1197087D01*
X1195087Y792000D01*
X1197087Y794000D01*
X1195087D01*
X1193087Y796000D01*
X1191087Y794000D01*
X1189087D01*
X1191087Y792000D01*
X1189087Y790000D01*
X1191087D01*
X1193087Y788000D01*
Y789600D02*
X1194287Y790800D01*
X1195487D01*
X1194287Y792000D01*
X1195487Y793200D01*
X1194287D01*
X1193087Y794400D01*
X1191887Y793200D01*
X1190687D01*
X1191887Y792000D01*
X1190687Y790800D01*
X1191887D01*
X1193087Y789600D01*
X1278000Y820063D02*
X1280000D01*
X1282000Y822063D01*
X1284000Y820063D01*
X1286000D01*
Y822063D01*
X1284000Y824063D01*
X1286000Y826063D01*
Y828063D01*
X1284000D01*
X1282000Y826063D01*
X1280000Y828063D01*
X1278000D01*
Y826063D01*
X1280000Y824063D01*
X1278000Y822063D01*
Y820063D01*
X1279600Y821663D02*
X1280800D01*
X1282000Y822863D01*
X1283200Y821663D01*
X1284400D01*
Y822863D01*
X1283200Y824063D01*
X1284400Y825263D01*
Y826463D01*
X1283200D01*
X1282000Y825263D01*
X1280800Y826463D01*
X1279600D01*
Y825263D01*
X1280800Y824063D01*
X1279600Y822863D01*
Y821663D01*
X1278000Y827937D02*
X1280000D01*
X1282000Y829937D01*
X1284000Y827937D01*
X1286000D01*
Y829937D01*
X1284000Y831937D01*
X1286000Y833937D01*
Y835937D01*
X1284000D01*
X1282000Y833937D01*
X1280000Y835937D01*
X1278000D01*
Y833937D01*
X1280000Y831937D01*
X1278000Y829937D01*
Y827937D01*
X1279600Y829537D02*
X1280800D01*
X1282000Y830737D01*
X1283200Y829537D01*
X1284400D01*
Y830737D01*
X1283200Y831937D01*
X1284400Y833137D01*
Y834337D01*
X1283200D01*
X1282000Y833137D01*
X1280800Y834337D01*
X1279600D01*
Y833137D01*
X1280800Y831937D01*
X1279600Y830737D01*
Y829537D01*
X1312000Y796000D02*
X1314000Y800000D01*
X1312000Y804000D01*
X1316000Y802000D01*
X1320000Y804000D01*
X1318000Y800000D01*
X1320000Y796000D01*
X1316000Y798000D01*
X1312000Y796000D01*
X1313600Y797600D02*
X1314800Y800000D01*
X1313600Y802400D01*
X1316000Y801200D01*
X1318400Y802400D01*
X1317200Y800000D01*
X1318400Y797600D01*
X1316000Y798800D01*
X1313600Y797600D01*
X1088000Y976000D02*
X1090000Y980000D01*
X1088000Y984000D01*
X1092000Y982000D01*
X1096000Y984000D01*
X1094000Y980000D01*
X1096000Y976000D01*
X1092000Y978000D01*
X1088000Y976000D01*
X1089600Y977600D02*
X1090800Y980000D01*
X1089600Y982400D01*
X1092000Y981200D01*
X1094400Y982400D01*
X1093200Y980000D01*
X1094400Y977600D01*
X1092000Y978800D01*
X1089600Y977600D01*
X766000Y912000D02*
X768000Y916000D01*
X766000Y920000D01*
X770000Y918000D01*
X774000Y920000D01*
X772000Y916000D01*
X774000Y912000D01*
X770000Y914000D01*
X766000Y912000D01*
X767600Y913600D02*
X768800Y916000D01*
X767600Y918400D01*
X770000Y917200D01*
X772400Y918400D01*
X771200Y916000D01*
X772400Y913600D01*
X770000Y914800D01*
X767600Y913600D01*
X688000Y746000D02*
X690000Y750000D01*
X688000Y754000D01*
X692000Y752000D01*
X696000Y754000D01*
X694000Y750000D01*
X696000Y746000D01*
X692000Y748000D01*
X688000Y746000D01*
X689600Y747600D02*
X690800Y750000D01*
X689600Y752400D01*
X692000Y751200D01*
X694400Y752400D01*
X693200Y750000D01*
X694400Y747600D01*
X692000Y748800D01*
X689600Y747600D01*
X743356Y730698D02*
Y737362D01*
X746688Y740695D01*
X750021Y737362D01*
Y730698D01*
Y735696D01*
X743356D01*
X744592Y754287D02*
Y760952D01*
X747925Y764284D01*
X751257Y760952D01*
Y754287D01*
Y759286D01*
X744592D01*
X733527Y731213D02*
Y737878D01*
X736859Y741210D01*
X740192Y737878D01*
Y731213D01*
Y736211D01*
X733527D01*
X734763Y754803D02*
Y761467D01*
X738096Y764799D01*
X741428Y761467D01*
Y754803D01*
Y759801D01*
X734763D01*
X724934Y765315D02*
Y755318D01*
X729933D01*
X731599Y756984D01*
Y758650D01*
X729933Y760316D01*
X724934D01*
X729933D01*
X731599Y761982D01*
Y763648D01*
X729933Y765315D01*
X724934D01*
X723698Y731728D02*
Y738392D01*
X727030Y741725D01*
X730363Y738392D01*
Y731728D01*
Y736726D01*
X723698D01*
X1012598Y938031D02*
X1010932Y939697D01*
X1007600D01*
X1005934Y938031D01*
Y931366D01*
X1007600Y929700D01*
X1010932D01*
X1012598Y931366D01*
X1004331Y938031D02*
X1002665Y939697D01*
X999332D01*
X997666Y938031D01*
Y931366D01*
X999332Y929700D01*
X1002665D01*
X1004331Y931366D01*
X1185937Y886000D02*
X1187937D01*
X1189937Y888000D01*
X1191937Y886000D01*
X1193937D01*
Y888000D01*
X1191937Y890000D01*
X1193937Y892000D01*
Y894000D01*
X1191937D01*
X1189937Y892000D01*
X1187937Y894000D01*
X1185937D01*
Y892000D01*
X1187937Y890000D01*
X1185937Y888000D01*
Y886000D01*
X1187537Y887600D02*
X1188737D01*
X1189937Y888800D01*
X1191137Y887600D01*
X1192337D01*
Y888800D01*
X1191137Y890000D01*
X1192337Y891200D01*
Y892400D01*
X1191137D01*
X1189937Y891200D01*
X1188737Y892400D01*
X1187537D01*
Y891200D01*
X1188737Y890000D01*
X1187537Y888800D01*
Y887600D01*
X1178063Y886000D02*
X1180063D01*
X1182063Y888000D01*
X1184063Y886000D01*
X1186063D01*
Y888000D01*
X1184063Y890000D01*
X1186063Y892000D01*
Y894000D01*
X1184063D01*
X1182063Y892000D01*
X1180063Y894000D01*
X1178063D01*
Y892000D01*
X1180063Y890000D01*
X1178063Y888000D01*
Y886000D01*
X1179663Y887600D02*
X1180863D01*
X1182063Y888800D01*
X1183263Y887600D01*
X1184463D01*
Y888800D01*
X1183263Y890000D01*
X1184463Y891200D01*
Y892400D01*
X1183263D01*
X1182063Y891200D01*
X1180863Y892400D01*
X1179663D01*
Y891200D01*
X1180863Y890000D01*
X1179663Y888800D01*
Y887600D01*
X1222193Y774000D02*
X1218193Y782000D01*
X1226193D01*
X1222193Y774000D01*
Y775600D02*
X1219793Y780400D01*
X1224593D01*
X1222193Y775600D01*
X1241878Y774000D02*
X1237878Y782000D01*
X1245878D01*
X1241878Y774000D01*
Y775600D02*
X1239478Y780400D01*
X1244278D01*
X1241878Y775600D01*
X994500Y847197D02*
Y837200D01*
X999498D01*
X1001165Y838866D01*
Y845531D01*
X999498Y847197D01*
X994500D01*
X952600Y868897D02*
Y858900D01*
X957598D01*
X959264Y860566D01*
Y867231D01*
X957598Y868897D01*
X952600D01*
X915800Y884397D02*
Y874400D01*
X920798D01*
X922464Y876066D01*
Y882731D01*
X920798Y884397D01*
X915800D01*
X949700Y852197D02*
Y842200D01*
X954698D01*
X956365Y843866D01*
Y850531D01*
X954698Y852197D01*
X949700D01*
X814500Y858297D02*
Y848300D01*
X819498D01*
X821165Y849966D01*
Y856631D01*
X819498Y858297D01*
X814500D01*
X929800Y918797D02*
Y908800D01*
X934798D01*
X936465Y910466D01*
Y917131D01*
X934798Y918797D01*
X929800D01*
X939900Y918397D02*
Y908400D01*
X944898D01*
X946564Y910066D01*
Y916731D01*
X944898Y918397D01*
X939900D01*
X832000Y879297D02*
Y869300D01*
X836998D01*
X838665Y870966D01*
Y877631D01*
X836998Y879297D01*
X832000D01*
X971300Y919597D02*
Y909600D01*
X976298D01*
X977964Y911266D01*
Y917931D01*
X976298Y919597D01*
X971300D01*
X853000Y944197D02*
Y934200D01*
X857998D01*
X859665Y935866D01*
Y942531D01*
X857998Y944197D01*
X853000D01*
X915000Y950497D02*
Y940500D01*
X919998D01*
X921665Y942166D01*
Y948831D01*
X919998Y950497D01*
X915000D01*
X900100Y925497D02*
Y915500D01*
X905098D01*
X906765Y917166D01*
Y923831D01*
X905098Y925497D01*
X900100D01*
X908000Y926997D02*
Y917000D01*
X912998D01*
X914664Y918666D01*
Y925331D01*
X912998Y926997D01*
X908000D01*
X926700Y836797D02*
Y826800D01*
X931698D01*
X933364Y828466D01*
Y835131D01*
X931698Y836797D01*
X926700D01*
X918600Y814897D02*
Y804900D01*
X923598D01*
X925264Y806566D01*
Y813231D01*
X923598Y814897D01*
X918600D01*
X829300Y893097D02*
Y883100D01*
X834298D01*
X835964Y884766D01*
Y891431D01*
X834298Y893097D01*
X829300D01*
X948200Y930197D02*
Y920200D01*
X953198D01*
X954865Y921866D01*
Y928531D01*
X953198Y930197D01*
X948200D01*
X1065300Y744197D02*
Y734200D01*
X1070298D01*
X1071964Y735866D01*
Y742531D01*
X1070298Y744197D01*
X1065300D01*
X1033400Y775697D02*
Y765700D01*
X1038398D01*
X1040065Y767366D01*
Y774031D01*
X1038398Y775697D01*
X1033400D01*
X824500Y909697D02*
Y899700D01*
X829498D01*
X831164Y901366D01*
Y908031D01*
X829498Y909697D01*
X824500D01*
X817000Y913197D02*
Y903200D01*
X821998D01*
X823664Y904866D01*
Y911531D01*
X821998Y913197D01*
X817000D01*
X929400Y953297D02*
Y943300D01*
X934398D01*
X936065Y944966D01*
Y951631D01*
X934398Y953297D01*
X929400D01*
X936500D02*
Y943300D01*
X941498D01*
X943165Y944966D01*
Y951631D01*
X941498Y953297D01*
X936500D01*
X827100Y828497D02*
Y818500D01*
X832098D01*
X833764Y820166D01*
Y826831D01*
X832098Y828497D01*
X827100D01*
X826700Y836397D02*
Y826400D01*
X831698D01*
X833364Y828066D01*
Y834731D01*
X831698Y836397D01*
X826700D01*
X840700Y880297D02*
Y870300D01*
X845698D01*
X847365Y871966D01*
Y878631D01*
X845698Y880297D01*
X840700D01*
X847600D02*
Y870300D01*
X852598D01*
X854265Y871966D01*
Y878631D01*
X852598Y880297D01*
X847600D01*
X946100Y906797D02*
Y896800D01*
X951098D01*
X952765Y898466D01*
Y905131D01*
X951098Y906797D01*
X946100D01*
X938700Y906897D02*
Y896900D01*
X943698D01*
X945364Y898566D01*
Y905231D01*
X943698Y906897D01*
X938700D01*
X934600Y888397D02*
Y878400D01*
X939598D01*
X941265Y880066D01*
Y886731D01*
X939598Y888397D01*
X934600D01*
X939700Y883797D02*
Y873800D01*
X944698D01*
X946364Y875466D01*
Y882131D01*
X944698Y883797D01*
X939700D01*
X809400Y924797D02*
Y914800D01*
X814398D01*
X816064Y916466D01*
Y923131D01*
X814398Y924797D01*
X809400D01*
X890780Y890697D02*
Y880700D01*
X895778D01*
X897445Y882366D01*
Y889031D01*
X895778Y890697D01*
X890780D01*
X1011700Y862537D02*
Y852540D01*
X1016698D01*
X1018365Y854206D01*
Y860871D01*
X1016698Y862537D01*
X1011700D01*
X785200Y747497D02*
Y737500D01*
X790198D01*
X791864Y739166D01*
Y745831D01*
X790198Y747497D01*
X785200D01*
X780100Y760597D02*
Y750600D01*
X785098D01*
X786764Y752266D01*
Y758931D01*
X785098Y760597D01*
X780100D01*
X773000Y743597D02*
Y733600D01*
X777998D01*
X779665Y735266D01*
Y741931D01*
X777998Y743597D01*
X773000D01*
X857000Y735497D02*
Y725500D01*
X861998D01*
X863665Y727166D01*
Y733831D01*
X861998Y735497D01*
X857000D01*
X828000Y741997D02*
Y732000D01*
X832998D01*
X834665Y733666D01*
Y740331D01*
X832998Y741997D01*
X828000D01*
X939000Y756197D02*
Y746200D01*
X943998D01*
X945665Y747866D01*
Y754531D01*
X943998Y756197D01*
X939000D01*
X1222500Y829997D02*
Y820000D01*
X1227498D01*
X1229165Y821666D01*
Y828331D01*
X1227498Y829997D01*
X1222500D01*
X1254700Y953197D02*
Y943200D01*
X1259698D01*
X1261364Y944866D01*
Y951531D01*
X1259698Y953197D01*
X1254700D01*
X1298600Y932497D02*
Y922500D01*
X1303598D01*
X1305264Y924166D01*
Y930831D01*
X1303598Y932497D01*
X1298600D01*
X1274500Y954397D02*
Y944400D01*
X1279498D01*
X1281164Y946066D01*
Y952731D01*
X1279498Y954397D01*
X1274500D01*
X1243700Y958697D02*
Y948700D01*
X1248698D01*
X1250364Y950366D01*
Y957031D01*
X1248698Y958697D01*
X1243700D01*
X1242600Y969597D02*
Y959600D01*
X1247598D01*
X1249265Y961266D01*
Y967931D01*
X1247598Y969597D01*
X1242600D01*
X1206400Y923197D02*
Y913200D01*
X1211398D01*
X1213064Y914866D01*
Y921531D01*
X1211398Y923197D01*
X1206400D01*
X1205400Y974097D02*
Y964100D01*
X1210398D01*
X1212064Y965766D01*
Y972431D01*
X1210398Y974097D01*
X1205400D01*
X1192500Y974497D02*
Y964500D01*
X1197498D01*
X1199164Y966166D01*
Y972831D01*
X1197498Y974497D01*
X1192500D01*
X1184100Y952297D02*
Y942300D01*
X1189098D01*
X1190765Y943966D01*
Y950631D01*
X1189098Y952297D01*
X1184100D01*
X1135900Y924497D02*
Y914500D01*
X1140898D01*
X1142564Y916166D01*
Y922831D01*
X1140898Y924497D01*
X1135900D01*
X1213700Y876197D02*
Y866200D01*
X1218698D01*
X1220364Y867866D01*
Y874531D01*
X1218698Y876197D01*
X1213700D01*
X1064800Y838197D02*
Y828200D01*
X1069798D01*
X1071465Y829866D01*
Y836531D01*
X1069798Y838197D01*
X1064800D01*
X1116700Y837297D02*
Y827300D01*
X1121698D01*
X1123365Y828966D01*
Y835631D01*
X1121698Y837297D01*
X1116700D01*
X989400Y748597D02*
Y738600D01*
X994398D01*
X996064Y740266D01*
Y746931D01*
X994398Y748597D01*
X989400D01*
X877900Y801197D02*
Y791200D01*
X882898D01*
X884564Y792866D01*
Y799531D01*
X882898Y801197D01*
X877900D01*
X891200Y853597D02*
Y843600D01*
X896198D01*
X897865Y845266D01*
Y851931D01*
X896198Y853597D01*
X891200D01*
X760600Y764497D02*
Y754500D01*
X765598D01*
X767265Y756166D01*
Y762831D01*
X765598Y764497D01*
X760600D01*
X997200Y967497D02*
Y957500D01*
X1002198D01*
X1003864Y959166D01*
Y965831D01*
X1002198Y967497D01*
X997200D01*
X1080300Y769897D02*
Y759900D01*
X1085298D01*
X1086965Y761566D01*
Y768231D01*
X1085298Y769897D01*
X1080300D01*
X1025100Y738497D02*
Y728500D01*
X1030098D01*
X1031765Y730166D01*
Y736831D01*
X1030098Y738497D01*
X1025100D01*
X1053300Y921497D02*
Y911500D01*
X1058298D01*
X1059964Y913166D01*
Y919831D01*
X1058298Y921497D01*
X1053300D01*
X1001500Y912897D02*
Y902900D01*
X1006498D01*
X1008165Y904566D01*
Y911231D01*
X1006498Y912897D01*
X1001500D01*
X977800Y771297D02*
Y761300D01*
X982798D01*
X984464Y762966D01*
Y769631D01*
X982798Y771297D01*
X977800D01*
X816500Y740497D02*
Y730500D01*
X821498D01*
X823164Y732166D01*
Y738831D01*
X821498Y740497D01*
X816500D01*
X813500Y820997D02*
Y811000D01*
X818498D01*
X820164Y812666D01*
Y819331D01*
X818498Y820997D01*
X813500D01*
X958500Y747497D02*
Y737500D01*
X963498D01*
X965164Y739166D01*
Y745831D01*
X963498Y747497D01*
X958500D01*
D113*
X1235366Y722038D02*
G03*
X1235366Y722038I-4000J0D01*
G01*
X848031Y717792D02*
G03*
X848031Y717792I-4000J0D01*
G01*
X842001Y706911D02*
G03*
X842001Y706911I-4000J0D01*
G01*
X837141Y718362D02*
G03*
X837141Y718362I-4000J0D01*
G01*
X831110Y707482D02*
G03*
X831110Y707482I-4000J0D01*
G01*
X826250Y718933D02*
G03*
X826250Y718933I-4000J0D01*
G01*
X820220Y708053D02*
G03*
X820220Y708053I-4000J0D01*
G01*
X815359Y719504D02*
G03*
X815359Y719504I-4000J0D01*
G01*
X809329Y708624D02*
G03*
X809329Y708624I-4000J0D01*
G01*
X804469Y720075D02*
G03*
X804469Y720075I-4000J0D01*
G01*
X936189Y714992D02*
G03*
X936189Y714992I-4000J0D01*
G01*
X941642Y703811D02*
G03*
X941642Y703811I-4000J0D01*
G01*
X947095Y714992D02*
G03*
X947095Y714992I-4000J0D01*
G01*
X952547Y703811D02*
G03*
X952547Y703811I-4000J0D01*
G01*
X958000Y714992D02*
G03*
X958000Y714992I-4000J0D01*
G01*
X963453Y703811D02*
G03*
X963453Y703811I-4000J0D01*
G01*
X968906Y714992D02*
G03*
X968906Y714992I-4000J0D01*
G01*
X974358Y703811D02*
G03*
X974358Y703811I-4000J0D01*
G01*
X979811Y714992D02*
G03*
X979811Y714992I-4000J0D01*
G01*
D114*
X846431Y717792D02*
G03*
X846431Y717792I-2400J0D01*
G01*
X840401Y706911D02*
G03*
X840401Y706911I-2400J0D01*
G01*
X835541Y718362D02*
G03*
X835541Y718362I-2400J0D01*
G01*
X829510Y707482D02*
G03*
X829510Y707482I-2400J0D01*
G01*
X824650Y718933D02*
G03*
X824650Y718933I-2400J0D01*
G01*
X818620Y708053D02*
G03*
X818620Y708053I-2400J0D01*
G01*
X813759Y719504D02*
G03*
X813759Y719504I-2400J0D01*
G01*
X807729Y708624D02*
G03*
X807729Y708624I-2400J0D01*
G01*
X802869Y720075D02*
G03*
X802869Y720075I-2400J0D01*
G01*
X934589Y714992D02*
G03*
X934589Y714992I-2400J0D01*
G01*
X940042Y703811D02*
G03*
X940042Y703811I-2400J0D01*
G01*
X945495Y714992D02*
G03*
X945495Y714992I-2400J0D01*
G01*
X950947Y703811D02*
G03*
X950947Y703811I-2400J0D01*
G01*
X956400Y714992D02*
G03*
X956400Y714992I-2400J0D01*
G01*
X961853Y703811D02*
G03*
X961853Y703811I-2400J0D01*
G01*
X967306Y714992D02*
G03*
X967306Y714992I-2400J0D01*
G01*
X972758Y703811D02*
G03*
X972758Y703811I-2400J0D01*
G01*
X978211Y714992D02*
G03*
X978211Y714992I-2400J0D01*
G01*
M02*
