G75*
G70*
%OFA0B0*%
%FSLAX24Y24*%
%IPPOS*%
%LPD*%
%AMOC8*
5,1,8,0,0,1.08239X$1,22.5*
%
%ADD10C,0.0080*%
D10*
X003457Y001018D02*
X003457Y015018D01*
X026457Y015018D01*
X026457Y001018D01*
X003457Y001018D01*
X006637Y002518D02*
X006917Y002518D01*
X006777Y003378D02*
X006777Y003658D01*
X006917Y003518D02*
X006637Y003518D01*
X006317Y004058D02*
X006104Y004058D01*
X005997Y004165D01*
X006104Y004271D01*
X006317Y004271D01*
X006317Y004426D02*
X005997Y004426D01*
X005997Y004586D01*
X006050Y004640D01*
X006104Y004640D01*
X006157Y004586D01*
X006157Y004426D01*
X006317Y004426D02*
X006317Y004586D01*
X006264Y004640D01*
X006211Y004640D01*
X006157Y004586D01*
X006050Y004795D02*
X005997Y004848D01*
X005997Y004955D01*
X006050Y005008D01*
X006317Y005008D01*
X006264Y005163D02*
X006211Y005163D01*
X006157Y005216D01*
X006157Y005323D01*
X006104Y005376D01*
X006050Y005376D01*
X005997Y005323D01*
X005997Y005216D01*
X006050Y005163D01*
X006264Y005163D02*
X006317Y005216D01*
X006317Y005323D01*
X006264Y005376D01*
X005944Y005531D02*
X005944Y005745D01*
X006050Y005899D02*
X005997Y005953D01*
X005997Y006060D01*
X006050Y006113D01*
X006157Y006113D01*
X006211Y006060D01*
X006211Y006006D01*
X006157Y005899D01*
X006317Y005899D01*
X006317Y006113D01*
X006317Y006268D02*
X006104Y006268D01*
X005997Y006375D01*
X006104Y006481D01*
X006317Y006481D01*
X005567Y005008D02*
X005514Y004901D01*
X005407Y004795D01*
X005407Y004955D01*
X005354Y005008D01*
X005300Y005008D01*
X005247Y004955D01*
X005247Y004848D01*
X005300Y004795D01*
X005407Y004795D01*
X005407Y004640D02*
X005354Y004586D01*
X005354Y004426D01*
X005247Y004426D02*
X005567Y004426D01*
X005567Y004586D01*
X005514Y004640D01*
X005407Y004640D01*
X005567Y004271D02*
X005567Y004165D01*
X005567Y004218D02*
X005300Y004218D01*
X005247Y004165D01*
X005247Y004111D01*
X005300Y004058D01*
X006050Y004795D02*
X006317Y004795D01*
X008497Y004754D02*
X008817Y004754D01*
X008764Y004908D02*
X008817Y004962D01*
X008817Y005069D01*
X008764Y005122D01*
X008550Y004908D01*
X008497Y004962D01*
X008497Y005069D01*
X008550Y005122D01*
X008764Y005122D01*
X008764Y004908D02*
X008550Y004908D01*
X008497Y004754D02*
X008817Y004540D01*
X008497Y004540D01*
X008497Y004401D02*
X008497Y004295D01*
X008497Y004348D02*
X008817Y004348D01*
X008817Y004295D02*
X008817Y004401D01*
X008764Y004140D02*
X008657Y004140D01*
X008604Y004086D01*
X008604Y003926D01*
X008497Y003926D02*
X008817Y003926D01*
X008817Y004086D01*
X008764Y004140D01*
X008764Y003771D02*
X008817Y003718D01*
X008817Y003611D01*
X008764Y003558D01*
X008550Y003558D01*
X008497Y003611D01*
X008497Y003718D01*
X008550Y003771D01*
X008657Y003771D01*
X008657Y003665D01*
X009697Y003611D02*
X009697Y003718D01*
X009750Y003771D01*
X009857Y003771D01*
X009857Y003665D01*
X009964Y003771D02*
X010017Y003718D01*
X010017Y003611D01*
X009964Y003558D01*
X009750Y003558D01*
X009697Y003611D01*
X009697Y003926D02*
X010017Y003926D01*
X010017Y004086D01*
X009964Y004140D01*
X009857Y004140D01*
X009804Y004086D01*
X009804Y003926D01*
X009697Y004295D02*
X009697Y004401D01*
X009697Y004348D02*
X010017Y004348D01*
X010017Y004295D02*
X010017Y004401D01*
X010017Y004540D02*
X009697Y004540D01*
X009697Y004754D02*
X010017Y004754D01*
X009911Y004908D02*
X010017Y005015D01*
X009697Y005015D01*
X009697Y004908D02*
X009697Y005122D01*
X009697Y004754D02*
X010017Y004540D01*
X010517Y004550D02*
X010837Y004550D01*
X010517Y004764D01*
X010837Y004764D01*
X010784Y004918D02*
X010837Y004972D01*
X010837Y005079D01*
X010784Y005132D01*
X010731Y005132D01*
X010517Y004918D01*
X010517Y005132D01*
X010517Y004411D02*
X010517Y004305D01*
X010517Y004358D02*
X010837Y004358D01*
X010837Y004305D02*
X010837Y004411D01*
X010784Y004150D02*
X010677Y004150D01*
X010624Y004096D01*
X010624Y003936D01*
X010517Y003936D02*
X010837Y003936D01*
X010837Y004096D01*
X010784Y004150D01*
X010784Y003781D02*
X010837Y003728D01*
X010837Y003621D01*
X010784Y003568D01*
X010570Y003568D01*
X010517Y003621D01*
X010517Y003728D01*
X010570Y003781D01*
X010677Y003781D01*
X010677Y003675D01*
X011997Y003718D02*
X011997Y003611D01*
X012050Y003558D01*
X012264Y003558D01*
X012317Y003611D01*
X012317Y003718D01*
X012264Y003771D01*
X012157Y003771D02*
X012157Y003665D01*
X012157Y003771D02*
X012050Y003771D01*
X011997Y003718D01*
X011997Y003926D02*
X012317Y003926D01*
X012317Y004086D01*
X012264Y004140D01*
X012157Y004140D01*
X012104Y004086D01*
X012104Y003926D01*
X011997Y004295D02*
X011997Y004401D01*
X011997Y004348D02*
X012317Y004348D01*
X012317Y004295D02*
X012317Y004401D01*
X012317Y004540D02*
X011997Y004754D01*
X012317Y004754D01*
X012264Y004908D02*
X012317Y004962D01*
X012317Y005069D01*
X012264Y005122D01*
X012211Y005122D01*
X012157Y005069D01*
X012104Y005122D01*
X012050Y005122D01*
X011997Y005069D01*
X011997Y004962D01*
X012050Y004908D01*
X012157Y005015D02*
X012157Y005069D01*
X011997Y004540D02*
X012317Y004540D01*
X012997Y004540D02*
X013317Y004540D01*
X012997Y004754D01*
X013317Y004754D01*
X013157Y004908D02*
X013157Y005122D01*
X012997Y005069D02*
X013317Y005069D01*
X013157Y004908D01*
X012997Y004401D02*
X012997Y004295D01*
X012997Y004348D02*
X013317Y004348D01*
X013317Y004295D02*
X013317Y004401D01*
X013264Y004140D02*
X013157Y004140D01*
X013104Y004086D01*
X013104Y003926D01*
X012997Y003926D02*
X013317Y003926D01*
X013317Y004086D01*
X013264Y004140D01*
X013264Y003771D02*
X013317Y003718D01*
X013317Y003611D01*
X013264Y003558D01*
X013050Y003558D01*
X012997Y003611D01*
X012997Y003718D01*
X013050Y003771D01*
X013157Y003771D01*
X013157Y003665D01*
X013997Y003611D02*
X013997Y003718D01*
X014050Y003771D01*
X014157Y003771D01*
X014157Y003665D01*
X014264Y003771D02*
X014317Y003718D01*
X014317Y003611D01*
X014264Y003558D01*
X014050Y003558D01*
X013997Y003611D01*
X013997Y003926D02*
X014317Y003926D01*
X014317Y004086D01*
X014264Y004140D01*
X014157Y004140D01*
X014104Y004086D01*
X014104Y003926D01*
X013997Y004295D02*
X013997Y004401D01*
X013997Y004348D02*
X014317Y004348D01*
X014317Y004295D02*
X014317Y004401D01*
X014317Y004540D02*
X013997Y004540D01*
X013997Y004754D02*
X014317Y004754D01*
X014317Y004908D02*
X014157Y004908D01*
X014211Y005015D01*
X014211Y005069D01*
X014157Y005122D01*
X014050Y005122D01*
X013997Y005069D01*
X013997Y004962D01*
X014050Y004908D01*
X013997Y004754D02*
X014317Y004540D01*
X014317Y004908D02*
X014317Y005122D01*
X014997Y005069D02*
X014997Y004962D01*
X015050Y004908D01*
X015157Y004908D01*
X015157Y005069D01*
X015104Y005122D01*
X015050Y005122D01*
X014997Y005069D01*
X015157Y004908D02*
X015264Y005015D01*
X015317Y005122D01*
X015317Y004754D02*
X014997Y004754D01*
X015317Y004540D01*
X014997Y004540D01*
X014997Y004401D02*
X014997Y004295D01*
X014997Y004348D02*
X015317Y004348D01*
X015317Y004295D02*
X015317Y004401D01*
X015264Y004140D02*
X015157Y004140D01*
X015104Y004086D01*
X015104Y003926D01*
X014997Y003926D02*
X015317Y003926D01*
X015317Y004086D01*
X015264Y004140D01*
X015264Y003771D02*
X015317Y003718D01*
X015317Y003611D01*
X015264Y003558D01*
X015050Y003558D01*
X014997Y003611D01*
X014997Y003718D01*
X015050Y003771D01*
X015157Y003771D01*
X015157Y003665D01*
X015997Y003611D02*
X015997Y003718D01*
X016050Y003771D01*
X016157Y003771D01*
X016157Y003665D01*
X016264Y003771D02*
X016317Y003718D01*
X016317Y003611D01*
X016264Y003558D01*
X016050Y003558D01*
X015997Y003611D01*
X015997Y003926D02*
X016317Y003926D01*
X016317Y004086D01*
X016264Y004140D01*
X016157Y004140D01*
X016104Y004086D01*
X016104Y003926D01*
X015997Y004295D02*
X015997Y004401D01*
X015997Y004348D02*
X016317Y004348D01*
X016317Y004295D02*
X016317Y004401D01*
X016317Y004540D02*
X015997Y004754D01*
X016317Y004754D01*
X016317Y004908D02*
X016317Y005122D01*
X016264Y005122D01*
X016050Y004908D01*
X015997Y004908D01*
X015997Y004540D02*
X016317Y004540D01*
X016997Y004455D02*
X017050Y004508D01*
X017264Y004508D01*
X017317Y004455D01*
X017317Y004348D01*
X017264Y004295D01*
X017050Y004295D01*
X016997Y004348D01*
X016997Y004455D01*
X017050Y004663D02*
X016997Y004716D01*
X016997Y004823D01*
X017050Y004876D01*
X017317Y004876D01*
X017317Y005031D02*
X017317Y005245D01*
X017317Y005138D02*
X016997Y005138D01*
X017050Y005399D02*
X017264Y005613D01*
X017050Y005613D01*
X016997Y005560D01*
X016997Y005453D01*
X017050Y005399D01*
X017264Y005399D01*
X017317Y005453D01*
X017317Y005560D01*
X017264Y005613D01*
X017997Y005613D02*
X017997Y005399D01*
X017997Y005506D02*
X018317Y005506D01*
X018211Y005399D01*
X018317Y005245D02*
X018317Y005031D01*
X018317Y005138D02*
X017997Y005138D01*
X018050Y004876D02*
X018317Y004876D01*
X018317Y004663D02*
X018050Y004663D01*
X017997Y004716D01*
X017997Y004823D01*
X018050Y004876D01*
X018050Y004508D02*
X018264Y004508D01*
X018317Y004455D01*
X018317Y004348D01*
X018264Y004295D01*
X018050Y004295D01*
X017997Y004348D01*
X017997Y004455D01*
X018050Y004508D01*
X018157Y004140D02*
X018104Y004086D01*
X018104Y003926D01*
X017997Y003926D02*
X018317Y003926D01*
X018317Y004086D01*
X018264Y004140D01*
X018157Y004140D01*
X018157Y003771D02*
X018050Y003771D01*
X017997Y003718D01*
X017997Y003611D01*
X018050Y003558D01*
X018264Y003558D01*
X018317Y003611D01*
X018317Y003718D01*
X018264Y003771D01*
X018157Y003771D02*
X018157Y003665D01*
X018997Y003611D02*
X018997Y003718D01*
X019050Y003771D01*
X019157Y003771D01*
X019157Y003665D01*
X019264Y003771D02*
X019317Y003718D01*
X019317Y003611D01*
X019264Y003558D01*
X019050Y003558D01*
X018997Y003611D01*
X018997Y003926D02*
X019317Y003926D01*
X019317Y004086D01*
X019264Y004140D01*
X019157Y004140D01*
X019104Y004086D01*
X019104Y003926D01*
X019050Y004295D02*
X018997Y004348D01*
X018997Y004455D01*
X019050Y004508D01*
X019264Y004508D01*
X019317Y004455D01*
X019317Y004348D01*
X019264Y004295D01*
X019050Y004295D01*
X019050Y004663D02*
X018997Y004716D01*
X018997Y004823D01*
X019050Y004876D01*
X019317Y004876D01*
X019317Y005031D02*
X019317Y005245D01*
X019317Y005138D02*
X018997Y005138D01*
X018997Y005399D02*
X019211Y005613D01*
X019264Y005613D01*
X019317Y005560D01*
X019317Y005453D01*
X019264Y005399D01*
X018997Y005399D02*
X018997Y005613D01*
X019997Y005560D02*
X019997Y005453D01*
X020050Y005399D01*
X020157Y005506D02*
X020157Y005560D01*
X020104Y005613D01*
X020050Y005613D01*
X019997Y005560D01*
X020157Y005560D02*
X020211Y005613D01*
X020264Y005613D01*
X020317Y005560D01*
X020317Y005453D01*
X020264Y005399D01*
X020317Y005245D02*
X020317Y005031D01*
X020317Y005138D02*
X019997Y005138D01*
X020050Y004876D02*
X019997Y004823D01*
X019997Y004716D01*
X020050Y004663D01*
X020317Y004663D01*
X020264Y004508D02*
X020317Y004455D01*
X020317Y004348D01*
X020264Y004295D01*
X020050Y004295D01*
X019997Y004348D01*
X019997Y004455D01*
X020050Y004508D01*
X020264Y004508D01*
X020317Y004876D02*
X020050Y004876D01*
X019317Y004663D02*
X019050Y004663D01*
X020104Y004086D02*
X020104Y003926D01*
X019997Y003926D02*
X020317Y003926D01*
X020317Y004086D01*
X020264Y004140D01*
X020157Y004140D01*
X020104Y004086D01*
X020157Y003771D02*
X020157Y003665D01*
X020157Y003771D02*
X020050Y003771D01*
X019997Y003718D01*
X019997Y003611D01*
X020050Y003558D01*
X020264Y003558D01*
X020317Y003611D01*
X020317Y003718D01*
X020264Y003771D01*
X020997Y003718D02*
X020997Y003611D01*
X021050Y003558D01*
X021264Y003558D01*
X021317Y003611D01*
X021317Y003718D01*
X021264Y003771D01*
X021157Y003771D02*
X021157Y003665D01*
X021157Y003771D02*
X021050Y003771D01*
X020997Y003718D01*
X020997Y003926D02*
X021317Y003926D01*
X021317Y004086D01*
X021264Y004140D01*
X021157Y004140D01*
X021104Y004086D01*
X021104Y003926D01*
X021050Y004295D02*
X020997Y004348D01*
X020997Y004455D01*
X021050Y004508D01*
X021264Y004508D01*
X021317Y004455D01*
X021317Y004348D01*
X021264Y004295D01*
X021050Y004295D01*
X021050Y004663D02*
X020997Y004716D01*
X020997Y004823D01*
X021050Y004876D01*
X021317Y004876D01*
X021317Y005031D02*
X021317Y005245D01*
X021317Y005138D02*
X020997Y005138D01*
X021157Y005399D02*
X021157Y005613D01*
X020997Y005560D02*
X021317Y005560D01*
X021157Y005399D01*
X021997Y005453D02*
X022050Y005399D01*
X021997Y005453D02*
X021997Y005560D01*
X022050Y005613D01*
X022157Y005613D01*
X022211Y005560D01*
X022211Y005506D01*
X022157Y005399D01*
X022317Y005399D01*
X022317Y005613D01*
X022317Y005245D02*
X022317Y005031D01*
X022317Y005138D02*
X021997Y005138D01*
X022050Y004876D02*
X022317Y004876D01*
X022317Y004663D02*
X022050Y004663D01*
X021997Y004716D01*
X021997Y004823D01*
X022050Y004876D01*
X022050Y004508D02*
X022264Y004508D01*
X022317Y004455D01*
X022317Y004348D01*
X022264Y004295D01*
X022050Y004295D01*
X021997Y004348D01*
X021997Y004455D01*
X022050Y004508D01*
X022157Y004140D02*
X022104Y004086D01*
X022104Y003926D01*
X021997Y003926D02*
X022317Y003926D01*
X022317Y004086D01*
X022264Y004140D01*
X022157Y004140D01*
X022157Y003771D02*
X022050Y003771D01*
X021997Y003718D01*
X021997Y003611D01*
X022050Y003558D01*
X022264Y003558D01*
X022317Y003611D01*
X022317Y003718D01*
X022264Y003771D01*
X022157Y003771D02*
X022157Y003665D01*
X022997Y003611D02*
X022997Y003718D01*
X023050Y003771D01*
X023157Y003771D01*
X023157Y003665D01*
X023264Y003771D02*
X023317Y003718D01*
X023317Y003611D01*
X023264Y003558D01*
X023050Y003558D01*
X022997Y003611D01*
X022997Y003926D02*
X023317Y003926D01*
X023317Y004086D01*
X023264Y004140D01*
X023157Y004140D01*
X023104Y004086D01*
X023104Y003926D01*
X023050Y004295D02*
X022997Y004348D01*
X022997Y004455D01*
X023050Y004508D01*
X023264Y004508D01*
X023317Y004455D01*
X023317Y004348D01*
X023264Y004295D01*
X023050Y004295D01*
X023050Y004663D02*
X022997Y004716D01*
X022997Y004823D01*
X023050Y004876D01*
X023317Y004876D01*
X023317Y005031D02*
X023317Y005245D01*
X023317Y005138D02*
X022997Y005138D01*
X023050Y005399D02*
X022997Y005453D01*
X022997Y005560D01*
X023050Y005613D01*
X023104Y005613D01*
X023157Y005560D01*
X023157Y005399D01*
X023050Y005399D01*
X023157Y005399D02*
X023264Y005506D01*
X023317Y005613D01*
X023997Y005399D02*
X024050Y005399D01*
X024264Y005613D01*
X024317Y005613D01*
X024317Y005399D01*
X024317Y005245D02*
X024317Y005031D01*
X024317Y005138D02*
X023997Y005138D01*
X024050Y004876D02*
X023997Y004823D01*
X023997Y004716D01*
X024050Y004663D01*
X024317Y004663D01*
X024264Y004508D02*
X024317Y004455D01*
X024317Y004348D01*
X024264Y004295D01*
X024050Y004295D01*
X023997Y004348D01*
X023997Y004455D01*
X024050Y004508D01*
X024264Y004508D01*
X024317Y004876D02*
X024050Y004876D01*
X023317Y004663D02*
X023050Y004663D01*
X024104Y004086D02*
X024104Y003926D01*
X023997Y003926D02*
X024317Y003926D01*
X024317Y004086D01*
X024264Y004140D01*
X024157Y004140D01*
X024104Y004086D01*
X024157Y003771D02*
X024157Y003665D01*
X024157Y003771D02*
X024050Y003771D01*
X023997Y003718D01*
X023997Y003611D01*
X024050Y003558D01*
X024264Y003558D01*
X024317Y003611D01*
X024317Y003718D01*
X024264Y003771D01*
X021317Y004663D02*
X021050Y004663D01*
X021122Y006558D02*
X021229Y006558D01*
X021282Y006611D01*
X021069Y006825D01*
X021069Y006611D01*
X021122Y006558D01*
X021282Y006611D02*
X021282Y006825D01*
X021229Y006878D01*
X021122Y006878D01*
X021069Y006825D01*
X020914Y006825D02*
X020914Y006771D01*
X020860Y006718D01*
X020700Y006718D01*
X020700Y006611D02*
X020700Y006825D01*
X020754Y006878D01*
X020860Y006878D01*
X020914Y006825D01*
X020914Y006611D02*
X020860Y006558D01*
X020754Y006558D01*
X020700Y006611D01*
X021437Y006611D02*
X021490Y006558D01*
X021597Y006558D01*
X021650Y006611D01*
X021437Y006825D01*
X021437Y006611D01*
X021650Y006611D02*
X021650Y006825D01*
X021597Y006878D01*
X021490Y006878D01*
X021437Y006825D01*
X021805Y006825D02*
X021859Y006878D01*
X021965Y006878D01*
X022019Y006825D01*
X021805Y006825D02*
X021805Y006771D01*
X022019Y006558D01*
X021805Y006558D01*
X022149Y006558D02*
X022203Y006558D01*
X022203Y006611D01*
X022149Y006611D01*
X022149Y006558D01*
X022358Y006611D02*
X022411Y006558D01*
X022518Y006558D01*
X022571Y006611D01*
X022464Y006718D02*
X022411Y006718D01*
X022358Y006665D01*
X022358Y006611D01*
X022411Y006718D02*
X022358Y006771D01*
X022358Y006825D01*
X022411Y006878D01*
X022518Y006878D01*
X022571Y006825D01*
X022726Y006825D02*
X022779Y006878D01*
X022886Y006878D01*
X022939Y006825D01*
X022726Y006825D02*
X022726Y006771D01*
X022939Y006558D01*
X022726Y006558D01*
X023070Y006558D02*
X023070Y006611D01*
X023124Y006611D01*
X023124Y006558D01*
X023070Y006558D01*
X023324Y006771D02*
X023430Y006665D01*
X023430Y006771D02*
X023430Y006558D01*
X023585Y006611D02*
X023639Y006558D01*
X023799Y006558D01*
X023799Y006451D02*
X023799Y006771D01*
X023639Y006771D01*
X023585Y006718D01*
X023585Y006611D01*
X023324Y006771D02*
X023270Y006771D01*
X023954Y006771D02*
X023954Y006558D01*
X023954Y006718D02*
X024167Y006718D01*
X024167Y006771D02*
X024167Y006558D01*
X024167Y006771D02*
X024060Y006878D01*
X023954Y006771D01*
X023807Y007308D02*
X023700Y007308D01*
X023807Y007308D02*
X023860Y007361D01*
X023860Y007468D01*
X023807Y007521D01*
X023700Y007521D01*
X023647Y007468D01*
X023647Y007415D01*
X023860Y007415D01*
X024007Y007521D02*
X024060Y007521D01*
X024167Y007415D01*
X024167Y007521D02*
X024167Y007308D01*
X023492Y007521D02*
X023385Y007308D01*
X023278Y007521D01*
X023124Y007361D02*
X023070Y007361D01*
X023070Y007308D01*
X023124Y007308D01*
X023124Y007361D01*
X022939Y007308D02*
X022726Y007308D01*
X022833Y007308D02*
X022833Y007628D01*
X022939Y007521D01*
X022571Y007361D02*
X022518Y007361D01*
X022518Y007308D01*
X022571Y007308D01*
X022571Y007361D01*
X022387Y007361D02*
X022173Y007575D01*
X022173Y007361D01*
X022227Y007308D01*
X022334Y007308D01*
X022387Y007361D01*
X022387Y007575D01*
X022334Y007628D01*
X022227Y007628D01*
X022173Y007575D01*
X022165Y008058D02*
X022112Y008111D01*
X022112Y008218D01*
X022165Y008271D01*
X022272Y008271D01*
X022325Y008218D01*
X022325Y008111D01*
X022272Y008058D01*
X022165Y008058D01*
X021957Y008058D02*
X021797Y008058D01*
X021744Y008111D01*
X021797Y008165D01*
X021904Y008165D01*
X021957Y008218D01*
X021904Y008271D01*
X021744Y008271D01*
X021589Y008271D02*
X021482Y008271D01*
X021536Y008325D02*
X021536Y008111D01*
X021482Y008058D01*
X021282Y008808D02*
X021282Y009021D01*
X021175Y009128D01*
X021069Y009021D01*
X021069Y008808D01*
X021069Y008968D02*
X021282Y008968D01*
X020914Y009021D02*
X020807Y009021D01*
X020860Y009075D02*
X020860Y008861D01*
X020807Y008808D01*
X020300Y008808D02*
X020300Y009128D01*
X020300Y008968D02*
X020086Y008968D01*
X019932Y008968D02*
X019878Y009021D01*
X019771Y009021D01*
X019718Y008968D01*
X019718Y008861D01*
X019771Y008808D01*
X019878Y008808D01*
X019932Y008861D01*
X019932Y008968D01*
X020086Y009128D02*
X020086Y008808D01*
X019563Y008808D02*
X019563Y009021D01*
X019510Y009021D01*
X019457Y008968D01*
X019403Y009021D01*
X019350Y008968D01*
X019350Y008808D01*
X019457Y008808D02*
X019457Y008968D01*
X019195Y008968D02*
X019142Y009021D01*
X019035Y009021D01*
X018981Y008968D01*
X018981Y008915D01*
X019195Y008915D01*
X019195Y008968D02*
X019195Y008861D01*
X019142Y008808D01*
X019035Y008808D01*
X018458Y008808D02*
X018245Y009021D01*
X018245Y009075D01*
X018298Y009128D01*
X018405Y009128D01*
X018458Y009075D01*
X018458Y008808D02*
X018245Y008808D01*
X018090Y008861D02*
X017877Y009075D01*
X017877Y008861D01*
X017930Y008808D01*
X018037Y008808D01*
X018090Y008861D01*
X018090Y009075D01*
X018037Y009128D01*
X017930Y009128D01*
X017877Y009075D01*
X017722Y009075D02*
X017668Y009128D01*
X017562Y009128D01*
X017508Y009075D01*
X017722Y008861D01*
X017668Y008808D01*
X017562Y008808D01*
X017508Y008861D01*
X017508Y009075D01*
X017353Y009075D02*
X017353Y009021D01*
X017300Y008968D01*
X017140Y008968D01*
X017140Y008861D02*
X017140Y009075D01*
X017193Y009128D01*
X017300Y009128D01*
X017353Y009075D01*
X017353Y008861D02*
X017300Y008808D01*
X017193Y008808D01*
X017140Y008861D01*
X017722Y008861D02*
X017722Y009075D01*
X017997Y010058D02*
X018317Y010058D01*
X018317Y010218D01*
X018264Y010271D01*
X018157Y010271D01*
X018104Y010218D01*
X018104Y010058D01*
X018104Y010165D02*
X017997Y010271D01*
X017997Y010426D02*
X017997Y010640D01*
X018050Y010795D02*
X017997Y010848D01*
X017997Y010955D01*
X018050Y011008D01*
X018104Y011008D01*
X018157Y010955D01*
X018157Y010848D01*
X018211Y010795D01*
X018264Y010795D01*
X018317Y010848D01*
X018317Y010955D01*
X018264Y011008D01*
X018317Y011163D02*
X017997Y011163D01*
X017997Y011376D01*
X018157Y011270D02*
X018157Y011163D01*
X018317Y011163D02*
X018317Y011376D01*
X018317Y011531D02*
X018317Y011745D01*
X018317Y011638D02*
X017997Y011638D01*
X017957Y012018D02*
X017957Y013018D01*
X016957Y013018D02*
X016957Y011018D01*
X016997Y010640D02*
X017104Y010533D01*
X017104Y010586D02*
X017104Y010426D01*
X016997Y010426D02*
X017317Y010426D01*
X017317Y010586D01*
X017264Y010640D01*
X017157Y010640D01*
X017104Y010586D01*
X016997Y010271D02*
X017317Y010271D01*
X017211Y010165D01*
X017317Y010058D01*
X016997Y010058D01*
X016317Y010111D02*
X016264Y010058D01*
X016211Y010058D01*
X016157Y010111D01*
X016157Y010218D01*
X016104Y010271D01*
X016050Y010271D01*
X015997Y010218D01*
X015997Y010111D01*
X016050Y010058D01*
X016317Y010111D02*
X016317Y010218D01*
X016264Y010271D01*
X016264Y010426D02*
X016050Y010426D01*
X015997Y010480D01*
X015997Y010586D01*
X016050Y010640D01*
X015997Y010795D02*
X015997Y011008D01*
X015997Y011163D02*
X016317Y011163D01*
X016157Y011216D02*
X015997Y011376D01*
X016104Y011163D02*
X016317Y011376D01*
X015957Y011768D02*
X015957Y013018D01*
X014957Y013018D02*
X014957Y011018D01*
X015050Y010640D02*
X014997Y010586D01*
X014997Y010480D01*
X015050Y010426D01*
X015157Y010480D02*
X015157Y010586D01*
X015104Y010640D01*
X015050Y010640D01*
X015157Y010480D02*
X015211Y010426D01*
X015264Y010426D01*
X015317Y010480D01*
X015317Y010586D01*
X015264Y010640D01*
X015264Y010271D02*
X015317Y010218D01*
X015317Y010111D01*
X015264Y010058D01*
X015211Y010058D01*
X015157Y010111D01*
X015157Y010218D01*
X015104Y010271D01*
X015050Y010271D01*
X014997Y010218D01*
X014997Y010111D01*
X015050Y010058D01*
X014317Y010058D02*
X014211Y010165D01*
X014317Y010271D01*
X013997Y010271D01*
X013997Y010426D02*
X013997Y010533D01*
X013997Y010480D02*
X014317Y010480D01*
X014317Y010533D02*
X014317Y010426D01*
X014264Y010672D02*
X014211Y010672D01*
X014157Y010725D01*
X014157Y010832D01*
X014104Y010885D01*
X014050Y010885D01*
X013997Y010832D01*
X013997Y010725D01*
X014050Y010672D01*
X014264Y010672D02*
X014317Y010725D01*
X014317Y010832D01*
X014264Y010885D01*
X014264Y011040D02*
X014050Y011040D01*
X013997Y011093D01*
X013997Y011200D01*
X014050Y011254D01*
X014264Y011254D01*
X014317Y011200D01*
X014317Y011093D01*
X014264Y011040D01*
X013957Y011518D02*
X013957Y013018D01*
X012957Y013018D02*
X012957Y011518D01*
X012997Y011270D02*
X012997Y011163D01*
X012997Y011216D02*
X013317Y011216D01*
X013317Y011163D02*
X013317Y011270D01*
X013264Y011008D02*
X013317Y010955D01*
X013317Y010848D01*
X013264Y010795D01*
X013211Y010795D01*
X013157Y010848D01*
X013157Y010955D01*
X013104Y011008D01*
X013050Y011008D01*
X012997Y010955D01*
X012997Y010848D01*
X013050Y010795D01*
X013050Y010640D02*
X013264Y010640D01*
X013317Y010586D01*
X013317Y010480D01*
X013264Y010426D01*
X013050Y010426D01*
X012997Y010480D01*
X012997Y010586D01*
X013050Y010640D01*
X012997Y010271D02*
X013317Y010271D01*
X013211Y010165D01*
X013317Y010058D01*
X012997Y010058D01*
X012317Y010058D02*
X012317Y010165D01*
X012317Y010111D02*
X011997Y010111D01*
X011997Y010058D02*
X011997Y010165D01*
X011997Y010303D02*
X012317Y010303D01*
X011997Y010517D01*
X012317Y010517D01*
X012317Y010672D02*
X012317Y010885D01*
X012317Y010779D02*
X011997Y010779D01*
X011957Y011018D02*
X011957Y013018D01*
X010957Y013018D02*
X010957Y011268D01*
X010997Y011008D02*
X011317Y010795D01*
X011264Y010640D02*
X011157Y010640D01*
X011104Y010586D01*
X011104Y010426D01*
X010997Y010426D02*
X011317Y010426D01*
X011317Y010586D01*
X011264Y010640D01*
X010997Y010795D02*
X011317Y011008D01*
X011264Y010271D02*
X011317Y010218D01*
X011317Y010111D01*
X011264Y010058D01*
X011050Y010058D01*
X010997Y010111D01*
X010997Y010218D01*
X011050Y010271D01*
X011157Y010271D01*
X011157Y010165D01*
X010317Y010271D02*
X010104Y010271D01*
X009997Y010165D01*
X010104Y010058D01*
X010317Y010058D01*
X010317Y010426D02*
X009997Y010426D01*
X009997Y010586D01*
X010050Y010640D01*
X010104Y010640D01*
X010157Y010586D01*
X010157Y010426D01*
X010317Y010426D02*
X010317Y010586D01*
X010264Y010640D01*
X010211Y010640D01*
X010157Y010586D01*
X010050Y010795D02*
X009997Y010848D01*
X009997Y010955D01*
X010050Y011008D01*
X010317Y011008D01*
X010264Y011163D02*
X010211Y011163D01*
X010157Y011216D01*
X010157Y011323D01*
X010104Y011376D01*
X010050Y011376D01*
X009997Y011323D01*
X009997Y011216D01*
X010050Y011163D01*
X010264Y011163D02*
X010317Y011216D01*
X010317Y011323D01*
X010264Y011376D01*
X009944Y011531D02*
X009944Y011745D01*
X010050Y011899D02*
X009997Y011953D01*
X009997Y012060D01*
X010050Y012113D01*
X010264Y012113D01*
X010317Y012060D01*
X010317Y011953D01*
X010264Y011899D01*
X010050Y011899D01*
X009997Y012268D02*
X010317Y012268D01*
X009997Y012481D01*
X010317Y012481D01*
X009957Y012768D02*
X009957Y013018D01*
X009317Y012636D02*
X008997Y012636D01*
X008997Y012850D01*
X009104Y012481D02*
X008997Y012375D01*
X009104Y012268D01*
X009317Y012268D01*
X009264Y012113D02*
X009050Y012113D01*
X008997Y012060D01*
X008997Y011953D01*
X009050Y011899D01*
X009264Y011899D01*
X009317Y011953D01*
X009317Y012060D01*
X009264Y012113D01*
X009317Y012481D02*
X009104Y012481D01*
X008944Y011745D02*
X008944Y011531D01*
X009050Y011376D02*
X008997Y011323D01*
X008997Y011216D01*
X009050Y011163D01*
X009157Y011216D02*
X009157Y011323D01*
X009104Y011376D01*
X009050Y011376D01*
X009157Y011216D02*
X009211Y011163D01*
X009264Y011163D01*
X009317Y011216D01*
X009317Y011323D01*
X009264Y011376D01*
X009317Y011008D02*
X009050Y011008D01*
X008997Y010955D01*
X008997Y010848D01*
X009050Y010795D01*
X009317Y010795D01*
X009264Y010640D02*
X009211Y010640D01*
X009157Y010586D01*
X009157Y010426D01*
X008997Y010426D02*
X009317Y010426D01*
X009317Y010586D01*
X009264Y010640D01*
X009157Y010586D02*
X009104Y010640D01*
X009050Y010640D01*
X008997Y010586D01*
X008997Y010426D01*
X009104Y010271D02*
X009317Y010271D01*
X009104Y010271D02*
X008997Y010165D01*
X009104Y010058D01*
X009317Y010058D01*
X010050Y010795D02*
X010317Y010795D01*
X006917Y012518D02*
X006637Y012518D01*
X006777Y012658D02*
X006777Y012378D01*
X006317Y011890D02*
X006104Y011890D01*
X005997Y011783D01*
X006104Y011676D01*
X006317Y011676D01*
X006317Y011521D02*
X006317Y011308D01*
X006157Y011308D01*
X006211Y011415D01*
X006211Y011468D01*
X006157Y011521D01*
X006050Y011521D01*
X005997Y011468D01*
X005997Y011361D01*
X006050Y011308D01*
X005567Y011415D02*
X005567Y011521D01*
X005567Y011468D02*
X005300Y011468D01*
X005247Y011415D01*
X005247Y011361D01*
X005300Y011308D01*
X005247Y011676D02*
X005567Y011676D01*
X005567Y011836D01*
X005514Y011890D01*
X005407Y011890D01*
X005354Y011836D01*
X005354Y011676D01*
X005461Y012045D02*
X005567Y012151D01*
X005247Y012151D01*
X005247Y012045D02*
X005247Y012258D01*
X006637Y013518D02*
X006917Y013518D01*
X013997Y010058D02*
X014317Y010058D01*
X015997Y010795D02*
X016317Y010795D01*
X016264Y010640D02*
X016317Y010586D01*
X016317Y010480D01*
X016264Y010426D01*
X017997Y010426D02*
X018317Y010426D01*
X018317Y010640D01*
X018157Y010533D02*
X018157Y010426D01*
X018997Y010426D02*
X018997Y010586D01*
X019050Y010640D01*
X019104Y010640D01*
X019157Y010586D01*
X019157Y010426D01*
X018997Y010426D02*
X019317Y010426D01*
X019317Y010586D01*
X019264Y010640D01*
X019211Y010640D01*
X019157Y010586D01*
X019050Y010795D02*
X018997Y010848D01*
X018997Y010955D01*
X019050Y011008D01*
X019050Y011163D02*
X018997Y011216D01*
X018997Y011323D01*
X019050Y011376D01*
X019264Y011376D01*
X019317Y011323D01*
X019317Y011216D01*
X019264Y011163D01*
X019050Y011163D01*
X019264Y011008D02*
X019317Y010955D01*
X019317Y010848D01*
X019264Y010795D01*
X019050Y010795D01*
X019104Y010271D02*
X019317Y010271D01*
X019104Y010271D02*
X018997Y010165D01*
X019104Y010058D01*
X019317Y010058D01*
X019997Y010165D02*
X020104Y010271D01*
X020317Y010271D01*
X020317Y010426D02*
X019997Y010426D01*
X019997Y010640D01*
X019957Y011018D02*
X019957Y013018D01*
X018957Y013018D02*
X018957Y012268D01*
X019157Y012113D02*
X019104Y012060D01*
X019104Y011899D01*
X018997Y011899D02*
X019317Y011899D01*
X019317Y012060D01*
X019264Y012113D01*
X019157Y012113D01*
X019317Y011745D02*
X018997Y011745D01*
X019211Y011638D02*
X019317Y011745D01*
X019211Y011638D02*
X019317Y011531D01*
X018997Y011531D01*
X020957Y011268D02*
X020957Y013018D01*
X021957Y013018D02*
X021957Y011268D01*
X021997Y011008D02*
X021997Y010848D01*
X022050Y010795D01*
X022157Y010795D01*
X022211Y010848D01*
X022211Y011008D01*
X022211Y010640D02*
X022211Y010480D01*
X022157Y010426D01*
X022050Y010426D01*
X021997Y010480D01*
X021997Y010640D01*
X022104Y010271D02*
X022317Y010271D01*
X022104Y010271D02*
X021997Y010165D01*
X022104Y010058D01*
X022317Y010058D01*
X022997Y010111D02*
X023050Y010058D01*
X023264Y010058D01*
X023317Y010111D01*
X023317Y010218D01*
X023264Y010271D01*
X023157Y010271D02*
X023157Y010165D01*
X023157Y010271D02*
X023050Y010271D01*
X022997Y010218D01*
X022997Y010111D01*
X022997Y010426D02*
X023317Y010426D01*
X022997Y010640D01*
X023317Y010640D01*
X023317Y010795D02*
X022997Y010795D01*
X022997Y010955D01*
X023050Y011008D01*
X023264Y011008D01*
X023317Y010955D01*
X023317Y010795D01*
X023997Y010795D02*
X023997Y010955D01*
X024050Y011008D01*
X024264Y011008D01*
X024317Y010955D01*
X024317Y010795D01*
X023997Y010795D01*
X023997Y010640D02*
X024317Y010640D01*
X024317Y010426D02*
X023997Y010640D01*
X023997Y010426D02*
X024317Y010426D01*
X024264Y010271D02*
X024317Y010218D01*
X024317Y010111D01*
X024264Y010058D01*
X024050Y010058D01*
X023997Y010111D01*
X023997Y010218D01*
X024050Y010271D01*
X024157Y010271D01*
X024157Y010165D01*
X023745Y009182D02*
X023745Y009128D01*
X023745Y009021D02*
X023745Y008808D01*
X023692Y008808D02*
X023799Y008808D01*
X023954Y008861D02*
X024007Y008808D01*
X024114Y008808D01*
X024167Y008861D01*
X024167Y009075D01*
X024114Y009128D01*
X024007Y009128D01*
X023954Y009075D01*
X023799Y009021D02*
X023745Y009021D01*
X023553Y009021D02*
X023553Y008808D01*
X023553Y008915D02*
X023446Y009021D01*
X023393Y009021D01*
X023246Y008968D02*
X023246Y008861D01*
X023193Y008808D01*
X023033Y008808D01*
X022878Y008861D02*
X022825Y008808D01*
X022664Y008808D01*
X022664Y009021D01*
X022510Y009021D02*
X022456Y009021D01*
X022456Y008808D01*
X022403Y008808D02*
X022510Y008808D01*
X022211Y008861D02*
X022157Y008808D01*
X022211Y008861D02*
X022211Y009075D01*
X022264Y009021D02*
X022157Y009021D01*
X022019Y008968D02*
X021965Y009021D01*
X021805Y009021D01*
X021859Y008915D02*
X021965Y008915D01*
X022019Y008968D01*
X022019Y008808D02*
X021859Y008808D01*
X021805Y008861D01*
X021859Y008915D01*
X022456Y009128D02*
X022456Y009182D01*
X022878Y009021D02*
X022878Y008861D01*
X023033Y009021D02*
X023193Y009021D01*
X023246Y008968D01*
X023270Y008378D02*
X023217Y008325D01*
X023217Y008271D01*
X023270Y008218D01*
X023430Y008218D01*
X023270Y008218D02*
X023217Y008165D01*
X023217Y008111D01*
X023270Y008058D01*
X023430Y008058D01*
X023430Y008378D01*
X023270Y008378D01*
X023585Y008325D02*
X023639Y008378D01*
X023745Y008378D01*
X023799Y008325D01*
X023799Y008271D01*
X023745Y008218D01*
X023639Y008218D01*
X023585Y008165D01*
X023585Y008111D01*
X023639Y008058D01*
X023745Y008058D01*
X023799Y008111D01*
X023954Y008111D02*
X023954Y008378D01*
X024167Y008378D02*
X024167Y008111D01*
X024114Y008058D01*
X024007Y008058D01*
X023954Y008111D01*
X022694Y008058D02*
X022694Y008378D01*
X022694Y008218D02*
X022480Y008218D01*
X022480Y008378D02*
X022480Y008058D01*
X021317Y010058D02*
X021104Y010058D01*
X020997Y010165D01*
X021104Y010271D01*
X021317Y010271D01*
X021157Y010426D02*
X021050Y010426D01*
X020997Y010480D01*
X020997Y010640D01*
X021050Y010795D02*
X020997Y010848D01*
X020997Y011008D01*
X021211Y011008D02*
X021211Y010848D01*
X021157Y010795D01*
X021050Y010795D01*
X021211Y010640D02*
X021211Y010480D01*
X021157Y010426D01*
X020317Y010058D02*
X020104Y010058D01*
X019997Y010165D01*
X022957Y011268D02*
X022957Y013018D01*
X023957Y013018D02*
X023957Y011268D01*
X017317Y004663D02*
X017050Y004663D01*
X017157Y004140D02*
X017104Y004086D01*
X017104Y003926D01*
X016997Y003926D02*
X017317Y003926D01*
X017317Y004086D01*
X017264Y004140D01*
X017157Y004140D01*
X017157Y003771D02*
X017050Y003771D01*
X016997Y003718D01*
X016997Y003611D01*
X017050Y003558D01*
X017264Y003558D01*
X017317Y003611D01*
X017317Y003718D01*
X017264Y003771D01*
X017157Y003771D02*
X017157Y003665D01*
M02*
