%
M48
M72
T01C0.0200
T02C0.0236
T03C0.0320
T04C0.0360
T05C0.0400
T06C0.0866
T07C0.1300
%
T01
X9992Y6038
X9107Y6234
X11764Y7416
X12355Y7711
X12355Y8400
X11174Y8597
X11174Y8105
X10386Y9089
X12650Y10860
X13634Y11254
X13437Y11746
X14028Y12238
X14618Y12238
X12355Y12829
X11453Y12148
X10583Y11648
X11075Y11353
X10681Y10959
X11075Y13026
X14422Y10860
X14225Y10073
X14914Y9975
X13733Y7219
X19244Y12238
T02
X13595Y5841
T03
X11288Y4463
X9288Y4463
T04
X8107Y6640
X8107Y7624
X8107Y8412
X8107Y9396
T05
X5957Y12518
X5957Y13518
X8957Y13518
X9957Y13518
X10957Y13518
X11957Y13518
X12957Y13518
X13957Y13518
X14957Y13518
X15957Y13518
X16957Y13518
X17957Y13518
X18957Y13518
X19957Y13518
X20957Y13518
X21957Y13518
X22957Y13518
X23957Y13518
X5957Y3518
X5957Y2518
X8957Y2518
X9957Y2518
X10957Y2518
X11957Y2518
X12957Y2518
X13957Y2518
X14957Y2518
X15957Y2518
X16957Y2518
X17957Y2518
X18957Y2518
X19957Y2518
X20957Y2518
X21957Y2518
X22957Y2518
X23957Y2518
T06
X7162Y5734
X7162Y10301
T07
X4457Y2018
X4457Y14018
X25457Y14018
X25457Y2018
M30
