G75*
G70*
%OFA0B0*%
%FSLAX24Y24*%
%IPPOS*%
%LPD*%
%AMOC8*
5,1,8,0,0,1.08239X$1,22.5*
%
%ADD10C,0.0680*%
%ADD11C,0.1346*%
%ADD12C,0.0720*%
%ADD13R,0.0720X0.0720*%
%ADD14C,0.0640*%
%ADD15C,0.1380*%
D10*
X008107Y006640D03*
X008107Y007624D03*
X008107Y008412D03*
X008107Y009396D03*
D11*
X007162Y010301D03*
X007162Y005734D03*
D12*
X005957Y003518D03*
X005957Y002518D03*
X009957Y002518D03*
X010957Y002518D03*
X011957Y002518D03*
X012957Y002518D03*
X013957Y002518D03*
X014957Y002518D03*
X015957Y002518D03*
X017957Y002518D03*
X018957Y002518D03*
X019957Y002518D03*
X020957Y002518D03*
X021957Y002518D03*
X022957Y002518D03*
X023957Y002518D03*
X005957Y012518D03*
X005957Y013518D03*
X009957Y013518D03*
X010957Y013518D03*
X011957Y013518D03*
X012957Y013518D03*
X013957Y013518D03*
X014957Y013518D03*
X015957Y013518D03*
X017957Y013518D03*
X018957Y013518D03*
X019957Y013518D03*
X020957Y013518D03*
X021957Y013518D03*
X022957Y013518D03*
X023957Y013518D03*
D13*
X016957Y013518D03*
X008957Y013518D03*
X008957Y002518D03*
X016957Y002518D03*
D14*
X011288Y004463D03*
X009288Y004463D03*
D15*
X004457Y002018D03*
X004457Y014018D03*
X025457Y014018D03*
X025457Y002018D03*
M02*
