%FSLAX25Y25*%
%MOIN*%
G70*
G01*
G75*
G04 Layer_Physical_Order=2*
G04 Layer_Color=16711680*
%ADD10P,0.08352X4X381.0*%
%ADD11R,0.05906X0.05906*%
%ADD12P,0.08352X4X393.0*%
%ADD13P,0.08352X4X375.0*%
%ADD14P,0.08352X4X387.0*%
%ADD15P,0.08352X4X165.0*%
%ADD16R,0.05906X0.05906*%
%ADD17C,0.01000*%
%ADD18C,0.01969*%
%ADD19C,0.07874*%
%ADD20C,0.14961*%
%ADD21C,0.11811*%
%ADD22C,0.07575*%
%ADD23C,0.09843*%
%ADD24P,0.08908X4X47.0*%
%ADD25C,0.06299*%
%ADD26C,0.18740*%
%ADD27P,0.09410X4X312.0*%
%ADD28C,0.06654*%
%ADD29C,0.05906*%
%ADD30C,0.11024*%
%ADD31R,0.11024X0.11024*%
%ADD32C,0.25000*%
%ADD33C,0.05512*%
%ADD34P,0.05966X8X112.5*%
%ADD35R,0.06654X0.06654*%
%ADD36R,0.11024X0.11024*%
%ADD37R,0.04921X0.04921*%
%ADD38C,0.04921*%
G04:AMPARAMS|DCode=39|XSize=60mil|YSize=59.96mil|CornerRadius=0mil|HoleSize=0mil|Usage=FLASHONLY|Rotation=357.000|XOffset=0mil|YOffset=0mil|HoleType=Round|Shape=Round|*
%AMOVALD39*
21,1,0.00004,0.05996,0.00000,0.00000,357.0*
1,1,0.05996,-0.00002,0.00000*
1,1,0.05996,0.00002,-0.00000*
%
%ADD39OVALD39*%

%ADD40C,0.04724*%
%ADD41R,0.04921X0.04921*%
%ADD42C,0.05000*%
%ADD43O,0.01181X0.09843*%
%ADD44O,0.09843X0.01181*%
%ADD45R,0.03150X0.03543*%
%ADD46R,0.03543X0.03150*%
%ADD47R,0.07480X0.05906*%
%ADD48R,0.12992X0.05512*%
%ADD49O,0.09055X0.02362*%
%ADD50R,0.03937X0.15551*%
%ADD51R,0.05906X0.07480*%
%ADD52R,0.05906X0.09449*%
%ADD53R,0.27362X0.35827*%
%ADD54R,0.28740X0.34252*%
%ADD55R,0.02362X0.04331*%
%ADD56O,0.06102X0.01181*%
%ADD57O,0.01181X0.06102*%
D11*
X1073843Y818000D02*
D03*
X1241878Y778000D02*
D03*
D17*
X925696Y923800D02*
X955300D01*
X921800Y925050D02*
X924446D01*
X925696Y923800D01*
X954900Y905500D02*
Y921900D01*
X954930Y904350D02*
Y910000D01*
Y904350D02*
X957938Y901342D01*
X963044D01*
X929760Y878840D02*
X933910Y882990D01*
Y887956D01*
X923044Y880624D02*
X926090Y883670D01*
X923044Y877700D02*
Y880624D01*
X926090Y892220D02*
Y893899D01*
X932547Y900356D01*
Y900900D01*
X938250Y902500D02*
X948863D01*
X937210D02*
X938250D01*
X841870Y892100D02*
X860540D01*
X930460Y902500D02*
X938250D01*
X924577Y896617D02*
X930460Y902500D01*
X924577Y894736D02*
Y896617D01*
X924346Y894504D02*
X924577Y894736D01*
X924346Y889646D02*
Y894504D01*
X948863Y902500D02*
X953958Y897405D01*
X968607Y913153D02*
X970990Y910770D01*
X963044Y913153D02*
X968607D01*
X937847Y932050D02*
Y935553D01*
X929680Y942080D02*
X932190Y939570D01*
X936510D01*
X937847Y938233D01*
Y932444D02*
Y938233D01*
X925336Y926423D02*
X946422D01*
X947412Y927413D01*
X916700Y939100D02*
X916730Y935370D01*
Y935029D02*
Y936030D01*
Y935029D02*
X925336Y926423D01*
X947412Y927582D02*
X947770Y927940D01*
X947412Y927413D02*
Y927582D01*
X955300Y923800D02*
X955900Y923200D01*
X957664Y924964D01*
X954458Y921758D02*
X955900Y923200D01*
X839106Y908394D02*
X839185Y908315D01*
X839500Y908000D01*
X804000Y908394D02*
X839106D01*
X839170Y908300D02*
X843680Y903790D01*
X844860Y913510D02*
X844935Y913435D01*
X849110Y909260D01*
X822500Y927900D02*
X836965Y913435D01*
X844935D02*
X844976D01*
X836965D02*
X844935D01*
X865760Y899850D02*
Y899930D01*
X947670Y929034D02*
Y929830D01*
X1025100Y728500D02*
Y736800D01*
X955564Y888350D02*
X970098D01*
X950952Y854892D02*
X962243Y843600D01*
X1032042D01*
X1036890Y848448D01*
Y886832D01*
X1027452Y896270D02*
X1036890Y886832D01*
X1006938Y896270D02*
X1027452D01*
X991738Y881070D02*
X1006938Y896270D01*
X977378Y881070D02*
X991738D01*
X970098Y888350D02*
X977378Y881070D01*
X975969Y885307D02*
Y887902D01*
X968733Y895037D02*
X975950Y887820D01*
X968733Y895037D02*
Y895436D01*
X969295Y897405D02*
X979000Y887700D01*
X962650Y897405D02*
X969295D01*
X975969Y885307D02*
X978206Y883070D01*
X990910D01*
X1006110Y898270D01*
X1028280D01*
X1038890Y887660D01*
Y847620D02*
Y887660D01*
X1032870Y841600D02*
X1038890Y847620D01*
X961415Y841600D02*
X1032870D01*
X949652Y853362D02*
X961415Y841600D01*
X949652Y853362D02*
X950115Y852900D01*
X944629Y858386D02*
X949652Y853362D01*
X883000Y889230D02*
X890780Y881450D01*
X883000Y889230D02*
Y901144D01*
X918394Y883694D02*
X924346Y889646D01*
X906310Y871940D02*
X919080Y884710D01*
X875990Y871940D02*
X906310D01*
X871490Y876440D02*
X875990Y871940D01*
X871490Y876440D02*
Y881150D01*
X801860Y916020D02*
X809620D01*
X809870Y915770D01*
X798600Y912760D02*
X801860Y916020D01*
X798600Y893480D02*
Y912760D01*
Y893480D02*
X799904Y892176D01*
X812700Y847500D02*
X814100Y848900D01*
X942160Y866800D02*
X946110Y870750D01*
X858100Y866800D02*
X942160D01*
X859070Y869800D02*
X941357D01*
X943320Y871763D01*
X944000D01*
X946000Y870934D02*
Y878300D01*
X949600Y881900D01*
X759700Y754000D02*
Y754500D01*
X919425Y703235D02*
X930080Y692580D01*
X932313Y690347D02*
X1010736D01*
X930080Y692580D02*
X932313Y690347D01*
X1010736D02*
X1017921Y697532D01*
X1009907Y692347D02*
X1017092Y699532D01*
X933141Y692347D02*
X1009907D01*
X921425Y704063D02*
X933141Y692347D01*
X1006480Y697316D02*
X1014063Y704899D01*
X935777Y697316D02*
X1006480D01*
X926801Y706292D02*
X935777Y697316D01*
X888484Y762257D02*
X919425Y731316D01*
Y703235D02*
Y731316D01*
X921425Y704063D02*
Y732144D01*
X890484Y763085D02*
X921425Y732144D01*
X926801Y706292D02*
Y733795D01*
X909147Y751449D02*
X926801Y733795D01*
X926009Y815147D02*
X931153D01*
X914772Y820472D02*
X915310Y819935D01*
X785200Y737400D02*
X787500Y735100D01*
X827800Y731600D02*
X829447Y733247D01*
X1064600Y827800D02*
X1065200D01*
X1234953Y951753D02*
X1242700Y959500D01*
X941903Y862800D02*
X944629Y860074D01*
Y858386D02*
Y860074D01*
X812000Y862800D02*
X941903D01*
X811800Y863000D02*
X812000Y862800D01*
X793400Y857800D02*
X800200Y864600D01*
X800100D02*
X800500Y865000D01*
X812628D01*
X812828Y864800D01*
X943387D01*
X948600Y859587D01*
Y857243D02*
Y859587D01*
Y857243D02*
X950943Y854900D01*
X950100Y876300D02*
Y879500D01*
X922344Y878400D02*
X923044Y877700D01*
X883800Y900800D02*
X888500Y905500D01*
Y913300D01*
X897700Y922500D01*
X794000Y745300D02*
X795900Y747200D01*
X780900Y798738D02*
Y887400D01*
X780800Y886000D02*
Y903801D01*
X784000Y907001D01*
Y924900D01*
X793300Y934200D01*
X853000D01*
X805900Y847500D02*
X812700D01*
X932179Y915121D02*
X938900Y908400D01*
X918950Y915121D02*
X932179D01*
X805900Y847500D02*
X806200Y847800D01*
X793413Y847500D02*
X805900D01*
X949200Y842200D02*
X949400Y842000D01*
X942184Y842200D02*
X949200D01*
X942184D02*
Y845386D01*
Y807114D02*
Y842200D01*
X925347Y913153D02*
X929300Y909200D01*
X918950Y913153D02*
X925347D01*
X847600Y870300D02*
Y873000D01*
X830900Y869600D02*
X831000D01*
X828100Y872400D02*
X830900Y869600D01*
X827600Y872400D02*
X828100D01*
X827600D02*
X828100Y871900D01*
X827600Y872400D02*
Y877000D01*
X836000D01*
X789400D02*
X827600D01*
X965100Y913300D02*
X965300Y913100D01*
X927800Y943300D02*
X929400D01*
X948100Y919300D02*
X948500Y919700D01*
X948100Y908200D02*
Y919300D01*
X915600Y940200D02*
X916700Y939100D01*
X913200Y917058D02*
X916642D01*
X912000Y915858D02*
X913200Y917058D01*
X912000Y915343D02*
Y915858D01*
X909657Y913000D02*
X912000Y915343D01*
X906343Y913000D02*
X909657D01*
X903843Y915500D02*
X906343Y913000D01*
X900100Y915500D02*
X903843D01*
X909700Y916500D02*
X912258Y919058D01*
X918950D01*
X897800Y922600D02*
X903700D01*
X904044Y922944D01*
X904800D01*
X922800Y823600D02*
X923400D01*
X920853D02*
X922800D01*
X925347Y821053D01*
X923400Y823600D02*
X926000Y826200D01*
X919300Y805800D02*
X920853Y807353D01*
Y814151D01*
X909147Y751449D02*
Y783463D01*
X919400Y834300D02*
X925400D01*
X936000Y823700D01*
Y810316D02*
Y823700D01*
X909147Y783463D02*
X936000Y810316D01*
X1014063Y704899D02*
Y717463D01*
X1025100Y728500D01*
X948100Y908200D02*
X950200Y906100D01*
X950300D01*
X957027Y899373D01*
X962650D01*
X959058Y901342D02*
X962650D01*
X883600Y907500D02*
Y916200D01*
X895856Y928456D01*
X904800D01*
X829447Y733247D02*
Y739047D01*
X1060400Y738900D02*
X1065100Y734200D01*
X1065300D01*
X1034200Y766200D02*
X1034953Y766953D01*
X817400Y903700D02*
X828600D01*
X825200Y899300D02*
X829300D01*
X936900Y942300D02*
X939816Y939384D01*
Y932050D02*
Y939384D01*
X832200Y827600D02*
X839400Y834800D01*
X832200Y823600D02*
Y827600D01*
X827100Y818500D02*
X832200Y823600D01*
X833816Y834716D02*
X838800Y839700D01*
X833816Y833516D02*
Y834716D01*
X826700Y826400D02*
X833816Y833516D01*
X940300Y896200D02*
X943753Y892747D01*
Y888350D02*
Y892747D01*
X945600Y895600D02*
X945721Y895479D01*
Y888350D02*
Y895479D01*
X948200Y900900D02*
X951627Y897473D01*
X932547Y900900D02*
X948200D01*
X951627Y888350D02*
Y897473D01*
X953958Y897405D02*
X962650D01*
X1049705Y828048D02*
X1049705Y828049D01*
X1049705Y829175D02*
X1060014Y839484D01*
X1049700Y829170D02*
X1049705Y829175D01*
Y829195D01*
Y828048D02*
Y829175D01*
Y826400D02*
Y828048D01*
X1049700Y829200D02*
X1049705Y829195D01*
Y810729D02*
Y826400D01*
X1060014Y839484D02*
X1070300D01*
X1079700Y848884D01*
Y955200D01*
X1073400Y961500D02*
X1079700Y955200D01*
X988028Y961500D02*
X1073400D01*
X975528Y949000D02*
X988028Y961500D01*
X1063381Y799881D02*
X1096283Y766979D01*
X1061453Y801809D02*
X1063381Y799881D01*
X1061453Y801809D02*
Y818843D01*
X1058198Y822098D02*
X1061453Y818843D01*
X1056357Y822098D02*
X1058198D01*
X1055116Y823339D02*
X1056357Y822098D01*
X1055116Y823339D02*
Y831757D01*
X1060843Y837484D01*
X1071247D01*
X1081700Y847937D01*
X1063453Y802638D02*
Y819671D01*
X1057116Y826008D02*
X1063453Y819671D01*
X1061671Y835484D02*
X1072075D01*
X1083700Y847109D01*
X1057116Y826008D02*
Y830929D01*
X1061671Y835484D01*
X1122500Y764800D02*
Y764979D01*
Y764800D02*
X1125356Y761944D01*
X1095455Y764979D02*
X1122321D01*
X1049705Y810729D02*
X1095455Y764979D01*
X1096283Y766979D02*
X1125121D01*
X1133900Y758200D01*
Y752100D02*
Y758200D01*
X1081000Y759800D02*
Y759900D01*
Y760000D01*
X934700Y878500D02*
X935879Y879679D01*
Y888350D01*
X933900Y884200D02*
Y885700D01*
X928556Y877700D02*
Y878856D01*
X938100Y882200D02*
Y885900D01*
Y882200D02*
X939700Y880600D01*
Y873800D02*
Y880600D01*
X944000Y871763D02*
Y879263D01*
X947690Y882952D01*
X856900Y725600D02*
X874216Y742916D01*
X804100Y927900D02*
X822500D01*
X853244Y707144D02*
Y723599D01*
X789700Y852500D02*
X790500D01*
X1042300Y742273D02*
Y761200D01*
X759300Y852900D02*
X759325D01*
X832600Y718600D02*
X834700D01*
X1250100Y827800D02*
X1252016Y829716D01*
X1005600Y929400D02*
X1015800Y939600D01*
X1054994Y894900D02*
X1067800D01*
X1041153Y908747D02*
X1048000Y901900D01*
X1029700Y914200D02*
X1036806Y921306D01*
X1047406D02*
X1048556Y922456D01*
X708500Y704927D02*
Y717300D01*
X953595Y940995D02*
X954800Y942200D01*
X955300Y941700D02*
Y945200D01*
X1067800Y900200D02*
Y901000D01*
X1312500Y795500D02*
Y801000D01*
X1243181Y861031D02*
X1271495D01*
X1207000Y914805D02*
X1207702Y914102D01*
X1240200Y908800D02*
X1254600D01*
X1278156Y905256D02*
X1287800Y914900D01*
X1211600Y955200D02*
X1213847D01*
X913572Y821672D02*
X914772Y820472D01*
X912800Y823200D02*
X912886Y823114D01*
X913947Y822053D01*
X913372Y833272D02*
X914000Y833900D01*
X711400Y748800D02*
X728761D01*
X734500Y755200D02*
X734900Y754800D01*
X811344Y914756D02*
X822000D01*
X904600Y923200D02*
X904900Y923500D01*
X795600Y852500D02*
X801300D01*
X811800Y863000D01*
X962650Y895436D02*
X968733D01*
X1141047Y920761D02*
Y931452D01*
X1141926Y932331D01*
X1149302D01*
X1159937Y942965D01*
X1147400Y927600D02*
X1162400Y942600D01*
Y964400D01*
X951349Y891851D02*
X951700Y891500D01*
X951349Y891851D02*
Y892003D01*
X916500Y873656D02*
X928556D01*
Y877700D01*
X904600Y818000D02*
X914416D01*
X914482Y817935D02*
X919800D01*
X920853Y816882D01*
X914416Y818000D02*
X914482Y817935D01*
X920853Y814151D02*
Y816882D01*
X782900Y870500D02*
X789400Y877000D01*
X782900Y799567D02*
Y870500D01*
X780900Y798738D02*
X784415Y795224D01*
X823776D01*
X825816Y793184D01*
Y790386D02*
Y793184D01*
Y790386D02*
X832286Y783916D01*
X850886D01*
X868216Y766586D01*
Y749287D02*
Y766586D01*
X849000Y730072D02*
X868216Y749287D01*
X849000Y721942D02*
Y730072D01*
Y721942D02*
X849244Y721698D01*
Y708801D02*
Y721698D01*
X840556Y700113D02*
X849244Y708801D01*
X796200Y700113D02*
X840556D01*
X794000Y702313D02*
X796200Y700113D01*
X794000Y702313D02*
Y745300D01*
X744800Y754400D02*
X750900Y760500D01*
X763085D01*
X766600Y756985D01*
Y754842D02*
Y756985D01*
Y754842D02*
X778085Y743357D01*
X781057D01*
X790653Y752953D01*
X796000D01*
X764600Y754013D02*
X773807Y744807D01*
X774007Y744607D01*
X773807Y744807D02*
X777257Y741357D01*
X783400D01*
X785843Y743800D01*
X789157D01*
X791500Y741457D01*
Y738143D02*
Y741457D01*
X790184Y736827D02*
X791500Y738143D01*
X790184Y702757D02*
Y736827D01*
X764600Y754013D02*
Y756157D01*
X762257Y758500D02*
X764600Y756157D01*
X758943Y758500D02*
X762257D01*
X756600Y756157D02*
X758943Y758500D01*
X756600Y753728D02*
Y756157D01*
X751072Y748200D02*
X756600Y753728D01*
X743400Y748200D02*
X751072D01*
X734900Y749300D02*
Y754800D01*
Y749300D02*
X738000Y746200D01*
X752200D01*
X754900Y748900D01*
Y749200D01*
X739506Y752094D02*
X743400Y748200D01*
X736122Y760150D02*
X739506Y756766D01*
X715350Y760150D02*
X736122D01*
X739506Y752094D02*
Y756766D01*
X715350Y760150D02*
X715700Y760500D01*
X711100Y755900D02*
X715350Y760150D01*
X825120Y797224D02*
X827816Y794527D01*
X785243Y797224D02*
X825120D01*
X790184Y702757D02*
X794829Y698113D01*
X841384D01*
X851244Y707973D01*
Y722526D01*
X851000Y722770D02*
X851244Y722526D01*
X851000Y722770D02*
Y727985D01*
X870216Y747201D01*
Y767414D01*
X851714Y785916D02*
X870216Y767414D01*
X833114Y785916D02*
X851714D01*
X827816Y791214D02*
X833114Y785916D01*
X827816Y791214D02*
Y794527D01*
X782900Y799567D02*
X785243Y797224D01*
X941700Y942900D02*
X941784Y942816D01*
X941700Y942900D02*
Y943028D01*
Y942700D02*
Y942900D01*
X941784Y932050D02*
Y942816D01*
X944272Y942200D02*
X953072Y951000D01*
X943753Y941653D02*
X944900Y942800D01*
X943753Y932050D02*
Y941653D01*
X950300Y945400D02*
X953900Y949000D01*
X950000Y945100D02*
X950300Y945400D01*
X949658Y944758D02*
X950300Y945400D01*
X949658Y932050D02*
Y944758D01*
X1093500Y948800D02*
X1094200Y949500D01*
X1115569Y883031D02*
X1117181D01*
Y883919D01*
X941700Y943028D02*
X951672Y953000D01*
X973872D01*
X986372Y965500D01*
X1075057D01*
X1083700Y956857D01*
Y952700D02*
Y956857D01*
X965000Y947000D02*
X970800Y941200D01*
X957100Y947000D02*
X965000D01*
X955300Y945200D02*
X957100Y947000D01*
X953900Y949000D02*
X975528D01*
X953072Y951000D02*
X974700D01*
X987200Y963500D01*
X1074228D01*
X1083700Y952700D02*
Y953200D01*
Y847109D02*
Y952700D01*
X1074228Y963500D02*
X1081700Y956028D01*
Y847937D02*
Y956028D01*
X1125356Y753387D02*
Y761944D01*
X1107737Y751535D02*
X1118127D01*
X1128766Y746966D02*
X1133900Y752100D01*
X1122696Y746966D02*
X1128766D01*
X1118127Y751535D02*
X1122696Y746966D01*
X1134708Y768979D02*
X1155000Y748687D01*
Y745000D02*
Y748687D01*
X1063453Y802638D02*
X1097112Y768979D01*
X853000Y723843D02*
X853244Y723599D01*
X853000Y727157D02*
X855343Y729500D01*
X855428D01*
X872216Y746287D01*
X874216Y742916D02*
Y769071D01*
X872216Y746287D02*
Y768243D01*
X864216Y751073D02*
Y764929D01*
X849543Y736400D02*
X864216Y751073D01*
X849543Y736271D02*
Y736400D01*
X839572Y726300D02*
X849543Y736271D01*
X866216Y750244D02*
Y765757D01*
X851543Y735571D02*
X866216Y750244D01*
X851543Y735443D02*
Y735571D01*
X834700Y718600D02*
X851543Y735443D01*
X782758Y791224D02*
X821816D01*
Y788729D02*
Y791224D01*
Y788729D02*
X830629Y779916D01*
X913545Y821700D02*
X913572Y821672D01*
X913600Y821700D01*
X915310Y819935D02*
X923637D01*
X926009Y817562D01*
Y815147D02*
Y817562D01*
X937783Y712792D02*
Y727011D01*
X911354Y753546D02*
X937900Y727000D01*
X911354Y753546D02*
Y781941D01*
X913354Y756146D02*
X953100Y716400D01*
X913354Y756146D02*
Y781113D01*
X935690Y737500D02*
X958500D01*
X915354Y757646D02*
X935800Y737200D01*
X915354Y757646D02*
Y780284D01*
X847500Y799500D02*
X849700Y801700D01*
X1017921Y697532D02*
X1088660D01*
X1091263Y700134D01*
Y700183D02*
X1100156Y709076D01*
X1091263Y700134D02*
Y700183D01*
X1159975Y759325D02*
X1173026Y746274D01*
Y734655D02*
Y746274D01*
Y734655D02*
X1176963Y730718D01*
Y716363D02*
Y730718D01*
X1171676Y711076D02*
X1176963Y716363D01*
X1099328Y711076D02*
X1171676D01*
X1089452Y701200D02*
X1099328Y711076D01*
X1087900Y699600D02*
X1089263Y700963D01*
X1037956Y699600D02*
X1087900D01*
X1037888Y699532D02*
X1037956Y699600D01*
X1017092Y699532D02*
X1037888D01*
X890484Y763085D02*
Y829916D01*
X880800Y839600D02*
X890484Y829916D01*
X1178963Y723616D02*
X1179447Y724100D01*
X1178963Y715535D02*
Y723616D01*
X1172505Y709076D02*
X1178963Y715535D01*
X1179447Y724100D02*
Y741076D01*
X888484Y762257D02*
Y827816D01*
X822000Y920300D02*
Y921000D01*
Y920300D02*
X822200Y920500D01*
X822000Y914756D02*
Y920300D01*
X1067800Y911500D02*
Y916200D01*
Y901000D02*
Y911500D01*
Y912200D01*
X1065200Y827800D02*
X1071418D01*
X1101370Y857753D01*
X1167939D01*
X1165528Y970400D02*
X1192257D01*
X1159937Y964809D02*
X1165528Y970400D01*
X1159937Y942965D02*
Y964809D01*
X1166400Y968400D02*
X1183313D01*
X1162400Y964400D02*
X1166400Y968400D01*
X1192257Y970400D02*
X1203925Y958732D01*
X1141047Y920761D02*
X1143014Y918793D01*
X1149893D01*
X1175134Y893553D01*
Y864947D02*
Y893553D01*
X1167939Y857753D02*
X1175134Y864947D01*
X1097112Y768979D02*
X1134708D01*
X1155000Y745000D02*
X1162000Y738000D01*
X1081000Y759900D02*
X1092900Y748000D01*
X794000Y696113D02*
X842213D01*
X853244Y707144D01*
X773900Y857200D02*
X778900Y852200D01*
X773500Y857500D02*
X774000Y857000D01*
X757587Y857500D02*
X773500D01*
X770100Y852900D02*
X776900Y846100D01*
X758000Y852900D02*
X770100D01*
X849229Y779916D02*
X864216Y764929D01*
X776900Y797082D02*
Y846100D01*
Y797082D02*
X782758Y791224D01*
X830629Y779916D02*
X849229D01*
X829600Y726300D02*
X839572D01*
X850057Y781916D02*
X866216Y765757D01*
X831457Y781916D02*
X850057D01*
X823816Y789557D02*
X831457Y781916D01*
X823816Y789557D02*
Y792356D01*
X822948Y793224D02*
X823816Y792356D01*
X783586Y793224D02*
X822948D01*
X778900Y797910D02*
X783586Y793224D01*
X778900Y797910D02*
Y852200D01*
X711100Y755200D02*
Y755900D01*
X708000Y752100D02*
X711100Y755200D01*
X718848Y693948D02*
X743221D01*
X721378Y711622D02*
X744457D01*
X834771Y789916D02*
X853371D01*
X831816Y792871D02*
X834771Y789916D01*
X829816Y792043D02*
X833943Y787916D01*
X852543D01*
X829816Y792043D02*
Y795356D01*
X831816Y792871D02*
Y796184D01*
X787500Y733000D02*
X788184Y732316D01*
X787500Y733000D02*
Y735100D01*
X788184Y701929D02*
Y732316D01*
X825948Y799224D02*
X829816Y795356D01*
X826776Y801224D02*
X831816Y796184D01*
X816400Y801224D02*
X826776D01*
X813400Y799224D02*
X825948D01*
X813400D02*
X816198D01*
X786072D02*
X813400D01*
X816400Y801224D02*
X817027D01*
X786900D02*
X816400D01*
X827816Y845316D02*
Y851486D01*
X825000Y842500D02*
X827816Y845316D01*
X793413Y842500D02*
X825000D01*
X827816Y848687D02*
Y851486D01*
X835714Y859384D01*
X928186D01*
X942184Y845386D01*
X940184Y807943D02*
Y844557D01*
X927357Y857384D02*
X940184Y844557D01*
X836543Y857384D02*
X927357D01*
X829816Y850657D02*
X836543Y857384D01*
X829816Y840300D02*
Y850657D01*
X827016Y837500D02*
X829816Y840300D01*
X793413Y837500D02*
X827016D01*
X794400Y832800D02*
X828200D01*
X831816Y836416D01*
Y849829D01*
X837371Y855384D01*
X926529D01*
X938184Y843729D01*
X845100Y845200D02*
X849700Y840600D01*
Y801700D02*
Y840600D01*
X842087Y799500D02*
X847500D01*
X881400Y834900D02*
X888484Y827816D01*
X784900Y851500D02*
X790700Y857300D01*
X784900Y800395D02*
Y851500D01*
Y800395D02*
X786072Y799224D01*
X852543Y787916D02*
X872216Y768243D01*
X853000Y723843D02*
Y727157D01*
X788184Y701929D02*
X794000Y696113D01*
X771547Y734953D02*
X772700Y733800D01*
X764000Y734953D02*
X771547D01*
X790500Y852500D02*
X793413D01*
X789424D02*
X789700D01*
X786900Y849700D02*
X789700Y852500D01*
X786900Y801224D02*
Y849700D01*
X829447Y739047D02*
X834000D01*
X853371Y789916D02*
X874216Y769071D01*
X834200Y719600D02*
Y720900D01*
X822900Y719600D02*
X829600Y726300D01*
X1222000Y901898D02*
Y904500D01*
X1102800Y794520D02*
X1117020D01*
X1123881Y796881D02*
Y842283D01*
X1219020Y828520D02*
X1225500Y835000D01*
X1210000Y828520D02*
X1219020D01*
X1248500Y826500D02*
X1249500D01*
X1222500Y820000D02*
X1228600D01*
X1249500Y826500D02*
X1250100Y827100D01*
Y827800D01*
X1300313Y905087D02*
X1312000D01*
X1290400Y915000D02*
X1300313Y905087D01*
X1273500Y905256D02*
X1278156D01*
X1273500D02*
Y926400D01*
X1277000Y929900D01*
X1274600Y930000D02*
X1277047D01*
X1267200Y937400D02*
X1274600Y930000D01*
X1282953D02*
X1290500D01*
X1297800Y922700D01*
X1260100Y938000D02*
X1261047D01*
X1259900D02*
X1261047D01*
X1256100Y941800D02*
X1259900Y938000D01*
X1243800Y932302D02*
X1254000Y922102D01*
X1243800Y932302D02*
Y948300D01*
X1238402Y922102D02*
X1254000D01*
X1236100Y919800D02*
X1238402Y922102D01*
X1258144Y905256D02*
X1273500D01*
X1254600Y908800D02*
X1258144Y905256D01*
X1236400Y912600D02*
X1240200Y908800D01*
X1234953Y940000D02*
Y951753D01*
X1193300Y912200D02*
X1193600Y911900D01*
X1207702Y914102D02*
X1222000D01*
X1206400Y913200D02*
Y924700D01*
X1194900Y913200D02*
X1206400D01*
X1236481Y792100D02*
Y793700D01*
X1222000Y914102D02*
Y933400D01*
X1228500Y939900D01*
X1213847Y955200D02*
X1229047Y940000D01*
X1216138Y907760D02*
X1222000Y901898D01*
X1187650Y907954D02*
Y917873D01*
X1210182Y929272D02*
X1211400Y930490D01*
Y949100D01*
X1227724Y911524D02*
X1234956Y918756D01*
X1227724Y898123D02*
Y911524D01*
X1217438Y896961D02*
X1226562D01*
X1209123Y905276D02*
X1217438Y896961D01*
X1187499Y905276D02*
X1209123D01*
X1181175Y911600D02*
X1187499Y905276D01*
X1147600Y965400D02*
X1147700Y965300D01*
X1204953Y929272D02*
X1210182D01*
X1188528Y918240D02*
X1198558D01*
X1188288Y918000D02*
X1188528Y918240D01*
X1187800Y918000D02*
X1188288D01*
X1201047Y926000D02*
Y956353D01*
X1193200Y964200D02*
X1201047Y956353D01*
X1226562Y896961D02*
X1227724Y898123D01*
X1294587Y830913D02*
X1312000D01*
X1287500Y838000D02*
X1294587Y830913D01*
X1225500Y835000D02*
X1228188D01*
X1239899Y831559D02*
X1241743Y829716D01*
X1247784D01*
X1250000Y827500D01*
X1228188Y835000D02*
X1231628Y831559D01*
X1239899D01*
X1243181Y820283D02*
Y825449D01*
X1239071Y829559D02*
X1243181Y825449D01*
X1233059Y829559D02*
X1239071D01*
X1230000Y826500D02*
X1233059Y829559D01*
X1252016Y829716D02*
X1253416Y831116D01*
X1268829D01*
X1275713Y838000D01*
X1287500D01*
X1291633Y840894D02*
X1319363D01*
X1321980Y838276D01*
Y813485D02*
Y838276D01*
X1319700Y811205D02*
X1321980Y813485D01*
X1271495Y861031D02*
X1291633Y840894D01*
X1319700Y805700D02*
Y811205D01*
X1103781Y842283D02*
X1104300Y842802D01*
X1180944Y954756D02*
X1184000D01*
X1175400Y960300D02*
X1180944Y954756D01*
X1176044Y949244D02*
X1184000D01*
Y942600D02*
Y949244D01*
X1204075Y923757D02*
Y928393D01*
X1204953Y929272D01*
X1198558Y918240D02*
X1204075Y923757D01*
X1183313Y968400D02*
X1183413Y968300D01*
X1186100D01*
X1188500Y965900D01*
X1106192Y963508D02*
X1135500D01*
X1097900Y971800D02*
X1106192Y963508D01*
X1106102Y925000D02*
Y945398D01*
X874520Y901820D02*
X879800Y907100D01*
X882000D01*
X1135900Y914500D02*
Y922400D01*
X1188500Y924100D02*
Y965900D01*
X1179600Y915200D02*
X1188500Y924100D01*
X1187650Y907954D02*
X1188328Y907276D01*
X1209951D01*
Y907760D02*
X1216138D01*
X1213700Y866200D02*
Y880100D01*
X1212700Y881100D02*
X1213700Y880100D01*
X1203925Y957319D02*
Y958732D01*
Y957319D02*
X1212000Y949244D01*
X1203925Y958732D02*
Y963625D01*
X1104300Y842802D02*
Y848100D01*
X708500Y704927D02*
X717693Y695733D01*
X709736Y722600D02*
X718929Y713407D01*
X708500Y722600D02*
X709736D01*
X708000Y722756D02*
Y752100D01*
X728761Y748800D02*
X734763Y754803D01*
Y753537D02*
Y754803D01*
X754900Y749200D02*
X759700Y754000D01*
X1015800Y939600D02*
Y944944D01*
X989900Y937466D02*
X997666Y929700D01*
X989900Y937466D02*
Y944500D01*
X987256Y950456D02*
X989800D01*
X971300Y934500D02*
X987256Y950456D01*
X990956D02*
X997400D01*
X1015800D01*
X997400D02*
Y956900D01*
X995358Y919058D02*
X1005700Y929400D01*
X1048556Y922456D02*
X1067800D01*
X1036806Y921306D02*
X1047406D01*
X1047800D01*
X1047400Y921300D02*
X1047406Y921306D01*
X1029800Y908747D02*
X1041153D01*
X1047800Y902094D02*
X1054994Y894900D01*
X917113Y823600D02*
Y827913D01*
X918900Y829700D01*
Y833600D01*
X913372Y823600D02*
Y824206D01*
X913947Y824781D01*
X925347Y821053D02*
X929947D01*
X1024200Y737700D02*
X1025100Y736800D01*
X990356Y908900D02*
X992800Y906456D01*
X983300Y908900D02*
X990356D01*
X997500Y902900D02*
X1001500D01*
X993700Y906700D02*
X997500Y902900D01*
X956200Y709681D02*
X961511Y714992D01*
X940895Y709681D02*
X956200D01*
X937783Y712792D02*
X940895Y709681D01*
X1062562Y720215D02*
X1063581D01*
X1057638Y715291D02*
X1062562Y720215D01*
X1053786Y715291D02*
X1057638D01*
X1051062Y718015D02*
X1053786Y715291D01*
X1042300Y742273D02*
X1050500Y734073D01*
X1051062Y718015D02*
Y733438D01*
X1050500Y734000D02*
X1051062Y733438D01*
X916536Y924964D02*
X918950D01*
X916036D02*
X918950D01*
X912300Y928700D02*
X916036Y924964D01*
X905300Y928700D02*
X912300D01*
X905595Y922995D02*
X918950D01*
X905300Y922700D02*
X905595Y922995D01*
X968044Y928944D02*
X970800D01*
X964300Y925200D02*
X968044Y928944D01*
X955564Y932050D02*
X960300Y936787D01*
Y940700D01*
X953595Y932050D02*
Y940995D01*
X970800Y934456D02*
Y941200D01*
X955914Y931700D02*
X962650Y924964D01*
X955800Y931700D02*
X955914D01*
X962650Y921027D02*
X989127D01*
X997300Y929200D01*
X962650Y919058D02*
X967158D01*
X966591D02*
X967158D01*
X995358D01*
X967158D02*
X967300Y919200D01*
X923300Y878200D02*
X923800D01*
X928005Y878795D02*
Y888350D01*
Y878795D02*
X928300Y878500D01*
X953595Y881205D02*
Y888350D01*
Y881205D02*
X955400Y879400D01*
Y876500D02*
Y879400D01*
X951627Y881027D02*
Y888350D01*
X950100Y879500D02*
X951627Y881027D01*
X950100Y876300D02*
X950300Y876100D01*
X1014047Y914653D02*
X1029800D01*
X1011700Y917000D02*
X1014047Y914653D01*
X963100Y917000D02*
X1011700D01*
X1016353Y908747D02*
X1029800D01*
X1010000Y915100D02*
X1016353Y908747D01*
X963100Y915100D02*
X1010000D01*
X984600Y895900D02*
X984753Y895747D01*
X975302Y896598D02*
X981300D01*
X970500Y901400D02*
X975302Y896598D01*
X963800Y901400D02*
X970500D01*
X984753Y887700D02*
Y894347D01*
X983300Y895800D02*
X984753Y894347D01*
X957664Y924964D02*
X959964D01*
X957664D02*
X957700Y925000D01*
X959964Y924964D02*
X960000Y925000D01*
X957700D02*
X960000D01*
X960700D01*
X962650Y903310D02*
X974310D01*
X979100Y908100D01*
X949600Y881900D02*
Y888100D01*
X771500Y921200D02*
X773544Y923244D01*
X911354Y781941D02*
X938184Y808771D01*
Y843729D01*
X913354Y781113D02*
X940184Y807943D01*
X915354Y780284D02*
X942184Y807114D01*
X1100156Y709076D02*
X1172505D01*
X1056000Y720100D02*
Y733047D01*
X1055900Y720000D02*
X1056000Y720100D01*
X1167700Y953802D02*
X1174000Y960102D01*
X1167700Y908400D02*
Y953802D01*
Y908400D02*
X1182000Y894100D01*
Y890900D02*
Y894100D01*
X843800Y844800D02*
X848800Y849800D01*
X890657D01*
X904257Y836200D01*
X913372Y824206D02*
Y828000D01*
Y833272D01*
X904257Y823443D02*
Y828000D01*
Y836200D01*
X904200Y828000D02*
X904257D01*
X913372D01*
X916642Y917058D02*
X916700Y917000D01*
X877900Y791200D02*
Y799020D01*
X877010Y799910D02*
X877900Y799020D01*
X907000Y916500D02*
X909700D01*
X921300Y825100D02*
X922800Y823600D01*
X855000Y873870D02*
X859070Y869800D01*
X855000Y873870D02*
Y882640D01*
X947690Y882952D02*
Y888350D01*
X853050Y871850D02*
X858100Y866800D01*
X853050Y871850D02*
Y884800D01*
X847600Y873000D02*
X851010Y876410D01*
Y882540D01*
X840700Y870300D02*
X849160Y878760D01*
Y881920D01*
X868303Y899853D02*
X880893D01*
X882390Y901350D01*
X828600Y903700D02*
X834410Y897890D01*
X842710D01*
X1034953Y766953D02*
X1042000D01*
X841370Y897890D02*
X842710D01*
X829300Y899300D02*
X832580Y896020D01*
X842330D01*
X1055400Y738900D02*
X1060400D01*
X837530Y890010D02*
X843697D01*
X831510Y883990D02*
X837530Y890010D01*
X830300Y882800D02*
X833376Y885876D01*
X857363Y899853D02*
X868303D01*
X851480Y893970D02*
X857363Y899853D01*
X844290Y893970D02*
X851480D01*
X865760Y899850D02*
X869750D01*
X842610Y901900D02*
X842690Y901820D01*
X874520D01*
X860540Y892100D02*
X871490Y881150D01*
X836000Y877000D02*
X848300Y889300D01*
X856050D01*
X856980Y888370D01*
Y884640D02*
Y888370D01*
D18*
X1023013Y728940D02*
X1024980D01*
X990953Y761000D02*
X1023013Y728940D01*
X988130Y876300D02*
X1011130Y853300D01*
X955900Y876300D02*
X988130D01*
X1018950Y695048D02*
X1089689D01*
X1018960Y694860D02*
Y695048D01*
X1020377Y692079D02*
X1090919D01*
X1013193Y684895D02*
X1020377Y692079D01*
X839000Y693629D02*
X915981D01*
X924716Y684895D01*
X1259800Y944500D02*
X1274800D01*
X1287202Y902602D02*
X1303883D01*
X924716Y684895D02*
X1013193D01*
X1011963Y687863D02*
X1018960Y694860D01*
X931284Y687863D02*
X1011963D01*
X916941Y702206D02*
X931284Y687863D01*
X923909Y705670D02*
X934748Y694832D01*
X1008878D01*
X1017669Y703622D01*
X916941Y702206D02*
Y730287D01*
X886164Y761064D02*
X916941Y730287D01*
X894000Y763083D02*
X923909Y733173D01*
Y709500D02*
Y733173D01*
Y705670D02*
Y709500D01*
X950000Y861700D02*
X952800Y858900D01*
X950000Y861700D02*
Y876800D01*
X1009803Y837200D02*
X1098953Y748050D01*
X1009803Y837200D02*
X1009900D01*
X994500D02*
X1009803D01*
X1098953Y748000D02*
Y748050D01*
X1169687Y863213D02*
X1169887D01*
X1172650Y865976D01*
X1166910Y860237D02*
X1169887Y863213D01*
X1065937Y804700D02*
Y820700D01*
X1059600Y827037D02*
X1065937Y820700D01*
X1059600Y827037D02*
Y829900D01*
X1062700Y833000D01*
X1071673D01*
X1072389Y832284D01*
X723000Y731400D02*
X731800Y722600D01*
X748100Y851700D02*
Y882400D01*
X989900Y944500D02*
X990300Y944900D01*
X1093600Y905000D02*
Y914100D01*
X1072800Y720800D02*
X1084000Y732000D01*
X1067600Y901000D02*
X1067800D01*
X1190400Y890500D02*
X1201520Y879380D01*
X1256581Y820283D02*
X1277383D01*
X1281600Y824500D01*
X1074300Y819000D02*
X1083820Y809480D01*
X1217285Y737400D02*
X1221600D01*
X1179100Y911600D02*
X1181175D01*
X1236481Y811181D02*
Y820283D01*
X988098Y896598D02*
X992800Y901300D01*
X1236600Y899900D02*
X1278000D01*
X1072389Y832284D02*
X1100341Y860237D01*
X905000Y928700D02*
Y938300D01*
X914800Y948100D01*
X1071500Y967984D02*
X1077516Y974000D01*
X914800Y948100D02*
X943258D01*
X950643Y955484D01*
X972843D01*
X985343Y967984D01*
X1071500D01*
X1077516Y974000D02*
Y986000D01*
X1086000Y994484D01*
X1098000D01*
X1109484Y983000D01*
X1120591D01*
X1120997Y983406D01*
X1150003D01*
X1151165Y982243D01*
Y972125D02*
Y982243D01*
Y972125D02*
X1157453Y965838D01*
X839000Y693629D02*
X843329D01*
X792971D02*
X839000D01*
X1183713Y712573D02*
X1235287D01*
X1248184Y719100D02*
X1271185Y742101D01*
X1090919Y692079D02*
X1096715Y697875D01*
Y697924D01*
X1102415Y703624D01*
X1174763D01*
X1183713Y712573D01*
X1235287D02*
X1240831Y718117D01*
Y718300D01*
X1241631Y719100D01*
X1248184D01*
X1271185Y742101D02*
X1281701D01*
X1330484Y790884D01*
Y833285D01*
X1312800Y850970D02*
X1330484Y833285D01*
X1312800Y850970D02*
Y897591D01*
X1315105D01*
X1308895D02*
X1312800D01*
X1219000Y882300D02*
X1236600Y899900D01*
X1278000D02*
X1279998Y901898D01*
X1288000D01*
X1287100Y902500D02*
X1287202Y902602D01*
X1303883D02*
X1308895Y897591D01*
X1315105D02*
X1319496Y901982D01*
Y908192D01*
X1315105Y912583D02*
X1319496Y908192D01*
X1314717Y912583D02*
X1315105D01*
X1303084Y924216D02*
X1314717Y912583D01*
X1283042Y944400D02*
X1303084Y924357D01*
X1274500Y944400D02*
X1283042D01*
X1303084Y924216D02*
Y924357D01*
X1220200Y958800D02*
X1235458D01*
X1247084Y957216D02*
X1259800Y944500D01*
X1247084Y957216D02*
Y961457D01*
X1244457Y964084D02*
X1247084Y961457D01*
X1240743Y964084D02*
X1244457D01*
X1235458Y958800D02*
X1240743Y964084D01*
X1206116Y972884D02*
X1220200Y958800D01*
X1164499Y972884D02*
X1206116D01*
X1157453Y965838D02*
X1164499Y972884D01*
X1157453Y943994D02*
Y965838D01*
X1148273Y934815D02*
X1157453Y943994D01*
X1133725Y934815D02*
X1148273D01*
X1125500Y926590D02*
X1133725Y934815D01*
X1125500Y926106D02*
Y926590D01*
X955600Y876000D02*
X955900Y876300D01*
X803300Y749747D02*
X811047Y742000D01*
X780300Y750800D02*
X788000Y758500D01*
X802000D01*
X803300Y757200D01*
Y749747D02*
Y757200D01*
X1094200Y949500D02*
Y959800D01*
X1092000Y962000D02*
X1094200Y959800D01*
X1092000Y962000D02*
Y980000D01*
X1093600Y905000D02*
X1115569Y883031D01*
X1093600Y914100D02*
Y924900D01*
X1221787Y737587D02*
X1225177D01*
X1221600Y737400D02*
X1221787Y737587D01*
X1220200Y736000D02*
X1221600Y737400D01*
X1222400D01*
X1210039Y744646D02*
X1217285Y737400D01*
X1210039Y744646D02*
Y748822D01*
X1184430Y774432D02*
X1210039Y748822D01*
X1099370Y774432D02*
X1184430D01*
X879669Y767559D02*
X886000Y761228D01*
X886164Y761064D01*
X879669Y767559D02*
Y771932D01*
X849900Y801500D02*
X850100D01*
X879669Y771932D01*
X1089689Y695048D02*
X1093747Y699105D01*
Y699154D01*
X1101185Y706592D01*
X1173534D01*
X1181932Y714990D01*
Y726500D01*
X1191432Y736000D01*
X1220000D01*
X1237020Y778000D02*
X1241878D01*
X1236900D02*
X1237020D01*
Y793161D01*
Y737587D02*
Y778000D01*
X1158240Y759325D02*
X1159975D01*
X1017669Y703622D02*
Y713500D01*
X1023765Y719597D01*
X1045875D01*
X775100Y917500D02*
X775600Y917000D01*
X1106300Y880400D02*
X1106600D01*
X1067300Y911500D02*
X1067800D01*
X1053300D02*
X1067100D01*
X1155158Y910016D02*
X1172650Y892524D01*
X1126100Y923500D02*
X1131416Y918184D01*
Y912643D02*
Y918184D01*
Y912643D02*
X1134043Y910016D01*
X1155158D01*
X1172650Y865976D02*
Y892524D01*
X1100341Y860237D02*
X1166910D01*
X1106100Y922900D02*
Y923400D01*
X1064800Y828200D02*
X1065200Y827800D01*
X1065937Y827063D01*
X1068900Y822200D02*
X1069331D01*
X1102399Y855269D01*
X1168969D01*
X1177618Y863918D01*
X1104000Y852300D02*
X1117181D01*
X1098953Y719047D02*
Y748000D01*
Y719047D02*
X1102400Y715600D01*
X1098900Y718994D02*
X1098953Y719047D01*
X1080900Y760000D02*
X1081000Y759900D01*
X1092900Y748000D02*
X1093047D01*
X1102629Y714971D02*
X1144500D01*
X1065937Y803667D02*
X1098141Y771463D01*
X1135737D01*
X1157200Y750000D01*
X1164900D01*
X1170542Y744358D01*
Y716277D02*
Y744358D01*
X1169237Y714971D02*
X1170542Y716277D01*
X1144500Y714971D02*
X1169237D01*
X718100Y693200D02*
X718848Y693948D01*
X719800Y713200D02*
X721378Y711622D01*
X877900Y799600D02*
X878200Y799900D01*
X889300Y844500D02*
X890600Y843200D01*
X877913Y844500D02*
X889300D01*
X785700Y700900D02*
Y729400D01*
X760900Y754200D02*
X785700Y729400D01*
X832500Y746500D02*
X833800Y745200D01*
X815000Y746500D02*
X832500D01*
X785700Y700900D02*
X792971Y693629D01*
X822600Y719400D02*
Y720198D01*
X939500Y746500D02*
X944953Y751953D01*
Y762000D01*
X1257500Y770692D02*
X1274973Y753220D01*
X1236481Y793700D02*
X1237020Y793161D01*
X1233551Y734118D02*
X1237020Y737587D01*
X1228646Y734118D02*
X1233551D01*
X1225177Y737587D02*
X1228646Y734118D01*
X1185659Y777400D02*
X1215960Y747099D01*
X1100600Y777400D02*
X1185659D01*
X1100000Y809480D02*
Y823900D01*
X1111400Y835300D01*
X1085700Y792300D02*
X1100600Y777400D01*
X1083820Y809480D02*
X1100000D01*
X1232300Y807000D02*
X1236481Y811181D01*
Y793700D02*
Y811181D01*
X1219162Y807300D02*
X1220000D01*
X1220300Y807000D01*
X1232300D01*
X1234956Y918756D02*
X1236000D01*
X1256700Y771492D02*
Y817800D01*
X1068906Y804896D02*
X1099370Y774432D01*
X1068906Y804896D02*
Y821775D01*
X1215960Y747099D02*
X1222099D01*
X1226400Y751400D01*
X1093898Y925000D02*
Y944502D01*
X1106706Y926106D02*
X1125500D01*
X1199700Y826762D02*
X1219162Y807300D01*
X1199700Y840700D02*
X1203700Y844700D01*
X1204900D01*
X1199700Y826762D02*
Y840700D01*
X1193800Y834300D02*
X1196732Y837232D01*
Y841930D01*
X1201520Y846718D01*
Y847058D01*
X1202682Y848220D01*
X1207720D01*
X1211701Y852201D01*
X1214500D01*
X1232658Y834043D01*
X1240928D01*
X1242772Y832200D01*
X1250987D01*
X1252387Y833600D01*
X1267800D01*
X1274684Y840484D01*
X1288529D01*
X1295616Y833398D01*
X1300654D01*
X1305666Y838409D01*
X1318334D01*
X1319496Y837247D01*
Y824580D02*
Y837247D01*
X1274973Y780056D02*
X1319496Y824580D01*
X1274973Y753220D02*
Y780056D01*
X1141300Y834300D02*
X1193800D01*
X1130581Y842283D02*
X1132817D01*
X1132000Y843600D02*
X1141300Y834300D01*
X1132000Y843600D02*
Y843800D01*
X1201520Y847058D02*
Y879380D01*
X1174961Y922913D02*
X1183800Y931753D01*
X1174961Y904976D02*
X1189937Y890000D01*
X1174961Y904976D02*
Y922913D01*
X1183800Y931753D02*
Y942200D01*
X1177618Y863918D02*
Y894582D01*
X1145800Y926400D02*
X1177618Y894582D01*
X1073843Y818000D02*
Y819257D01*
X1116700Y827300D02*
Y837300D01*
X1117181Y842283D02*
Y852300D01*
X1103900Y848100D02*
Y852000D01*
X1084000Y732000D02*
Y737244D01*
Y742756D02*
X1084641D01*
X1087756Y739641D01*
Y727637D02*
Y739641D01*
X1074926Y714807D02*
X1087756Y727637D01*
X988409Y763543D02*
Y763594D01*
X984303Y767700D02*
X988409Y763594D01*
X938700Y762400D02*
X944000Y767700D01*
X988409Y763543D02*
X990953Y761000D01*
X989400Y738600D02*
Y755900D01*
X985000Y760300D02*
X989400Y755900D01*
X1083359Y737244D02*
X1084000D01*
X755500Y822800D02*
X755898Y822402D01*
X760000Y833200D02*
X768102Y825098D01*
X740000Y839898D02*
X744802D01*
X746700Y838000D01*
X754700D01*
X752200Y842500D02*
X757587D01*
X742600Y852100D02*
X752200Y842500D01*
X752300Y847500D02*
X757587D01*
X748100Y851700D02*
X752300Y847500D01*
X750000Y894102D02*
Y897600D01*
X760800Y908400D01*
X757553Y722600D02*
X764000Y729047D01*
X731800Y722600D02*
X757553D01*
X796700Y828200D02*
X804102Y820798D01*
X997400Y956900D02*
X997500Y957000D01*
X1060667Y714807D02*
X1074926D01*
X1058667Y712807D02*
X1060667Y714807D01*
X1050993Y712807D02*
X1058667D01*
X1045400Y718400D02*
X1050993Y712807D01*
X1045875Y719597D02*
Y729125D01*
X1025700Y749300D02*
X1045875Y729125D01*
X1043633Y717355D02*
X1045875Y719597D01*
X894000Y763083D02*
Y794600D01*
X913400Y814000D01*
X981300Y896598D02*
X988098D01*
X804102Y811698D02*
Y820798D01*
Y811698D02*
X804400Y811400D01*
X791898Y810000D02*
Y822198D01*
X768102Y810000D02*
Y823998D01*
X767600Y824500D02*
X768102Y823998D01*
X755898Y810000D02*
Y821402D01*
X740000Y826102D02*
X746802D01*
X748500Y827800D01*
X757300D01*
X963508Y714992D02*
X964906D01*
X961511D02*
X964906D01*
X944000Y767700D02*
X977700D01*
X977800D01*
X984303D01*
X977600Y767600D02*
X977700Y767700D01*
X977800Y767800D01*
Y761300D02*
Y767700D01*
Y767800D01*
X811500Y743000D02*
X815000Y746500D01*
X816953Y730953D02*
Y742000D01*
X816500Y730500D02*
X816953Y730953D01*
X719102Y813898D02*
X740000D01*
X715000Y818000D02*
X719102Y813898D01*
X804500Y811000D02*
X813500D01*
X1215500Y736700D02*
X1219800D01*
X1085700Y792300D02*
Y808800D01*
D19*
X1220000Y736000D02*
D03*
X1227059Y751138D02*
D03*
X1215960Y747099D02*
D03*
X1231099Y740040D02*
D03*
D20*
X1231366Y722038D02*
D03*
X1085869Y710318D02*
D03*
X1034168Y708512D02*
D03*
D21*
X1300572Y746391D02*
D03*
X1274453Y734211D02*
D03*
D22*
X1285677Y758211D02*
D03*
X1274973Y753220D02*
D03*
X743222Y693948D02*
D03*
X717693Y695733D02*
D03*
X718929Y713407D02*
D03*
X744457Y711622D02*
D03*
D23*
X1125356Y753387D02*
D03*
X1107737Y751535D02*
D03*
X1127619Y731852D02*
D03*
X1110000Y730000D02*
D03*
X1175687Y762401D02*
D03*
X1158240Y759325D02*
D03*
X1179447Y741076D02*
D03*
X1162000Y738000D02*
D03*
D24*
X1045875Y719597D02*
D03*
D25*
X1055712Y719940D02*
D03*
X1073418Y720559D02*
D03*
X1063581Y720215D02*
D03*
D26*
X772832Y715925D02*
D03*
X871083Y710776D02*
D03*
X1003193Y709402D02*
D03*
X904807D02*
D03*
D27*
X844031Y717792D02*
D03*
D28*
X838001Y706911D02*
D03*
X833141Y718362D02*
D03*
X827110Y707482D02*
D03*
X822250Y718933D02*
D03*
X816220Y708053D02*
D03*
X811359Y719504D02*
D03*
X805329Y708624D02*
D03*
X800469Y720075D02*
D03*
X932189Y714992D02*
D03*
X937642Y703811D02*
D03*
X943095Y714992D02*
D03*
X948547Y703811D02*
D03*
X954000Y714992D02*
D03*
X959453Y703811D02*
D03*
X964906Y714992D02*
D03*
X970358Y703811D02*
D03*
D29*
X1054157Y818000D02*
D03*
X1222193Y778000D02*
D03*
D30*
X1312000Y905087D02*
D03*
X1193087Y792000D02*
D03*
D31*
X1312000Y830913D02*
D03*
D32*
X714000Y820000D02*
D03*
X1316000Y800000D02*
D03*
X1092000Y980000D02*
D03*
X770000Y916000D02*
D03*
X692000Y750000D02*
D03*
D33*
X1047800Y921306D02*
D03*
X804000Y908394D02*
D03*
D34*
X1047800Y902094D02*
D03*
X804000Y927606D02*
D03*
D35*
X975811Y714992D02*
D03*
D36*
X1118913Y792000D02*
D03*
D37*
X1282000Y824063D02*
D03*
D38*
Y831937D02*
D03*
X1182063Y890000D02*
D03*
D39*
X743356Y730698D02*
D03*
X744592Y754287D02*
D03*
X733527Y731213D02*
D03*
X734763Y754803D02*
D03*
X724934Y755318D02*
D03*
X723698Y731728D02*
D03*
D40*
X1005934Y929700D02*
D03*
X997666D02*
D03*
D41*
X1189937Y890000D02*
D03*
D42*
X994500Y837200D02*
D03*
X952600Y858900D02*
D03*
X915800Y874400D02*
D03*
X949700Y842200D02*
D03*
X814500Y848300D02*
D03*
X929800Y908800D02*
D03*
X939900Y908400D02*
D03*
X832000Y869300D02*
D03*
X971300Y909600D02*
D03*
X853000Y934200D02*
D03*
X915000Y940500D02*
D03*
X900100Y915500D02*
D03*
X908000Y917000D02*
D03*
X926700Y826800D02*
D03*
X918600Y804900D02*
D03*
X829300Y883100D02*
D03*
X948200Y920200D02*
D03*
X1065300Y734200D02*
D03*
X1033400Y765700D02*
D03*
X824500Y899700D02*
D03*
X817000Y903200D02*
D03*
X929400Y943300D02*
D03*
X936500D02*
D03*
X827100Y818500D02*
D03*
X826700Y826400D02*
D03*
X840700Y870300D02*
D03*
X847600D02*
D03*
X946100Y896800D02*
D03*
X938700Y896900D02*
D03*
X934600Y878400D02*
D03*
X939700Y873800D02*
D03*
X809400Y914800D02*
D03*
X890780Y880700D02*
D03*
X1011700Y852540D02*
D03*
X785200Y737500D02*
D03*
X780100Y750600D02*
D03*
X773000Y733600D02*
D03*
X857000Y725500D02*
D03*
X828000Y732000D02*
D03*
X939000Y746200D02*
D03*
X1222500Y820000D02*
D03*
X1254700Y943200D02*
D03*
X1298600Y922500D02*
D03*
X1274500Y944400D02*
D03*
X1243700Y948700D02*
D03*
X1242600Y959600D02*
D03*
X1206400Y913200D02*
D03*
X1205400Y964100D02*
D03*
X1192500Y964500D02*
D03*
X1184100Y942300D02*
D03*
X1135900Y914500D02*
D03*
X1213700Y866200D02*
D03*
X1064800Y828200D02*
D03*
X1116700Y827300D02*
D03*
X989400Y738600D02*
D03*
X877900Y791200D02*
D03*
X891200Y843600D02*
D03*
X760600Y754500D02*
D03*
X997200Y957500D02*
D03*
X1080300Y759900D02*
D03*
X1025100Y728500D02*
D03*
X1053300Y911500D02*
D03*
X1001500Y902900D02*
D03*
X977800Y761300D02*
D03*
X816500Y730500D02*
D03*
X813500Y811000D02*
D03*
X958500Y737500D02*
D03*
D43*
X955564Y932444D02*
D03*
X953595D02*
D03*
X951627D02*
D03*
X949658D02*
D03*
X947690D02*
D03*
X945721D02*
D03*
X943753D02*
D03*
X941784D02*
D03*
X939816D02*
D03*
X937847D02*
D03*
X935879D02*
D03*
X933910D02*
D03*
X931942D02*
D03*
X929973D02*
D03*
X928005D02*
D03*
X926036D02*
D03*
Y887956D02*
D03*
X928005D02*
D03*
X929973D02*
D03*
X931942D02*
D03*
X933910D02*
D03*
X935879D02*
D03*
X937847D02*
D03*
X939816D02*
D03*
X941784D02*
D03*
X943753D02*
D03*
X945721D02*
D03*
X947690D02*
D03*
X949658D02*
D03*
X951627D02*
D03*
X953595D02*
D03*
X955564D02*
D03*
D44*
X918556Y924964D02*
D03*
Y922995D02*
D03*
Y921027D02*
D03*
Y919058D02*
D03*
Y917090D02*
D03*
Y915121D02*
D03*
Y913153D02*
D03*
Y911184D02*
D03*
Y909216D02*
D03*
Y907247D02*
D03*
Y905279D02*
D03*
Y903310D02*
D03*
Y901342D02*
D03*
Y899373D02*
D03*
Y897405D02*
D03*
Y895436D02*
D03*
X963044D02*
D03*
Y897405D02*
D03*
Y899373D02*
D03*
Y901342D02*
D03*
Y903310D02*
D03*
Y905279D02*
D03*
Y907247D02*
D03*
Y909216D02*
D03*
Y911184D02*
D03*
Y913153D02*
D03*
Y915121D02*
D03*
Y917090D02*
D03*
Y919058D02*
D03*
Y921027D02*
D03*
Y922995D02*
D03*
Y924964D02*
D03*
D45*
X939244Y762000D02*
D03*
X944756D02*
D03*
X1277244Y930000D02*
D03*
X1282756D02*
D03*
X1266756Y938000D02*
D03*
X1261244D02*
D03*
X811244Y742000D02*
D03*
X816756D02*
D03*
X979044Y887700D02*
D03*
X984556D02*
D03*
X1229244Y940000D02*
D03*
X1234756D02*
D03*
X1206756Y926000D02*
D03*
X1201244D02*
D03*
X990756Y761000D02*
D03*
X985244D02*
D03*
X1093244Y748000D02*
D03*
X1098756D02*
D03*
X1213244Y882000D02*
D03*
X1218756D02*
D03*
X928556Y877700D02*
D03*
X923044D02*
D03*
X955556Y875700D02*
D03*
X950044D02*
D03*
X918756Y834000D02*
D03*
X913244D02*
D03*
X955044Y941700D02*
D03*
X960556D02*
D03*
D46*
X834000Y744756D02*
D03*
Y739244D02*
D03*
X712000Y754756D02*
D03*
Y749244D02*
D03*
X904000Y817244D02*
D03*
Y822756D02*
D03*
X1042000Y766756D02*
D03*
Y761244D02*
D03*
X1056000Y738756D02*
D03*
Y733244D02*
D03*
X1029800Y914456D02*
D03*
Y908944D02*
D03*
X764000Y729244D02*
D03*
Y734756D02*
D03*
X796000Y752756D02*
D03*
Y747244D02*
D03*
X930000Y820756D02*
D03*
Y815244D02*
D03*
X822000Y926756D02*
D03*
Y921244D02*
D03*
X904800Y922944D02*
D03*
Y928456D02*
D03*
X970800Y934456D02*
D03*
Y928944D02*
D03*
X992800Y900944D02*
D03*
Y906456D02*
D03*
X989800Y950456D02*
D03*
Y944944D02*
D03*
X1015800Y950456D02*
D03*
Y944944D02*
D03*
X1067800Y916944D02*
D03*
Y922456D02*
D03*
Y900456D02*
D03*
Y894944D02*
D03*
X1084000Y737244D02*
D03*
Y742756D02*
D03*
X1273500Y905256D02*
D03*
Y899744D02*
D03*
X883000Y906656D02*
D03*
Y901144D02*
D03*
X1184000Y954756D02*
D03*
Y949244D02*
D03*
X1212000Y954756D02*
D03*
Y949244D02*
D03*
X708000Y717244D02*
D03*
Y722756D02*
D03*
X1236000Y913244D02*
D03*
Y918756D02*
D03*
X822000Y909244D02*
D03*
Y914756D02*
D03*
D47*
X1222000Y901898D02*
D03*
Y914102D02*
D03*
X1254000Y922102D02*
D03*
Y909898D02*
D03*
X1288000Y901898D02*
D03*
Y914102D02*
D03*
X1174000Y947898D02*
D03*
Y960102D02*
D03*
X740000Y826102D02*
D03*
Y813898D02*
D03*
Y839898D02*
D03*
Y852102D02*
D03*
X981300Y896598D02*
D03*
Y908802D02*
D03*
X750000Y894102D02*
D03*
Y881898D02*
D03*
X1024000Y750102D02*
D03*
Y737898D02*
D03*
D48*
X1100000Y809480D02*
D03*
Y794520D02*
D03*
X1210000Y843480D02*
D03*
Y828520D02*
D03*
D49*
X757587Y822500D02*
D03*
Y827500D02*
D03*
Y832500D02*
D03*
Y837500D02*
D03*
Y842500D02*
D03*
Y847500D02*
D03*
Y852500D02*
D03*
Y857500D02*
D03*
X793413Y822500D02*
D03*
Y827500D02*
D03*
Y832500D02*
D03*
Y837500D02*
D03*
Y842500D02*
D03*
Y847500D02*
D03*
Y852500D02*
D03*
Y857500D02*
D03*
X842087Y799500D02*
D03*
Y804500D02*
D03*
Y809500D02*
D03*
Y814500D02*
D03*
Y819500D02*
D03*
Y824500D02*
D03*
Y829500D02*
D03*
Y834500D02*
D03*
Y839500D02*
D03*
Y844500D02*
D03*
X877913Y799500D02*
D03*
Y804500D02*
D03*
Y809500D02*
D03*
Y814500D02*
D03*
Y819500D02*
D03*
Y824500D02*
D03*
Y829500D02*
D03*
Y834500D02*
D03*
Y839500D02*
D03*
Y844500D02*
D03*
D50*
X1229781Y818283D02*
D03*
X1236481D02*
D03*
X1243181D02*
D03*
X1249881D02*
D03*
X1256581D02*
D03*
X1103781Y842283D02*
D03*
X1110481D02*
D03*
X1117181D02*
D03*
X1123881D02*
D03*
X1130581D02*
D03*
D51*
X1106102Y925000D02*
D03*
X1093898D02*
D03*
X1106102Y947000D02*
D03*
X1093898D02*
D03*
X1179898Y913000D02*
D03*
X1192102D02*
D03*
X791898Y810000D02*
D03*
X804102D02*
D03*
X755898D02*
D03*
X768102D02*
D03*
D52*
X1125500Y926106D02*
D03*
X1135500D02*
D03*
X1145500D02*
D03*
D53*
X1135500Y963508D02*
D03*
D54*
X1243181Y859031D02*
D03*
X1117181Y883031D02*
D03*
D55*
X913372Y814151D02*
D03*
X920853D02*
D03*
Y823600D02*
D03*
X917113D02*
D03*
X913372D02*
D03*
D56*
X869386Y903790D02*
D03*
Y901821D02*
D03*
Y899853D02*
D03*
Y897884D02*
D03*
Y895916D02*
D03*
Y893947D02*
D03*
Y891979D02*
D03*
Y890010D02*
D03*
X842614D02*
D03*
Y891979D02*
D03*
Y893947D02*
D03*
Y895916D02*
D03*
Y897884D02*
D03*
Y899853D02*
D03*
Y901821D02*
D03*
Y903790D02*
D03*
D57*
X862890Y883514D02*
D03*
X860921D02*
D03*
X858953D02*
D03*
X856984D02*
D03*
X855016D02*
D03*
X853047D02*
D03*
X851079D02*
D03*
X849110D02*
D03*
Y910286D02*
D03*
X851079D02*
D03*
X853047D02*
D03*
X855016D02*
D03*
X856984D02*
D03*
X858953D02*
D03*
X860921D02*
D03*
X862890D02*
D03*
M02*
