%FSLAX25Y25*%
%MOIN*%
G70*
G01*
G75*
G04 Layer_Color=16711935*
%ADD10P,0.08352X4X381.0*%
%ADD11R,0.05906X0.05906*%
%ADD12P,0.08352X4X393.0*%
%ADD13P,0.08352X4X375.0*%
%ADD14P,0.08352X4X387.0*%
%ADD15P,0.08352X4X165.0*%
%ADD16R,0.05906X0.05906*%
%ADD17C,0.01000*%
%ADD18C,0.01969*%
%ADD19C,0.07874*%
%ADD20C,0.14961*%
%ADD21C,0.11811*%
%ADD22C,0.07575*%
%ADD23C,0.09843*%
%ADD24P,0.08908X4X47.0*%
%ADD25C,0.06299*%
%ADD26C,0.18740*%
%ADD27P,0.09410X4X312.0*%
%ADD28C,0.06654*%
%ADD29C,0.05906*%
%ADD30C,0.11024*%
%ADD31R,0.11024X0.11024*%
%ADD32C,0.25000*%
%ADD33C,0.05512*%
%ADD34P,0.05966X8X112.5*%
%ADD35R,0.06654X0.06654*%
%ADD36R,0.11024X0.11024*%
%ADD37R,0.04921X0.04921*%
%ADD38C,0.04921*%
G04:AMPARAMS|DCode=39|XSize=60mil|YSize=59.96mil|CornerRadius=0mil|HoleSize=0mil|Usage=FLASHONLY|Rotation=357.000|XOffset=0mil|YOffset=0mil|HoleType=Round|Shape=Round|*
%AMOVALD39*
21,1,0.00004,0.05996,0.00000,0.00000,357.0*
1,1,0.05996,-0.00002,0.00000*
1,1,0.05996,0.00002,-0.00000*
%
%ADD39OVALD39*%

%ADD40C,0.04724*%
%ADD41R,0.04921X0.04921*%
%ADD42C,0.05000*%
%ADD43O,0.01181X0.09843*%
%ADD44O,0.09843X0.01181*%
%ADD45R,0.03150X0.03543*%
%ADD46R,0.03543X0.03150*%
%ADD47R,0.07480X0.05906*%
%ADD48R,0.12992X0.05512*%
%ADD49O,0.09055X0.02362*%
%ADD50R,0.03937X0.15551*%
%ADD51R,0.05906X0.07480*%
%ADD52R,0.05906X0.09449*%
%ADD53R,0.27362X0.35827*%
%ADD54R,0.28740X0.34252*%
%ADD55R,0.02362X0.04331*%
%ADD56O,0.06102X0.01181*%
%ADD57O,0.01181X0.06102*%
%ADD58C,0.00984*%
%ADD59C,0.00787*%
%ADD60C,0.00500*%
%ADD61C,0.00591*%
%ADD62P,0.09483X4X381.0*%
%ADD63R,0.06706X0.06706*%
%ADD64P,0.09483X4X393.0*%
%ADD65P,0.09483X4X375.0*%
%ADD66P,0.09483X4X387.0*%
%ADD67P,0.09483X4X165.0*%
%ADD68R,0.06706X0.06706*%
%ADD69C,0.08674*%
%ADD70C,0.15761*%
%ADD71C,0.12611*%
%ADD72C,0.08375*%
%ADD73C,0.10642*%
%ADD74P,0.10040X4X47.0*%
%ADD75C,0.07099*%
%ADD76C,0.19540*%
%ADD77P,0.10541X4X312.0*%
%ADD78C,0.07453*%
%ADD79C,0.06706*%
%ADD80C,0.11824*%
%ADD81R,0.11824X0.11824*%
%ADD82C,0.25800*%
%ADD83C,0.06312*%
%ADD84P,0.06832X8X112.5*%
%ADD85R,0.07453X0.07453*%
%ADD86R,0.11824X0.11824*%
%ADD87R,0.05721X0.05721*%
%ADD88C,0.05721*%
G04:AMPARAMS|DCode=89|XSize=68mil|YSize=67.96mil|CornerRadius=0mil|HoleSize=0mil|Usage=FLASHONLY|Rotation=357.000|XOffset=0mil|YOffset=0mil|HoleType=Round|Shape=Round|*
%AMOVALD89*
21,1,0.00004,0.06796,0.00000,0.00000,357.0*
1,1,0.06796,-0.00002,0.00000*
1,1,0.06796,0.00002,-0.00000*
%
%ADD89OVALD89*%

%ADD90C,0.05524*%
%ADD91R,0.05721X0.05721*%
%ADD92C,0.05800*%
%ADD93O,0.01981X0.10642*%
%ADD94O,0.10642X0.01981*%
%ADD95R,0.03950X0.04343*%
%ADD96R,0.04343X0.03950*%
%ADD97R,0.08280X0.06706*%
%ADD98R,0.13792X0.06312*%
%ADD99O,0.09855X0.03162*%
%ADD100R,0.04737X0.16351*%
%ADD101R,0.06706X0.08280*%
%ADD102R,0.06706X0.10249*%
%ADD103R,0.28162X0.36627*%
%ADD104R,0.29540X0.35052*%
%ADD105R,0.03162X0.05131*%
%ADD106O,0.06902X0.01981*%
%ADD107O,0.01981X0.06902*%
D63*
X1073843Y818000D02*
D03*
X1241878Y778000D02*
D03*
D69*
X1220000Y736000D02*
D03*
X1227059Y751138D02*
D03*
X1215960Y747099D02*
D03*
X1231099Y740040D02*
D03*
D70*
X1231366Y722038D02*
D03*
X1085869Y710318D02*
D03*
X1034168Y708512D02*
D03*
D71*
X1300572Y746391D02*
D03*
X1274453Y734211D02*
D03*
D72*
X1285677Y758211D02*
D03*
X1274973Y753220D02*
D03*
X743222Y693948D02*
D03*
X717693Y695733D02*
D03*
X718929Y713407D02*
D03*
X744457Y711622D02*
D03*
D73*
X1125356Y753387D02*
D03*
X1107737Y751535D02*
D03*
X1127619Y731852D02*
D03*
X1110000Y730000D02*
D03*
X1175687Y762401D02*
D03*
X1158240Y759325D02*
D03*
X1179447Y741076D02*
D03*
X1162000Y738000D02*
D03*
D74*
X1045875Y719597D02*
D03*
D75*
X1055712Y719940D02*
D03*
X1073418Y720559D02*
D03*
X1063581Y720215D02*
D03*
D76*
X772832Y715925D02*
D03*
X871083Y710776D02*
D03*
X1003193Y709402D02*
D03*
X904807D02*
D03*
D77*
X844031Y717792D02*
D03*
D78*
X838001Y706911D02*
D03*
X833141Y718362D02*
D03*
X827110Y707482D02*
D03*
X822250Y718933D02*
D03*
X816220Y708053D02*
D03*
X811359Y719504D02*
D03*
X805329Y708624D02*
D03*
X800469Y720075D02*
D03*
X932189Y714992D02*
D03*
X937642Y703811D02*
D03*
X943095Y714992D02*
D03*
X948547Y703811D02*
D03*
X954000Y714992D02*
D03*
X959453Y703811D02*
D03*
X964906Y714992D02*
D03*
X970358Y703811D02*
D03*
D79*
X1054157Y818000D02*
D03*
X1222193Y778000D02*
D03*
D80*
X1312000Y905087D02*
D03*
X1193087Y792000D02*
D03*
D81*
X1312000Y830913D02*
D03*
D82*
X714000Y820000D02*
D03*
X1316000Y800000D02*
D03*
X1092000Y980000D02*
D03*
X770000Y916000D02*
D03*
X692000Y750000D02*
D03*
D83*
X1047800Y921306D02*
D03*
X804000Y908394D02*
D03*
D84*
X1047800Y902094D02*
D03*
X804000Y927606D02*
D03*
D85*
X975811Y714992D02*
D03*
D86*
X1118913Y792000D02*
D03*
D87*
X1282000Y824063D02*
D03*
D88*
Y831937D02*
D03*
X1182063Y890000D02*
D03*
D89*
X743356Y730698D02*
D03*
X744592Y754287D02*
D03*
X733527Y731213D02*
D03*
X734763Y754803D02*
D03*
X724934Y755318D02*
D03*
X723698Y731728D02*
D03*
D90*
X1005934Y929700D02*
D03*
X997666D02*
D03*
D91*
X1189937Y890000D02*
D03*
D92*
X994500Y837200D02*
D03*
X952600Y858900D02*
D03*
X915800Y874400D02*
D03*
X949700Y842200D02*
D03*
X814500Y848300D02*
D03*
X929800Y908800D02*
D03*
X939900Y908400D02*
D03*
X832000Y869300D02*
D03*
X971300Y909600D02*
D03*
X853000Y934200D02*
D03*
X915000Y940500D02*
D03*
X900100Y915500D02*
D03*
X908000Y917000D02*
D03*
X926700Y826800D02*
D03*
X918600Y804900D02*
D03*
X829300Y883100D02*
D03*
X948200Y920200D02*
D03*
X1065300Y734200D02*
D03*
X1033400Y765700D02*
D03*
X824500Y899700D02*
D03*
X817000Y903200D02*
D03*
X929400Y943300D02*
D03*
X936500D02*
D03*
X827100Y818500D02*
D03*
X826700Y826400D02*
D03*
X840700Y870300D02*
D03*
X847600D02*
D03*
X946100Y896800D02*
D03*
X938700Y896900D02*
D03*
X934600Y878400D02*
D03*
X939700Y873800D02*
D03*
X809400Y914800D02*
D03*
X890780Y880700D02*
D03*
X1011700Y852540D02*
D03*
X785200Y737500D02*
D03*
X780100Y750600D02*
D03*
X773000Y733600D02*
D03*
X857000Y725500D02*
D03*
X828000Y732000D02*
D03*
X939000Y746200D02*
D03*
X1222500Y820000D02*
D03*
X1254700Y943200D02*
D03*
X1298600Y922500D02*
D03*
X1274500Y944400D02*
D03*
X1243700Y948700D02*
D03*
X1242600Y959600D02*
D03*
X1206400Y913200D02*
D03*
X1205400Y964100D02*
D03*
X1192500Y964500D02*
D03*
X1184100Y942300D02*
D03*
X1135900Y914500D02*
D03*
X1213700Y866200D02*
D03*
X1064800Y828200D02*
D03*
X1116700Y827300D02*
D03*
X989400Y738600D02*
D03*
X877900Y791200D02*
D03*
X891200Y843600D02*
D03*
X760600Y754500D02*
D03*
X997200Y957500D02*
D03*
X1080300Y759900D02*
D03*
X1025100Y728500D02*
D03*
X1053300Y911500D02*
D03*
X1001500Y902900D02*
D03*
X977800Y761300D02*
D03*
X816500Y730500D02*
D03*
X813500Y811000D02*
D03*
X958500Y737500D02*
D03*
D93*
X955564Y932444D02*
D03*
X953595D02*
D03*
X951627D02*
D03*
X949658D02*
D03*
X947690D02*
D03*
X945721D02*
D03*
X943753D02*
D03*
X941784D02*
D03*
X939816D02*
D03*
X937847D02*
D03*
X935879D02*
D03*
X933910D02*
D03*
X931942D02*
D03*
X929973D02*
D03*
X928005D02*
D03*
X926036D02*
D03*
Y887956D02*
D03*
X928005D02*
D03*
X929973D02*
D03*
X931942D02*
D03*
X933910D02*
D03*
X935879D02*
D03*
X937847D02*
D03*
X939816D02*
D03*
X941784D02*
D03*
X943753D02*
D03*
X945721D02*
D03*
X947690D02*
D03*
X949658D02*
D03*
X951627D02*
D03*
X953595D02*
D03*
X955564D02*
D03*
D94*
X918556Y924964D02*
D03*
Y922995D02*
D03*
Y921027D02*
D03*
Y919058D02*
D03*
Y917090D02*
D03*
Y915121D02*
D03*
Y913153D02*
D03*
Y911184D02*
D03*
Y909216D02*
D03*
Y907247D02*
D03*
Y905279D02*
D03*
Y903310D02*
D03*
Y901342D02*
D03*
Y899373D02*
D03*
Y897405D02*
D03*
Y895436D02*
D03*
X963044D02*
D03*
Y897405D02*
D03*
Y899373D02*
D03*
Y901342D02*
D03*
Y903310D02*
D03*
Y905279D02*
D03*
Y907247D02*
D03*
Y909216D02*
D03*
Y911184D02*
D03*
Y913153D02*
D03*
Y915121D02*
D03*
Y917090D02*
D03*
Y919058D02*
D03*
Y921027D02*
D03*
Y922995D02*
D03*
Y924964D02*
D03*
D95*
X939244Y762000D02*
D03*
X944756D02*
D03*
X1277244Y930000D02*
D03*
X1282756D02*
D03*
X1266756Y938000D02*
D03*
X1261244D02*
D03*
X811244Y742000D02*
D03*
X816756D02*
D03*
X979044Y887700D02*
D03*
X984556D02*
D03*
X1229244Y940000D02*
D03*
X1234756D02*
D03*
X1206756Y926000D02*
D03*
X1201244D02*
D03*
X990756Y761000D02*
D03*
X985244D02*
D03*
X1093244Y748000D02*
D03*
X1098756D02*
D03*
X1213244Y882000D02*
D03*
X1218756D02*
D03*
X928556Y877700D02*
D03*
X923044D02*
D03*
X955556Y875700D02*
D03*
X950044D02*
D03*
X918756Y834000D02*
D03*
X913244D02*
D03*
X955044Y941700D02*
D03*
X960556D02*
D03*
D96*
X834000Y744756D02*
D03*
Y739244D02*
D03*
X712000Y754756D02*
D03*
Y749244D02*
D03*
X904000Y817244D02*
D03*
Y822756D02*
D03*
X1042000Y766756D02*
D03*
Y761244D02*
D03*
X1056000Y738756D02*
D03*
Y733244D02*
D03*
X1029800Y914456D02*
D03*
Y908944D02*
D03*
X764000Y729244D02*
D03*
Y734756D02*
D03*
X796000Y752756D02*
D03*
Y747244D02*
D03*
X930000Y820756D02*
D03*
Y815244D02*
D03*
X822000Y926756D02*
D03*
Y921244D02*
D03*
X904800Y922944D02*
D03*
Y928456D02*
D03*
X970800Y934456D02*
D03*
Y928944D02*
D03*
X992800Y900944D02*
D03*
Y906456D02*
D03*
X989800Y950456D02*
D03*
Y944944D02*
D03*
X1015800Y950456D02*
D03*
Y944944D02*
D03*
X1067800Y916944D02*
D03*
Y922456D02*
D03*
Y900456D02*
D03*
Y894944D02*
D03*
X1084000Y737244D02*
D03*
Y742756D02*
D03*
X1273500Y905256D02*
D03*
Y899744D02*
D03*
X883000Y906656D02*
D03*
Y901144D02*
D03*
X1184000Y954756D02*
D03*
Y949244D02*
D03*
X1212000Y954756D02*
D03*
Y949244D02*
D03*
X708000Y717244D02*
D03*
Y722756D02*
D03*
X1236000Y913244D02*
D03*
Y918756D02*
D03*
X822000Y909244D02*
D03*
Y914756D02*
D03*
D97*
X1222000Y901898D02*
D03*
Y914102D02*
D03*
X1254000Y922102D02*
D03*
Y909898D02*
D03*
X1288000Y901898D02*
D03*
Y914102D02*
D03*
X1174000Y947898D02*
D03*
Y960102D02*
D03*
X740000Y826102D02*
D03*
Y813898D02*
D03*
Y839898D02*
D03*
Y852102D02*
D03*
X981300Y896598D02*
D03*
Y908802D02*
D03*
X750000Y894102D02*
D03*
Y881898D02*
D03*
X1024000Y750102D02*
D03*
Y737898D02*
D03*
D98*
X1100000Y809480D02*
D03*
Y794520D02*
D03*
X1210000Y843480D02*
D03*
Y828520D02*
D03*
D99*
X757587Y822500D02*
D03*
Y827500D02*
D03*
Y832500D02*
D03*
Y837500D02*
D03*
Y842500D02*
D03*
Y847500D02*
D03*
Y852500D02*
D03*
Y857500D02*
D03*
X793413Y822500D02*
D03*
Y827500D02*
D03*
Y832500D02*
D03*
Y837500D02*
D03*
Y842500D02*
D03*
Y847500D02*
D03*
Y852500D02*
D03*
Y857500D02*
D03*
X842087Y799500D02*
D03*
Y804500D02*
D03*
Y809500D02*
D03*
Y814500D02*
D03*
Y819500D02*
D03*
Y824500D02*
D03*
Y829500D02*
D03*
Y834500D02*
D03*
Y839500D02*
D03*
Y844500D02*
D03*
X877913Y799500D02*
D03*
Y804500D02*
D03*
Y809500D02*
D03*
Y814500D02*
D03*
Y819500D02*
D03*
Y824500D02*
D03*
Y829500D02*
D03*
Y834500D02*
D03*
Y839500D02*
D03*
Y844500D02*
D03*
D100*
X1229781Y818283D02*
D03*
X1236481D02*
D03*
X1243181D02*
D03*
X1249881D02*
D03*
X1256581D02*
D03*
X1103781Y842283D02*
D03*
X1110481D02*
D03*
X1117181D02*
D03*
X1123881D02*
D03*
X1130581D02*
D03*
D101*
X1106102Y925000D02*
D03*
X1093898D02*
D03*
X1106102Y947000D02*
D03*
X1093898D02*
D03*
X1179898Y913000D02*
D03*
X1192102D02*
D03*
X791898Y810000D02*
D03*
X804102D02*
D03*
X755898D02*
D03*
X768102D02*
D03*
D102*
X1125500Y926106D02*
D03*
X1135500D02*
D03*
X1145500D02*
D03*
D103*
X1135500Y963508D02*
D03*
D104*
X1243181Y859031D02*
D03*
X1117181Y883031D02*
D03*
D105*
X913372Y814151D02*
D03*
X920853D02*
D03*
Y823600D02*
D03*
X917113D02*
D03*
X913372D02*
D03*
D106*
X869386Y903790D02*
D03*
Y901821D02*
D03*
Y899853D02*
D03*
Y897884D02*
D03*
Y895916D02*
D03*
Y893947D02*
D03*
Y891979D02*
D03*
Y890010D02*
D03*
X842614D02*
D03*
Y891979D02*
D03*
Y893947D02*
D03*
Y895916D02*
D03*
Y897884D02*
D03*
Y899853D02*
D03*
Y901821D02*
D03*
Y903790D02*
D03*
D107*
X862890Y883514D02*
D03*
X860921D02*
D03*
X858953D02*
D03*
X856984D02*
D03*
X855016D02*
D03*
X853047D02*
D03*
X851079D02*
D03*
X849110D02*
D03*
Y910286D02*
D03*
X851079D02*
D03*
X853047D02*
D03*
X855016D02*
D03*
X856984D02*
D03*
X858953D02*
D03*
X860921D02*
D03*
X862890D02*
D03*
M02*
