G75*
G70*
%OFA0B0*%
%FSLAX24Y24*%
%IPPOS*%
%LPD*%
%AMOC8*
5,1,8,0,0,1.08239X$1,22.5*
%
%ADD10C,0.0080*%
D10*
X003457Y001018D02*
X003457Y015018D01*
X026457Y015018D01*
X026457Y001018D01*
X003457Y001018D01*
X005497Y001361D02*
X005550Y001308D01*
X005604Y001308D01*
X005657Y001361D01*
X005657Y001628D01*
X005604Y001628D02*
X005711Y001628D01*
X005865Y001628D02*
X006025Y001628D01*
X006079Y001575D01*
X006079Y001468D01*
X006025Y001415D01*
X005865Y001415D01*
X005865Y001308D02*
X005865Y001628D01*
X006234Y001468D02*
X006234Y001361D01*
X006287Y001308D01*
X006394Y001308D01*
X006447Y001361D01*
X006447Y001415D01*
X006394Y001468D01*
X006234Y001468D01*
X006340Y001575D01*
X006447Y001628D01*
X006747Y002518D02*
X007027Y002518D01*
X006887Y003378D02*
X006887Y003658D01*
X006747Y003518D02*
X007027Y003518D01*
X006762Y004308D02*
X006655Y004308D01*
X006602Y004361D01*
X006655Y004468D02*
X006762Y004468D01*
X006815Y004415D01*
X006815Y004361D01*
X006762Y004308D01*
X006655Y004468D02*
X006602Y004521D01*
X006602Y004575D01*
X006655Y004628D01*
X006762Y004628D01*
X006815Y004575D01*
X006447Y004628D02*
X006447Y004361D01*
X006394Y004308D01*
X006287Y004308D01*
X006234Y004361D01*
X006234Y004628D01*
X006079Y004575D02*
X006079Y004521D01*
X006025Y004468D01*
X005865Y004468D01*
X005865Y004308D02*
X006025Y004308D01*
X006079Y004361D01*
X006079Y004415D01*
X006025Y004468D01*
X006079Y004575D02*
X006025Y004628D01*
X005865Y004628D01*
X005865Y004308D01*
X005711Y004415D02*
X005711Y004628D01*
X005711Y004415D02*
X005604Y004308D01*
X005497Y004415D01*
X005497Y004628D01*
X007247Y004628D02*
X007247Y004468D01*
X007354Y004521D01*
X007407Y004521D01*
X007461Y004468D01*
X007461Y004361D01*
X007407Y004308D01*
X007300Y004308D01*
X007247Y004361D01*
X007247Y004628D02*
X007461Y004628D01*
X007615Y004628D02*
X007615Y004415D01*
X007722Y004308D01*
X007829Y004415D01*
X007829Y004628D01*
X008870Y003458D02*
X008977Y003458D01*
X009031Y003405D01*
X008817Y003191D01*
X008870Y003138D01*
X008977Y003138D01*
X009031Y003191D01*
X009031Y003405D01*
X008870Y003458D02*
X008817Y003405D01*
X008817Y003191D01*
X009857Y003138D02*
X010071Y003138D01*
X009964Y003138D02*
X009964Y003458D01*
X009857Y003351D01*
X010857Y003405D02*
X010910Y003458D01*
X011017Y003458D01*
X011071Y003405D01*
X011071Y003351D01*
X010857Y003138D01*
X011071Y003138D01*
X011807Y003191D02*
X011860Y003138D01*
X011967Y003138D01*
X012021Y003191D01*
X012021Y003245D01*
X011967Y003298D01*
X011914Y003298D01*
X011967Y003298D02*
X012021Y003351D01*
X012021Y003405D01*
X011967Y003458D01*
X011860Y003458D01*
X011807Y003405D01*
X012747Y003468D02*
X012961Y003468D01*
X012907Y003308D02*
X012907Y003628D01*
X012747Y003468D01*
X012800Y004058D02*
X012907Y004058D01*
X012961Y004111D01*
X012961Y004218D01*
X012854Y004218D01*
X012961Y004325D02*
X012907Y004378D01*
X012800Y004378D01*
X012747Y004325D01*
X012747Y004111D01*
X012800Y004058D01*
X013115Y004058D02*
X013115Y004378D01*
X013275Y004378D01*
X013329Y004325D01*
X013329Y004218D01*
X013275Y004165D01*
X013115Y004165D01*
X013484Y004058D02*
X013590Y004058D01*
X013537Y004058D02*
X013537Y004378D01*
X013484Y004378D02*
X013590Y004378D01*
X013729Y004378D02*
X013943Y004058D01*
X013943Y004378D01*
X013729Y004378D02*
X013729Y004058D01*
X013747Y003628D02*
X013747Y003468D01*
X013854Y003521D01*
X013907Y003521D01*
X013961Y003468D01*
X013961Y003361D01*
X013907Y003308D01*
X013800Y003308D01*
X013747Y003361D01*
X013747Y003628D02*
X013961Y003628D01*
X014747Y003468D02*
X014747Y003361D01*
X014800Y003308D01*
X014907Y003308D01*
X014961Y003361D01*
X014961Y003415D01*
X014907Y003468D01*
X014747Y003468D01*
X014854Y003575D01*
X014961Y003628D01*
X015747Y003628D02*
X015961Y003628D01*
X015961Y003575D01*
X015747Y003361D01*
X015747Y003308D01*
X016457Y003268D02*
X016457Y004018D01*
X016800Y003628D02*
X016907Y003628D01*
X016961Y003575D01*
X016747Y003361D01*
X016800Y003308D01*
X016907Y003308D01*
X016961Y003361D01*
X016961Y003575D01*
X016800Y003628D02*
X016747Y003575D01*
X016747Y003361D01*
X017747Y003308D02*
X017961Y003308D01*
X017854Y003308D02*
X017854Y003628D01*
X017747Y003521D01*
X018747Y003575D02*
X018800Y003628D01*
X018907Y003628D01*
X018961Y003575D01*
X018961Y003521D01*
X018747Y003308D01*
X018961Y003308D01*
X019747Y003361D02*
X019800Y003308D01*
X019907Y003308D01*
X019961Y003361D01*
X019961Y003415D01*
X019907Y003468D01*
X019854Y003468D01*
X019907Y003468D02*
X019961Y003521D01*
X019961Y003575D01*
X019907Y003628D01*
X019800Y003628D01*
X019747Y003575D01*
X020747Y003468D02*
X020961Y003468D01*
X020907Y003308D02*
X020907Y003628D01*
X020747Y003468D01*
X020800Y004058D02*
X020907Y004058D01*
X020961Y004111D01*
X020961Y004218D01*
X020854Y004218D01*
X020961Y004325D02*
X020907Y004378D01*
X020800Y004378D01*
X020747Y004325D01*
X020747Y004111D01*
X020800Y004058D01*
X021115Y004058D02*
X021115Y004378D01*
X021275Y004378D01*
X021329Y004325D01*
X021329Y004218D01*
X021275Y004165D01*
X021115Y004165D01*
X021484Y004111D02*
X021484Y004325D01*
X021537Y004378D01*
X021644Y004378D01*
X021697Y004325D01*
X021697Y004111D01*
X021644Y004058D01*
X021537Y004058D01*
X021484Y004111D01*
X021852Y004111D02*
X021905Y004058D01*
X022012Y004058D01*
X022065Y004111D01*
X022065Y004378D01*
X022220Y004378D02*
X022434Y004378D01*
X022327Y004378D02*
X022327Y004058D01*
X021852Y004111D02*
X021852Y004378D01*
X021747Y003628D02*
X021747Y003468D01*
X021854Y003521D01*
X021907Y003521D01*
X021961Y003468D01*
X021961Y003361D01*
X021907Y003308D01*
X021800Y003308D01*
X021747Y003361D01*
X021747Y003628D02*
X021961Y003628D01*
X022747Y003468D02*
X022747Y003361D01*
X022800Y003308D01*
X022907Y003308D01*
X022961Y003361D01*
X022961Y003415D01*
X022907Y003468D01*
X022747Y003468D01*
X022854Y003575D01*
X022961Y003628D01*
X023747Y003628D02*
X023961Y003628D01*
X023961Y003575D01*
X023747Y003361D01*
X023747Y003308D01*
X016457Y002018D02*
X016457Y001268D01*
X012775Y006058D02*
X012669Y006058D01*
X012615Y006111D01*
X012615Y006218D02*
X012722Y006271D01*
X012775Y006271D01*
X012829Y006218D01*
X012829Y006111D01*
X012775Y006058D01*
X012615Y006218D02*
X012615Y006378D01*
X012829Y006378D01*
X012461Y006325D02*
X012407Y006378D01*
X012300Y006378D01*
X012247Y006325D01*
X012247Y006111D01*
X012300Y006058D01*
X012407Y006058D01*
X012461Y006111D01*
X011579Y006325D02*
X011365Y006111D01*
X011365Y006058D01*
X011211Y006111D02*
X011157Y006058D01*
X011050Y006058D01*
X010997Y006111D01*
X010997Y006325D01*
X011050Y006378D01*
X011157Y006378D01*
X011211Y006325D01*
X011365Y006378D02*
X011579Y006378D01*
X011579Y006325D01*
X012337Y007338D02*
X012390Y007338D01*
X012390Y007391D01*
X012337Y007391D01*
X012337Y007338D01*
X011579Y009808D02*
X011365Y009808D01*
X011579Y010021D01*
X011579Y010075D01*
X011525Y010128D01*
X011419Y010128D01*
X011365Y010075D01*
X011211Y010075D02*
X011157Y010128D01*
X011050Y010128D01*
X010997Y010075D01*
X010997Y009861D01*
X011050Y009808D01*
X011157Y009808D01*
X011211Y009861D01*
X013377Y011218D02*
X013430Y011218D01*
X013430Y011271D01*
X013377Y011271D01*
X013377Y011218D01*
X013525Y011808D02*
X013525Y012128D01*
X013365Y011968D01*
X013579Y011968D01*
X013211Y011968D02*
X013211Y012075D01*
X013157Y012128D01*
X012997Y012128D01*
X012997Y011808D01*
X012997Y011915D02*
X013157Y011915D01*
X013211Y011968D01*
X013104Y011915D02*
X013211Y011808D01*
X012329Y011861D02*
X012275Y011808D01*
X012169Y011808D01*
X012115Y011861D01*
X012222Y011968D02*
X012275Y011968D01*
X012329Y011915D01*
X012329Y011861D01*
X012275Y011968D02*
X012329Y012021D01*
X012329Y012075D01*
X012275Y012128D01*
X012169Y012128D01*
X012115Y012075D01*
X011961Y012075D02*
X011907Y012128D01*
X011800Y012128D01*
X011747Y012075D01*
X011747Y011861D01*
X011800Y011808D01*
X011907Y011808D01*
X011961Y011861D01*
X011718Y012478D02*
X011718Y012798D01*
X011824Y012798D02*
X011611Y012798D01*
X011456Y012798D02*
X011456Y012478D01*
X011243Y012798D01*
X011243Y012478D01*
X011104Y012478D02*
X010997Y012478D01*
X011050Y012478D02*
X011050Y012798D01*
X010997Y012798D02*
X011104Y012798D01*
X011957Y012768D02*
X011957Y012518D01*
X012757Y012478D02*
X012757Y012798D01*
X012864Y012691D01*
X012971Y012798D01*
X012971Y012478D01*
X013125Y012478D02*
X013232Y012478D01*
X013179Y012478D02*
X013179Y012798D01*
X013232Y012798D02*
X013125Y012798D01*
X013371Y012745D02*
X013371Y012691D01*
X013424Y012638D01*
X013531Y012638D01*
X013584Y012585D01*
X013584Y012531D01*
X013531Y012478D01*
X013424Y012478D01*
X013371Y012531D01*
X013371Y012745D02*
X013424Y012798D01*
X013531Y012798D01*
X013584Y012745D01*
X013739Y012745D02*
X013739Y012531D01*
X013792Y012478D01*
X013899Y012478D01*
X013953Y012531D01*
X013953Y012745D01*
X013899Y012798D01*
X013792Y012798D01*
X013739Y012745D01*
X014097Y012528D02*
X014207Y012528D01*
X014207Y012768D01*
X015207Y012768D02*
X015207Y011768D01*
X015114Y011390D02*
X015167Y011336D01*
X015167Y011230D01*
X015114Y011176D01*
X015007Y011230D02*
X014954Y011176D01*
X014900Y011176D01*
X014847Y011230D01*
X014847Y011336D01*
X014900Y011390D01*
X015007Y011336D02*
X015060Y011390D01*
X015114Y011390D01*
X015007Y011336D02*
X015007Y011230D01*
X015060Y011021D02*
X015114Y011021D01*
X015167Y010968D01*
X015167Y010861D01*
X015114Y010808D01*
X015007Y010861D02*
X015007Y010968D01*
X015060Y011021D01*
X014900Y011021D02*
X014847Y010968D01*
X014847Y010861D01*
X014900Y010808D01*
X014954Y010808D01*
X015007Y010861D01*
X015847Y010861D02*
X015900Y010808D01*
X015954Y010808D01*
X016007Y010861D01*
X016007Y010968D01*
X016060Y011021D01*
X016114Y011021D01*
X016167Y010968D01*
X016167Y010861D01*
X016114Y010808D01*
X015847Y010861D02*
X015847Y010968D01*
X015900Y011021D01*
X015900Y011176D02*
X016114Y011176D01*
X016167Y011230D01*
X016167Y011336D01*
X016114Y011390D01*
X016167Y011545D02*
X015847Y011545D01*
X015900Y011390D02*
X015847Y011336D01*
X015847Y011230D01*
X015900Y011176D01*
X016167Y011545D02*
X016167Y011758D01*
X016167Y011913D02*
X015847Y011913D01*
X016007Y011966D02*
X016167Y012126D01*
X016060Y011913D02*
X015847Y012126D01*
X016207Y012518D02*
X016207Y012768D01*
X017207Y012768D02*
X017207Y011768D01*
X017167Y011390D02*
X017060Y011283D01*
X017060Y011336D02*
X017060Y011176D01*
X017167Y011176D02*
X016847Y011176D01*
X016847Y011336D01*
X016900Y011390D01*
X017007Y011390D01*
X017060Y011336D01*
X017167Y011021D02*
X016847Y011021D01*
X016954Y010915D01*
X016847Y010808D01*
X017167Y010808D01*
X017847Y010808D02*
X017847Y010968D01*
X017900Y011021D01*
X018007Y011021D01*
X018060Y010968D01*
X018060Y010808D01*
X018060Y010915D02*
X018167Y011021D01*
X018114Y011176D02*
X018007Y011176D01*
X017954Y011230D01*
X017954Y011336D01*
X018007Y011390D01*
X018060Y011390D01*
X018060Y011176D01*
X018114Y011176D02*
X018167Y011230D01*
X018167Y011336D01*
X018167Y011545D02*
X018167Y011705D01*
X018114Y011758D01*
X018060Y011705D01*
X018060Y011598D01*
X018007Y011545D01*
X017954Y011598D01*
X017954Y011758D01*
X018007Y011913D02*
X017954Y011966D01*
X017954Y012073D01*
X018007Y012126D01*
X018060Y012126D01*
X018060Y011913D01*
X018007Y011913D02*
X018114Y011913D01*
X018167Y011966D01*
X018167Y012073D01*
X018114Y012335D02*
X018167Y012388D01*
X018114Y012335D02*
X017900Y012335D01*
X017954Y012388D02*
X017954Y012281D01*
X018207Y012518D02*
X018207Y012768D01*
X018847Y012810D02*
X018847Y012649D01*
X019167Y012649D01*
X019060Y012649D02*
X019060Y012810D01*
X019007Y012863D01*
X018900Y012863D01*
X018847Y012810D01*
X018847Y012495D02*
X019167Y012495D01*
X019167Y012281D02*
X018847Y012281D01*
X018954Y012388D01*
X018847Y012495D01*
X018900Y012126D02*
X018847Y012073D01*
X018847Y011966D01*
X018900Y011913D01*
X019114Y011913D01*
X019167Y011966D01*
X019167Y012073D01*
X019114Y012126D01*
X018900Y012126D01*
X018900Y011758D02*
X018847Y011705D01*
X018847Y011598D01*
X018900Y011545D01*
X019114Y011545D01*
X019167Y011598D01*
X019167Y011705D01*
X019114Y011758D01*
X019114Y011390D02*
X019167Y011336D01*
X019167Y011176D01*
X018847Y011176D01*
X018847Y011336D01*
X018900Y011390D01*
X018954Y011390D01*
X019007Y011336D01*
X019007Y011176D01*
X019007Y011336D02*
X019060Y011390D01*
X019114Y011390D01*
X019060Y011021D02*
X018847Y011021D01*
X018847Y010808D02*
X019060Y010808D01*
X019167Y010915D01*
X019060Y011021D01*
X019847Y011021D02*
X020060Y011021D01*
X020167Y010915D01*
X020060Y010808D01*
X019847Y010808D01*
X019847Y011176D02*
X020167Y011176D01*
X020167Y011390D01*
X020207Y011768D02*
X020207Y012768D01*
X021207Y012768D02*
X021207Y012018D01*
X021167Y011758D02*
X021167Y011598D01*
X021114Y011545D01*
X021007Y011545D01*
X020954Y011598D01*
X020954Y011758D01*
X020954Y011390D02*
X020954Y011230D01*
X021007Y011176D01*
X021114Y011176D01*
X021167Y011230D01*
X021167Y011390D01*
X021060Y011021D02*
X020847Y011021D01*
X020847Y010808D02*
X021060Y010808D01*
X021167Y010915D01*
X021060Y011021D01*
X021847Y011021D02*
X022060Y011021D01*
X022167Y010915D01*
X022060Y010808D01*
X021847Y010808D01*
X022007Y011176D02*
X022114Y011176D01*
X022167Y011230D01*
X022167Y011390D01*
X022114Y011545D02*
X022167Y011598D01*
X022167Y011758D01*
X021954Y011758D02*
X021954Y011598D01*
X022007Y011545D01*
X022114Y011545D01*
X021954Y011390D02*
X021954Y011230D01*
X022007Y011176D01*
X022847Y011176D02*
X023167Y011390D01*
X022847Y011390D01*
X022847Y011545D02*
X022847Y011705D01*
X022900Y011758D01*
X023114Y011758D01*
X023167Y011705D01*
X023167Y011545D01*
X022847Y011545D01*
X023207Y012018D02*
X023207Y012768D01*
X022207Y012768D02*
X022207Y012018D01*
X022847Y011176D02*
X023167Y011176D01*
X023114Y011021D02*
X023007Y011021D01*
X023007Y010915D01*
X023114Y011021D02*
X023167Y010968D01*
X023167Y010861D01*
X023114Y010808D01*
X022900Y010808D01*
X022847Y010861D01*
X022847Y010968D01*
X022900Y011021D01*
X023847Y010968D02*
X023847Y010861D01*
X023900Y010808D01*
X024114Y010808D01*
X024167Y010861D01*
X024167Y010968D01*
X024114Y011021D01*
X024007Y011021D01*
X024007Y010915D01*
X023900Y011021D02*
X023847Y010968D01*
X023847Y011176D02*
X024167Y011390D01*
X023847Y011390D01*
X023847Y011545D02*
X023847Y011705D01*
X023900Y011758D01*
X024114Y011758D01*
X024167Y011705D01*
X024167Y011545D01*
X023847Y011545D01*
X024207Y012018D02*
X024207Y012768D01*
X024167Y011176D02*
X023847Y011176D01*
X018167Y010808D02*
X017847Y010808D01*
X013207Y014268D02*
X013207Y014518D01*
X012957Y014518D01*
X012709Y014628D02*
X012602Y014628D01*
X012655Y014628D02*
X012655Y014308D01*
X012602Y014308D02*
X012709Y014308D01*
X012447Y014361D02*
X012394Y014308D01*
X012287Y014308D01*
X012234Y014361D01*
X012287Y014468D02*
X012234Y014521D01*
X012234Y014575D01*
X012287Y014628D01*
X012394Y014628D01*
X012447Y014575D01*
X012394Y014468D02*
X012447Y014415D01*
X012447Y014361D01*
X012394Y014468D02*
X012287Y014468D01*
X012079Y014361D02*
X012079Y014575D01*
X012025Y014628D01*
X011919Y014628D01*
X011865Y014575D01*
X011865Y014361D01*
X011919Y014308D01*
X012025Y014308D01*
X012079Y014361D01*
X011711Y014308D02*
X011711Y014628D01*
X011604Y014521D01*
X011497Y014628D01*
X011497Y014308D01*
X011207Y014268D02*
X011207Y014518D01*
X010957Y014518D01*
X010697Y014628D02*
X010484Y014308D01*
X010697Y014308D02*
X010484Y014628D01*
X010329Y014575D02*
X010329Y014468D01*
X010275Y014415D01*
X010115Y014415D01*
X010115Y014308D02*
X010115Y014628D01*
X010275Y014628D01*
X010329Y014575D01*
X009961Y014575D02*
X009907Y014628D01*
X009800Y014628D01*
X009747Y014575D01*
X009747Y014361D01*
X009800Y014308D01*
X009907Y014308D01*
X009961Y014361D01*
X009961Y014468D01*
X009854Y014468D01*
X009289Y014308D02*
X009075Y014308D01*
X009075Y014628D01*
X008920Y014628D02*
X008920Y014415D01*
X008814Y014308D01*
X008707Y014415D01*
X008707Y014628D01*
X008552Y014575D02*
X008499Y014628D01*
X008392Y014628D01*
X008339Y014575D01*
X008339Y014361D01*
X008392Y014308D01*
X008499Y014308D01*
X008552Y014361D01*
X008552Y014575D01*
X008184Y014255D02*
X007970Y014255D01*
X007815Y014361D02*
X007762Y014308D01*
X007655Y014308D01*
X007602Y014361D01*
X007655Y014468D02*
X007762Y014468D01*
X007815Y014415D01*
X007815Y014361D01*
X007655Y014468D02*
X007602Y014521D01*
X007602Y014575D01*
X007655Y014628D01*
X007762Y014628D01*
X007815Y014575D01*
X007447Y014628D02*
X007447Y014361D01*
X007394Y014308D01*
X007287Y014308D01*
X007234Y014361D01*
X007234Y014628D01*
X007079Y014575D02*
X007079Y014521D01*
X007025Y014468D01*
X006865Y014468D01*
X006865Y014308D02*
X007025Y014308D01*
X007079Y014361D01*
X007079Y014415D01*
X007025Y014468D01*
X007079Y014575D02*
X007025Y014628D01*
X006865Y014628D01*
X006865Y014308D01*
X006711Y014415D02*
X006711Y014628D01*
X006497Y014628D02*
X006497Y014415D01*
X006604Y014308D01*
X006711Y014415D01*
X006079Y014415D02*
X006079Y014628D01*
X005865Y014628D02*
X005865Y014415D01*
X005972Y014308D01*
X006079Y014415D01*
X005711Y014468D02*
X005711Y014361D01*
X005657Y014308D01*
X005550Y014308D01*
X005497Y014361D01*
X005497Y014468D02*
X005604Y014521D01*
X005657Y014521D01*
X005711Y014468D01*
X005711Y014628D02*
X005497Y014628D01*
X005497Y014468D01*
X006747Y013518D02*
X007027Y013518D01*
X007957Y013518D02*
X007957Y014018D01*
X007957Y013518D02*
X008207Y013518D01*
X008234Y012808D02*
X008234Y012541D01*
X008287Y012488D01*
X008394Y012488D01*
X008447Y012541D01*
X008447Y012808D01*
X008602Y012755D02*
X008602Y012701D01*
X008655Y012648D01*
X008762Y012648D01*
X008815Y012595D01*
X008815Y012541D01*
X008762Y012488D01*
X008655Y012488D01*
X008602Y012541D01*
X008602Y012755D02*
X008655Y012808D01*
X008762Y012808D01*
X008815Y012755D01*
X009339Y012755D02*
X009339Y012541D01*
X009392Y012488D01*
X009499Y012488D01*
X009552Y012541D01*
X009552Y012755D01*
X009499Y012808D01*
X009392Y012808D01*
X009339Y012755D01*
X009184Y012435D02*
X008970Y012435D01*
X008539Y012075D02*
X008539Y012021D01*
X008485Y011968D01*
X008539Y011915D01*
X008539Y011861D01*
X008485Y011808D01*
X008379Y011808D01*
X008325Y011861D01*
X008432Y011968D02*
X008485Y011968D01*
X008539Y012075D02*
X008485Y012128D01*
X008379Y012128D01*
X008325Y012075D01*
X008171Y012075D02*
X008171Y011968D01*
X008117Y011915D01*
X007957Y011915D01*
X008064Y011915D02*
X008171Y011808D01*
X007957Y011808D02*
X007957Y012128D01*
X008117Y012128D01*
X008171Y012075D01*
X008025Y012488D02*
X007865Y012488D01*
X007865Y012808D01*
X008025Y012808D01*
X008079Y012755D01*
X008079Y012701D01*
X008025Y012648D01*
X007865Y012648D01*
X008025Y012648D02*
X008079Y012595D01*
X008079Y012541D01*
X008025Y012488D01*
X007711Y012595D02*
X007711Y012808D01*
X007711Y012595D02*
X007604Y012488D01*
X007497Y012595D01*
X007497Y012808D01*
X007027Y012518D02*
X006747Y012518D01*
X006887Y012658D02*
X006887Y012378D01*
X006340Y011628D02*
X006340Y011308D01*
X006234Y011308D02*
X006447Y011308D01*
X006234Y011521D02*
X006340Y011628D01*
X006079Y011575D02*
X006079Y011468D01*
X006025Y011415D01*
X005865Y011415D01*
X005865Y011308D02*
X005865Y011628D01*
X006025Y011628D01*
X006079Y011575D01*
X005711Y011628D02*
X005604Y011628D01*
X005657Y011628D02*
X005657Y011361D01*
X005604Y011308D01*
X005550Y011308D01*
X005497Y011361D01*
X004425Y011363D02*
X004425Y011577D01*
X004425Y011470D02*
X004105Y011470D01*
X004211Y011363D01*
X004105Y011208D02*
X004425Y010995D01*
X004425Y011208D02*
X004105Y010995D01*
X004550Y009403D02*
X004497Y009350D01*
X004497Y009243D01*
X004550Y009190D01*
X004604Y009190D01*
X004657Y009243D01*
X004657Y009403D01*
X004764Y009403D02*
X004550Y009403D01*
X004764Y009403D02*
X004817Y009350D01*
X004817Y009243D01*
X004764Y009190D01*
X004764Y009035D02*
X004817Y008981D01*
X004817Y008875D01*
X004764Y008821D01*
X004550Y009035D01*
X004764Y009035D01*
X004764Y008821D02*
X004550Y008821D01*
X004497Y008875D01*
X004497Y008981D01*
X004550Y009035D01*
X004550Y008666D02*
X004764Y008453D01*
X004817Y008506D01*
X004817Y008613D01*
X004764Y008666D01*
X004550Y008666D01*
X004497Y008613D01*
X004497Y008506D01*
X004550Y008453D01*
X004764Y008453D01*
X004817Y008298D02*
X004817Y008085D01*
X004604Y008298D01*
X004550Y008298D01*
X004497Y008245D01*
X004497Y008138D01*
X004550Y008085D01*
X004497Y007562D02*
X004817Y007562D01*
X004657Y007562D02*
X004657Y007348D01*
X004657Y007193D02*
X004710Y007140D01*
X004604Y007140D01*
X004604Y007033D01*
X004710Y007033D01*
X004710Y007140D01*
X004657Y007193D02*
X004550Y007193D01*
X004497Y007140D01*
X004497Y007033D01*
X004550Y006980D01*
X004764Y006980D01*
X004817Y007033D01*
X004817Y007140D01*
X004764Y007193D01*
X004817Y007348D02*
X004497Y007348D01*
X004550Y006825D02*
X004497Y006772D01*
X004497Y006665D01*
X004550Y006611D01*
X004764Y006611D01*
X004817Y006665D01*
X004817Y006772D01*
X004764Y006825D01*
X006997Y006861D02*
X007050Y006808D01*
X007157Y006808D01*
X007211Y006861D01*
X007365Y006861D02*
X007365Y006915D01*
X007419Y006968D01*
X007525Y006968D01*
X007579Y006915D01*
X007579Y006861D01*
X007525Y006808D01*
X007419Y006808D01*
X007365Y006861D01*
X007419Y006968D02*
X007365Y007021D01*
X007365Y007075D01*
X007419Y007128D01*
X007525Y007128D01*
X007579Y007075D01*
X007579Y007021D01*
X007525Y006968D01*
X007211Y007075D02*
X007157Y007128D01*
X007050Y007128D01*
X006997Y007075D01*
X006997Y006861D01*
X007050Y007308D02*
X007157Y007308D01*
X007211Y007361D01*
X007050Y007308D02*
X006997Y007361D01*
X006997Y007575D01*
X007050Y007628D01*
X007157Y007628D01*
X007211Y007575D01*
X007365Y007468D02*
X007579Y007468D01*
X007525Y007308D02*
X007525Y007628D01*
X007365Y007468D01*
X007365Y008058D02*
X007579Y008058D01*
X007472Y008058D02*
X007472Y008378D01*
X007365Y008271D01*
X007211Y008218D02*
X007157Y008165D01*
X006997Y008165D01*
X007104Y008165D02*
X007211Y008058D01*
X007211Y008218D02*
X007211Y008325D01*
X007157Y008378D01*
X006997Y008378D01*
X006997Y008058D01*
X006997Y008558D02*
X006997Y008878D01*
X007157Y008878D01*
X007211Y008825D01*
X007211Y008718D01*
X007157Y008665D01*
X006997Y008665D01*
X007104Y008665D02*
X007211Y008558D01*
X007365Y008558D02*
X007579Y008771D01*
X007579Y008825D01*
X007525Y008878D01*
X007419Y008878D01*
X007365Y008825D01*
X007365Y009058D02*
X007579Y009058D01*
X007472Y009058D02*
X007472Y009378D01*
X007365Y009271D01*
X007211Y009325D02*
X007157Y009378D01*
X007050Y009378D01*
X006997Y009325D01*
X006997Y009111D01*
X007050Y009058D01*
X007157Y009058D01*
X007211Y009111D01*
X007365Y008558D02*
X007579Y008558D01*
X009707Y012488D02*
X009707Y012808D01*
X009920Y012488D01*
X009920Y012808D01*
X010207Y012768D02*
X010207Y012518D01*
M02*
