G75*
G70*
%OFA0B0*%
%FSLAX24Y24*%
%IPPOS*%
%LPD*%
%AMOC8*
5,1,8,0,0,1.08239X$1,22.5*
%
%ADD10R,0.0710X0.0196*%
%ADD11R,0.0196X0.0710*%
%ADD12C,0.0680*%
%ADD13C,0.1346*%
%ADD14R,0.0513X0.0474*%
%ADD15C,0.0720*%
%ADD16R,0.0552X0.0297*%
%ADD17R,0.0552X0.1064*%
%ADD18R,0.0474X0.0513*%
%ADD19R,0.0720X0.0720*%
%ADD20C,0.0640*%
%ADD21C,0.1380*%
D10*
X010544Y007317D03*
X010544Y007514D03*
X010544Y007711D03*
X010544Y007908D03*
X010544Y008105D03*
X010544Y008301D03*
X010544Y008498D03*
X010544Y008695D03*
X012985Y008695D03*
X012985Y008498D03*
X012985Y008301D03*
X012985Y008105D03*
X012985Y007908D03*
X012985Y007711D03*
X012985Y007514D03*
X012985Y007317D03*
D11*
X012453Y006786D03*
X012256Y006786D03*
X012059Y006786D03*
X011863Y006786D03*
X011666Y006786D03*
X011469Y006786D03*
X011272Y006786D03*
X011075Y006786D03*
X011075Y009227D03*
X011272Y009227D03*
X011469Y009227D03*
X011666Y009227D03*
X011863Y009227D03*
X012059Y009227D03*
X012256Y009227D03*
X012453Y009227D03*
D12*
X008107Y009396D03*
X008107Y008412D03*
X008107Y007624D03*
X008107Y006640D03*
D13*
X007162Y005734D03*
X007162Y010301D03*
D14*
X009067Y009089D03*
X009067Y008498D03*
X009737Y008498D03*
X009737Y009089D03*
X009737Y007908D03*
X009067Y007908D03*
X009067Y007317D03*
X009737Y007317D03*
X009737Y006727D03*
X009067Y006727D03*
X013989Y011746D03*
X014658Y011746D03*
X011016Y012140D03*
X010347Y012140D03*
X009737Y012140D03*
X009067Y012140D03*
D15*
X009957Y013518D03*
X010957Y013518D03*
X011957Y013518D03*
X012957Y013518D03*
X013957Y013518D03*
X014957Y013518D03*
X015957Y013518D03*
X017957Y013518D03*
X018957Y013518D03*
X019957Y013518D03*
X020957Y013518D03*
X021957Y013518D03*
X022957Y013518D03*
X023957Y013518D03*
X005957Y013518D03*
X005957Y012518D03*
X005957Y003518D03*
X005957Y002518D03*
X009957Y002518D03*
X010957Y002518D03*
X011957Y002518D03*
X012957Y002518D03*
X013957Y002518D03*
X014957Y002518D03*
X015957Y002518D03*
X017957Y002518D03*
X018957Y002518D03*
X019957Y002518D03*
X020957Y002518D03*
X021957Y002518D03*
X022957Y002518D03*
X023957Y002518D03*
D16*
X014048Y010486D03*
X014048Y010860D03*
X014048Y011234D03*
X013024Y011234D03*
X013024Y010860D03*
X013024Y010486D03*
X010111Y010880D03*
X010111Y011254D03*
X010111Y011628D03*
X009087Y011628D03*
X009087Y010880D03*
D17*
X009048Y009975D03*
X010347Y009975D03*
D18*
X013181Y006904D03*
X013181Y006234D03*
X010485Y006097D03*
X010485Y006766D03*
D19*
X008957Y002518D03*
X016957Y002518D03*
X016957Y013518D03*
X008957Y013518D03*
D20*
X009288Y004463D03*
X011288Y004463D03*
D21*
X004457Y002018D03*
X004457Y014018D03*
X025457Y014018D03*
X025457Y002018D03*
M02*
