<?xml version="1.0" encoding="UTF-8" standalone="no"?>
<!-- Created with Inkscape (http://www.inkscape.org/) -->
<svg
   xmlns:dc="http://purl.org/dc/elements/1.1/"
   xmlns:cc="http://creativecommons.org/ns#"
   xmlns:rdf="http://www.w3.org/1999/02/22-rdf-syntax-ns#"
   xmlns:svg="http://www.w3.org/2000/svg"
   xmlns="http://www.w3.org/2000/svg"
   xmlns:xlink="http://www.w3.org/1999/xlink"
   xmlns:sodipodi="http://sodipodi.sourceforge.net/DTD/sodipodi-0.dtd"
   xmlns:inkscape="http://www.inkscape.org/namespaces/inkscape"
   width="210mm"
   height="297mm"
   id="svg2"
   sodipodi:version="0.32"
   inkscape:version="0.46"
   inkscape:export-filename="/home/oex/Desktop/mux.png"
   inkscape:export-xdpi="71.307961"
   inkscape:export-ydpi="71.307961"
   sodipodi:docname="mux.svg"
   inkscape:output_extension="org.inkscape.output.svg.inkscape">
  <defs
     id="defs4">
    <linearGradient
       id="linearGradient3155">
      <stop
         style="stop-color:#434343;stop-opacity:1;"
         offset="0"
         id="stop3157" />
      <stop
         id="stop3171"
         offset="0.5"
         style="stop-color:#6d6d6d;stop-opacity:1;" />
      <stop
         style="stop-color:#5f5f5f;stop-opacity:1;"
         offset="0.75"
         id="stop3173" />
      <stop
         style="stop-color:#3e3e3e;stop-opacity:1;"
         offset="1"
         id="stop3159" />
    </linearGradient>
    <inkscape:perspective
       sodipodi:type="inkscape:persp3d"
       inkscape:vp_x="0 : 526.18109 : 1"
       inkscape:vp_y="0 : 1000 : 0"
       inkscape:vp_z="744.09448 : 526.18109 : 1"
       inkscape:persp3d-origin="372.04724 : 350.78739 : 1"
       id="perspective10" />
    <linearGradient
       inkscape:collect="always"
       xlink:href="#linearGradient3155"
       id="linearGradient3165"
       x1="249.92857"
       y1="546.64789"
       x2="710.07141"
       y2="546.64789"
       gradientUnits="userSpaceOnUse" />
    <linearGradient
       inkscape:collect="always"
       xlink:href="#linearGradient3155"
       id="linearGradient3185"
       x1="1563.7856"
       y1="828.79077"
       x2="1749.0714"
       y2="828.79077"
       gradientUnits="userSpaceOnUse"
       gradientTransform="translate(-28.081221,-10.32921)" />
    <linearGradient
       inkscape:collect="always"
       xlink:href="#linearGradient3155"
       id="linearGradient3189"
       gradientUnits="userSpaceOnUse"
       gradientTransform="matrix(0.9966214,0,0,1.1985449,-14.403575,-793.67328)"
       x1="1563.7856"
       y1="828.79077"
       x2="1749.0714"
       y2="828.79077" />
    <linearGradient
       inkscape:collect="always"
       xlink:href="#linearGradient3155"
       id="linearGradient3193"
       gradientUnits="userSpaceOnUse"
       gradientTransform="matrix(0.7071068,0.7071068,-0.7071068,0.7071068,1279.7717,-1454.2389)"
       x1="1563.7856"
       y1="828.79077"
       x2="1749.0714"
       y2="828.79077" />
    <linearGradient
       inkscape:collect="always"
       xlink:href="#linearGradient3155"
       id="linearGradient3197"
       gradientUnits="userSpaceOnUse"
       gradientTransform="matrix(-0.7071068,0.7071068,0.7071068,0.7071068,1994.4719,-1451.3818)"
       x1="1563.7856"
       y1="828.79077"
       x2="1749.0714"
       y2="828.79077" />
  </defs>
  <sodipodi:namedview
     id="base"
     pagecolor="#ffffff"
     bordercolor="#666666"
     borderopacity="1.0"
     inkscape:pageopacity="0.0"
     inkscape:pageshadow="2"
     inkscape:zoom="0.24748737"
     inkscape:cx="2104.0445"
     inkscape:cy="340.11297"
     inkscape:document-units="px"
     inkscape:current-layer="layer1"
     showgrid="false"
     inkscape:window-width="1270"
     inkscape:window-height="721"
     inkscape:window-x="0"
     inkscape:window-y="26" />
  <metadata
     id="metadata7">
    <rdf:RDF>
      <cc:Work
         rdf:about="">
        <dc:format>image/svg+xml</dc:format>
        <dc:type
           rdf:resource="http://purl.org/dc/dcmitype/StillImage" />
      </cc:Work>
    </rdf:RDF>
  </metadata>
  <g
     inkscape:label="Calque 1"
     inkscape:groupmode="layer"
     id="layer1">
    <path
       style="fill:url(#linearGradient3185);fill-opacity:1;fill-rule:evenodd;stroke:#000000;stroke-width:6.69999981;stroke-linecap:butt;stroke-linejoin:miter;stroke-miterlimit:4;stroke-dasharray:none;stroke-opacity:1"
       d="M 1663.3474,687.74726 L 1663.3474,856.31869 L 1720.4902,856.31869 L 1627.6331,949.17583 L 1536.2045,857.74726 L 1594.7759,857.74726 L 1594.7759,687.74726 L 1663.3474,687.74726 z"
       id="path3177" />
    <path
       sodipodi:type="arc"
       style="opacity:1;fill:url(#linearGradient3165);fill-opacity:1;stroke:#000000;stroke-width:8.83807391;stroke-linejoin:miter;stroke-miterlimit:4;stroke-dasharray:none;stroke-dashoffset:0;stroke-opacity:1"
       id="path2383"
       sodipodi:cx="480"
       sodipodi:cy="546.64789"
       sodipodi:rx="228.57143"
       sodipodi:ry="188.57143"
       d="M 708.57143,546.64789 A 228.57143,188.57143 0 1 1 251.42857,546.64789 A 228.57143,188.57143 0 1 1 708.57143,546.64789 z"
       transform="matrix(0.9995932,0,0,1.1282947,1157.3381,-111.56061)" />
    <text
       xml:space="preserve"
       style="font-size:69.94995880000000454px;font-style:normal;font-weight:normal;fill:#ffffff;fill-opacity:1;stroke:none;stroke-width:1px;stroke-linecap:butt;stroke-linejoin:miter;stroke-opacity:1;font-family:Bitstream Vera Sans"
       x="1417.0607"
       y="535.11713"
       id="text3167"><tspan
         sodipodi:role="line"
         id="tspan3169"
         x="1417.0607"
         y="535.11713">Multiplexeur</tspan></text>
    <path
       id="path3187"
       d="M 1671.3103,43.002712 L 1671.3103,245.04314 L 1728.2601,245.04314 L 1635.7167,356.33659 L 1544.597,246.75534 L 1602.9705,246.75534 L 1602.9705,43.002712 L 1671.3103,43.002712 z"
       style="fill:url(#linearGradient3189);fill-opacity:1;fill-rule:evenodd;stroke:#000000;stroke-width:7.32262897;stroke-linecap:butt;stroke-linejoin:miter;stroke-miterlimit:4;stroke-dasharray:none;stroke-opacity:1" />
    <path
       style="fill:url(#linearGradient3193);fill-opacity:1;fill-rule:evenodd;stroke:#000000;stroke-width:6.69999981;stroke-linecap:butt;stroke-linejoin:miter;stroke-miterlimit:4;stroke-dasharray:none;stroke-opacity:1"
       d="M 1982.1777,235.39629 L 1862.9797,354.59429 L 1903.3857,395.00035 L 1772.0659,395.00038 L 1772.0659,265.70084 L 1813.4822,307.11707 L 1933.6903,186.90892 L 1982.1777,235.39629 z"
       id="path3191"
       inkscape:transform-center-x="-180"
       inkscape:transform-center-y="-51.428571" />
    <path
       inkscape:transform-center-y="-51.428571"
       inkscape:transform-center-x="180"
       id="path3195"
       d="M 1292.0659,238.25343 L 1411.2639,357.45143 L 1370.8579,397.85749 L 1502.1777,397.85752 L 1502.1777,268.55798 L 1460.7614,309.97421 L 1340.5533,189.76606 L 1292.0659,238.25343 z"
       style="fill:url(#linearGradient3197);fill-opacity:1;fill-rule:evenodd;stroke:#000000;stroke-width:6.69999981;stroke-linecap:butt;stroke-linejoin:miter;stroke-miterlimit:4;stroke-dasharray:none;stroke-opacity:1" />
    <text
       xml:space="preserve"
       style="font-size:59.45724487000000380px;font-style:normal;font-weight:normal;fill:#ffffff;fill-opacity:1;stroke:#000000;stroke-width:3;stroke-linecap:butt;stroke-linejoin:miter;stroke-opacity:1;font-family:Bitstream Vera Sans;stroke-miterlimit:4;stroke-dasharray:none"
       x="1304.339"
       y="6.0435653"
       id="text3199"><tspan
         sodipodi:role="line"
         id="tspan3201"
         x="1304.339"
         y="6.0435653"
         style="font-weight:bold;fill:#ffffff;stroke:#000000;stroke-opacity:1;stroke-width:3;stroke-miterlimit:4;stroke-dasharray:none">Contrôleur (RS232)</tspan></text>
    <path
       style="font-size:60.36284636999998554px;font-style:normal;font-weight:normal;fill:#ffffff;fill-opacity:1;stroke:#000000;stroke-width:3;stroke-linecap:butt;stroke-linejoin:miter;stroke-opacity:1;font-family:Bitstream Vera Sans;stroke-miterlimit:4;stroke-dasharray:none"
       d="M 806.60742,101.14805 L 847.16371,101.14805 L 847.16371,109.725 L 832.57406,109.725 L 832.57406,145.1528 L 821.22655,145.1528 L 821.22655,109.725 L 806.60742,109.725 L 806.60742,101.14805 M 877.46303,128.55891 L 877.46303,131.56527 L 852.79325,131.56527 C 853.04868,134.0411 853.94273,135.89796 855.47539,137.13586 C 857.00802,138.37378 859.1498,138.99273 861.90073,138.99273 C 864.12109,138.99273 866.39059,138.66852 868.70924,138.02008 C 871.04748,137.35201 873.4447,136.3499 875.9009,135.01373 L 875.9009,143.14857 C 873.4054,144.09174 870.90993,144.79911 868.4145,145.2707 C 865.919,145.76193 863.42353,146.00755 860.92809,146.00755 C 854.95467,146.00755 850.3076,144.49455 846.98687,141.46855 C 843.68577,138.4229 842.03522,134.15899 842.03523,128.67681 C 842.03522,123.29291 843.65629,119.05847 846.89844,115.9735 C 850.16023,112.88858 854.64028,111.3461 860.33861,111.34607 C 865.52601,111.3461 869.67203,112.90823 872.77666,116.03244 C 875.90087,119.15672 877.46299,123.3322 877.46303,128.55891 M 866.61658,125.0515 C 866.61655,123.04729 866.02707,121.43604 864.84814,120.21776 C 863.6888,118.97987 862.16598,118.36092 860.27966,118.36089 C 858.23611,118.36092 856.57574,118.94058 855.29855,120.09986 C 854.02132,121.23955 853.22552,122.89009 852.91115,125.0515 L 866.61658,125.0515 M 864.90709,96.874314 L 873.24824,96.874314 L 862.37232,107.95656 L 856.5954,107.95656 L 864.90709,96.874314 M 885.42102,99.291186 L 895.97273,99.291186 L 895.97273,145.1528 L 885.42102,145.1528 L 885.42102,99.291186 M 939.12273,128.55891 L 939.12273,131.56527 L 914.45295,131.56527 C 914.70838,134.0411 915.60243,135.89796 917.13509,137.13586 C 918.66773,138.37378 920.8095,138.99273 923.56043,138.99273 C 925.78079,138.99273 928.05029,138.66852 930.36894,138.02008 C 932.70718,137.35201 935.1044,136.3499 937.56061,135.01373 L 937.56061,143.14857 C 935.0651,144.09174 932.56964,144.79911 930.0742,145.2707 C 927.5787,145.76193 925.08324,146.00755 922.58779,146.00755 C 916.61437,146.00755 911.9673,144.49455 908.64657,141.46855 C 905.34547,138.4229 903.69493,134.15899 903.69493,128.67681 C 903.69493,123.29291 905.316,119.05847 908.55815,115.9735 C 911.81993,112.88858 916.29998,111.3461 921.99831,111.34607 C 927.18572,111.3461 931.33173,112.90823 934.43636,116.03244 C 937.56057,119.15672 939.12269,123.3322 939.12273,128.55891 M 928.27628,125.0515 C 928.27625,123.04729 927.68677,121.43604 926.50784,120.21776 C 925.3485,118.97987 923.82568,118.36092 921.93936,118.36089 C 919.89581,118.36092 918.23544,118.94058 916.95825,120.09986 C 915.68103,121.23955 914.88523,122.89009 914.57085,125.0515 L 928.27628,125.0515 M 926.56679,96.874314 L 934.90794,96.874314 L 924.03202,107.95656 L 918.25511,107.95656 L 926.56679,96.874314 M 973.75475,113.17346 L 973.75475,121.77988 C 972.32031,120.79744 970.87609,120.07041 969.42206,119.5988 C 967.98763,119.12724 966.49428,118.89145 964.94201,118.89143 C 961.99458,118.89145 959.69561,119.75602 958.04508,121.48514 C 956.41417,123.19466 955.59872,125.59188 955.59874,128.67681 C 955.59872,131.76177 956.41417,134.16882 958.04508,135.89795 C 959.69561,137.60745 961.99458,138.4622 964.94201,138.46219 C 966.59253,138.4622 968.15465,138.21658 969.62838,137.72534 C 971.1217,137.23412 972.49716,136.50709 973.75475,135.54426 L 973.75475,144.18016 C 972.10417,144.78929 970.42415,145.24122 968.71469,145.53596 C 967.02482,145.85035 965.32515,146.00755 963.61568,146.00755 C 957.6619,146.00755 953.00501,144.48472 949.64498,141.43907 C 946.28493,138.37378 944.60491,134.11969 944.60492,128.67681 C 944.60491,123.23396 946.28493,118.9897 949.64498,115.94402 C 953.00501,112.87875 957.6619,111.3461 963.61568,111.34607 C 965.3448,111.3461 967.04446,111.5033 968.71469,111.81766 C 970.4045,112.11243 972.08452,112.56436 973.75475,113.17346 M 998.63083,118.89143 C 996.29253,118.89145 994.50444,119.73637 993.26655,121.42619 C 992.04827,123.09641 991.43915,125.51328 991.43916,128.67681 C 991.43915,131.84037 992.04827,134.26706 993.26655,135.9569 C 994.50444,137.6271 996.29253,138.4622 998.63083,138.46219 C 1000.9298,138.4622 1002.6884,137.6271 1003.9067,135.9569 C 1005.1249,134.26706 1005.734,131.84037 1005.7341,128.67681 C 1005.734,125.51328 1005.1249,123.09641 1003.9067,121.42619 C 1002.6884,119.73637 1000.9298,118.89145 998.63083,118.89143 M 998.63083,111.34607 C 1004.3095,111.3461 1008.7404,112.87875 1011.9236,115.94402 C 1015.1264,119.00935 1016.7279,123.25361 1016.7279,128.67681 C 1016.7279,134.10005 1015.1264,138.3443 1011.9236,141.4096 C 1008.7404,144.4749 1004.3095,146.00755 998.63083,146.00755 C 992.9325,146.00755 988.47209,144.4749 985.24961,141.4096 C 982.04676,138.3443 980.44534,134.10005 980.44534,128.67681 C 980.44534,123.25361 982.04676,119.00935 985.24961,115.94402 C 988.47209,112.87875 992.9325,111.3461 998.63083,111.34607 M 1055.0147,117.62404 C 1056.3508,115.58054 1057.9326,114.02824 1059.76,112.96714 C 1061.607,111.88646 1063.6309,111.3461 1065.8317,111.34607 C 1069.6239,111.3461 1072.5124,112.51524 1074.497,114.85348 C 1076.4816,117.19178 1077.4739,120.59112 1077.4739,125.0515 L 1077.4739,145.1528 L 1066.8633,145.1528 L 1066.8633,127.93996 C 1066.8829,127.68453 1066.8927,127.41927 1066.8927,127.14416 C 1066.9123,126.86909 1066.9222,126.4761 1066.9222,125.9652 C 1066.9222,123.62694 1066.5783,121.9371 1065.8906,120.89566 C 1065.2028,119.83462 1064.0926,119.30409 1062.56,119.30406 C 1060.5558,119.30409 1059.0035,120.12936 1057.9031,121.77988 C 1056.8224,123.43045 1056.2624,125.81785 1056.2231,128.94208 L 1056.2231,145.1528 L 1045.6125,145.1528 L 1045.6125,127.93996 C 1045.6124,124.2852 1045.298,121.9371 1044.6693,120.89566 C 1044.0405,119.83462 1042.9205,119.30409 1041.3093,119.30406 C 1039.2853,119.30409 1037.7232,120.13919 1036.6229,121.80936 C 1035.5225,123.45993 1034.9723,125.82767 1034.9723,128.9126 L 1034.9723,145.1528 L 1024.3617,145.1528 L 1024.3617,112.14187 L 1034.9723,112.14187 L 1034.9723,116.97561 C 1036.2692,115.10895 1037.7527,113.70403 1039.4229,112.76082 C 1041.1127,111.81769 1042.9696,111.3461 1044.9935,111.34607 C 1047.2728,111.3461 1049.2869,111.89629 1051.0357,112.99662 C 1052.7844,114.09701 1054.1108,115.63949 1055.0147,117.62404 M 1117.9712,117.62404 C 1119.3074,115.58054 1120.8891,114.02824 1122.7166,112.96714 C 1124.5636,111.88646 1126.5874,111.3461 1128.7882,111.34607 C 1132.5805,111.3461 1135.4689,112.51524 1137.4536,114.85348 C 1139.4381,117.19178 1140.4304,120.59112 1140.4305,125.0515 L 1140.4305,145.1528 L 1129.8198,145.1528 L 1129.8198,127.93996 C 1129.8394,127.68453 1129.8492,127.41927 1129.8493,127.14416 C 1129.8689,126.86909 1129.8787,126.4761 1129.8788,125.9652 C 1129.8787,123.62694 1129.5348,121.9371 1128.8472,120.89566 C 1128.1594,119.83462 1127.0492,119.30409 1125.5166,119.30406 C 1123.5123,119.30409 1121.96,120.12936 1120.8597,121.77988 C 1119.7789,123.43045 1119.2189,125.81785 1119.1797,128.94208 L 1119.1797,145.1528 L 1108.569,145.1528 L 1108.569,127.93996 C 1108.569,124.2852 1108.2546,121.9371 1107.6259,120.89566 C 1106.997,119.83462 1105.877,119.30409 1104.2658,119.30406 C 1102.2419,119.30409 1100.6798,120.13919 1099.5794,121.80936 C 1098.4791,123.45993 1097.9289,125.82767 1097.9289,128.9126 L 1097.9289,145.1528 L 1087.3182,145.1528 L 1087.3182,112.14187 L 1097.9289,112.14187 L 1097.9289,116.97561 C 1099.2257,115.10895 1100.7093,113.70403 1102.3795,112.76082 C 1104.0693,111.81769 1105.9262,111.3461 1107.9501,111.34607 C 1110.2294,111.3461 1112.2434,111.89629 1113.9922,112.99662 C 1115.741,114.09701 1117.0673,115.63949 1117.9712,117.62404 M 1165.1297,130.29788 C 1162.929,130.2979 1161.2686,130.67123 1160.1486,131.4179 C 1159.0482,132.16458 1158.4981,133.26495 1158.4981,134.71899 C 1158.4981,136.05516 1158.9402,137.10639 1159.8244,137.87271 C 1160.7283,138.61939 1161.976,138.99273 1163.5676,138.99273 C 1165.5522,138.99273 1167.2224,138.28536 1168.5782,136.87059 C 1169.934,135.4362 1170.6119,133.64811 1170.6119,131.50632 L 1170.6119,130.29788 L 1165.1297,130.29788 M 1181.252,126.31889 L 1181.252,145.1528 L 1170.6119,145.1528 L 1170.6119,140.26011 C 1169.1971,142.26435 1167.6055,143.72822 1165.8371,144.65174 C 1164.0686,145.55561 1161.917,146.00755 1159.3823,146.00755 C 1155.9633,146.00755 1153.1829,145.01526 1151.0411,143.03067 C 1148.919,141.02644 1147.8579,138.43273 1147.8579,135.24952 C 1147.8579,131.37861 1149.1843,128.53928 1151.8369,126.73152 C 1154.5092,124.9238 1158.6945,124.01993 1164.3929,124.01991 L 1170.6119,124.01991 L 1170.6119,123.19464 C 1170.6119,121.52446 1169.9536,120.30621 1168.6371,119.53986 C 1167.3206,118.75391 1165.2673,118.36092 1162.4771,118.36089 C 1160.2174,118.36092 1158.1149,118.58689 1156.1696,119.0388 C 1154.2243,119.49076 1152.4166,120.16866 1150.7464,121.07251 L 1150.7464,113.02609 C 1153.0061,112.47594 1155.2756,112.06331 1157.5549,111.78818 C 1159.8342,111.49347 1162.1135,111.3461 1164.3929,111.34607 C 1170.3466,111.3461 1174.64,112.52507 1177.273,114.88296 C 1179.9257,117.22126 1181.252,121.03323 1181.252,126.31889 M 1224.3136,125.0515 L 1224.3136,145.1528 L 1213.703,145.1528 L 1213.703,141.88118 L 1213.703,129.76735 C 1213.7029,126.91821 1213.6342,124.95328 1213.4966,123.87254 C 1213.3787,122.79185 1213.1626,121.99605 1212.8482,121.48514 C 1212.4355,120.79744 1211.8755,120.26691 1211.1682,119.89354 C 1210.4608,119.50058 1209.6552,119.30409 1208.7513,119.30406 C 1206.5506,119.30409 1204.8214,120.15884 1203.5639,121.86831 C 1202.3063,123.55817 1201.6775,125.90627 1201.6775,128.9126 L 1201.6775,145.1528 L 1191.1258,145.1528 L 1191.1258,112.14187 L 1201.6775,112.14187 L 1201.6775,116.97561 C 1203.2691,115.05001 1204.959,113.63525 1206.7471,112.73135 C 1208.5352,111.80786 1210.5099,111.3461 1212.6714,111.34607 C 1216.4833,111.3461 1219.3718,112.51524 1221.3367,114.85348 C 1223.3213,117.19178 1224.3136,120.59112 1224.3136,125.0515 M 1256.6172,116.97561 L 1256.6172,99.291186 L 1267.2278,99.291186 L 1267.2278,145.1528 L 1256.6172,145.1528 L 1256.6172,140.37801 C 1255.1631,142.3233 1253.5617,143.74787 1251.8129,144.65174 C 1250.0641,145.55561 1248.0402,146.00755 1245.7412,146.00755 C 1241.6738,146.00755 1238.3334,144.3963 1235.7201,141.17381 C 1233.1067,137.93167 1231.8,133.76601 1231.8,128.67681 C 1231.8,123.58765 1233.1067,119.43181 1235.7201,116.20929 C 1238.3334,112.96718 1241.6738,111.3461 1245.7412,111.34607 C 1248.0206,111.3461 1250.0346,111.80786 1251.7834,112.73135 C 1253.5518,113.63525 1255.1631,115.05001 1256.6172,116.97561 M 1249.6613,138.3443 C 1251.9209,138.3443 1253.6403,137.51903 1254.8193,135.86848 C 1256.0178,134.21794 1256.6171,131.82072 1256.6172,128.67681 C 1256.6171,125.53293 1256.0178,123.13571 1254.8193,121.48514 C 1253.6403,119.83462 1251.9209,119.00935 1249.6613,119.00932 C 1247.4212,119.00935 1245.7019,119.83462 1244.5033,121.48514 C 1243.3244,123.13571 1242.7349,125.53293 1242.7349,128.67681 C 1242.7349,131.82072 1243.3244,134.21794 1244.5033,135.86848 C 1245.7019,137.51903 1247.4212,138.3443 1249.6613,138.3443 M 1310.3778,128.55891 L 1310.3778,131.56527 L 1285.708,131.56527 C 1285.9635,134.0411 1286.8575,135.89796 1288.3902,137.13586 C 1289.9228,138.37378 1292.0646,138.99273 1294.8155,138.99273 C 1297.0359,138.99273 1299.3054,138.66852 1301.624,138.02008 C 1303.9623,137.35201 1306.3595,136.3499 1308.8157,135.01373 L 1308.8157,143.14857 C 1306.3202,144.09174 1303.8247,144.79911 1301.3293,145.2707 C 1298.8338,145.76193 1296.3383,146.00755 1293.8429,146.00755 C 1287.8695,146.00755 1283.2224,144.49455 1279.9016,141.46855 C 1276.6006,138.4229 1274.95,134.15899 1274.95,128.67681 C 1274.95,123.29291 1276.5711,119.05847 1279.8132,115.9735 C 1283.075,112.88858 1287.5551,111.3461 1293.2534,111.34607 C 1298.4408,111.3461 1302.5868,112.90823 1305.6914,116.03244 C 1308.8157,119.15672 1310.3778,123.3322 1310.3778,128.55891 M 1299.5314,125.0515 C 1299.5313,123.04729 1298.9419,121.43604 1297.7629,120.21776 C 1296.6036,118.97987 1295.0808,118.36092 1293.1944,118.36089 C 1291.1509,118.36092 1289.4905,118.94058 1288.2133,120.09986 C 1286.9361,121.23955 1286.1403,122.89009 1285.8259,125.0515 L 1299.5314,125.0515 M 1357.0057,153.11079 L 1348.2519,153.11079 C 1345.2456,148.2574 1343.0252,143.64963 1341.5908,139.28747 C 1340.1564,134.90567 1339.4392,130.56316 1339.4392,126.25994 C 1339.4392,121.95675 1340.1564,117.60442 1341.5908,113.20294 C 1343.0449,108.78187 1345.2652,104.16427 1348.2519,99.350134 L 1357.0057,99.350134 C 1354.4906,104.00707 1352.6043,108.56572 1351.3467,113.02609 C 1350.0891,117.46688 1349.4604,121.8585 1349.4604,126.20099 C 1349.4604,130.54351 1350.0793,134.94497 1351.3172,139.40536 C 1352.5748,143.86577 1354.4709,148.43424 1357.0057,153.11079 M 1367.3806,101.14805 L 1386.2145,101.14805 C 1391.8146,101.14809 1396.1079,102.39583 1399.0947,104.89125 C 1402.101,107.36711 1403.6042,110.90399 1403.6042,115.50191 C 1403.6042,120.11954 1402.101,123.67607 1399.0947,126.17152 C 1396.1079,128.64735 1391.8146,129.88526 1386.2145,129.88525 L 1378.7281,129.88525 L 1378.7281,145.1528 L 1367.3806,145.1528 L 1367.3806,101.14805 M 1378.7281,109.37131 L 1378.7281,121.66199 L 1385.0061,121.66199 C 1387.2068,121.66201 1388.9064,121.13148 1390.1051,120.07039 C 1391.3037,118.9897 1391.903,117.46688 1391.903,115.50191 C 1391.903,113.53701 1391.3037,112.02401 1390.1051,110.96291 C 1388.9064,109.90188 1387.2068,109.37135 1385.0061,109.37131 L 1378.7281,109.37131 M 1407.8485,101.14805 L 1418.7244,101.14805 L 1426.3287,133.12739 L 1433.8741,101.14805 L 1444.809,101.14805 L 1452.3543,133.12739 L 1459.9586,101.14805 L 1470.7461,101.14805 L 1460.3713,145.1528 L 1447.2848,145.1528 L 1439.2973,111.69976 L 1431.3983,145.1528 L 1418.3118,145.1528 L 1407.8485,101.14805 M 1478.203,101.14805 L 1492.6453,101.14805 L 1502.6665,124.69781 L 1512.7466,101.14805 L 1527.1594,101.14805 L 1527.1594,145.1528 L 1516.4309,145.1528 L 1516.4309,112.96714 L 1506.2918,136.69375 L 1499.1001,136.69375 L 1488.9611,112.96714 L 1488.9611,145.1528 L 1478.203,145.1528 L 1478.203,101.14805 M 1537.6227,153.11079 C 1540.1379,148.43424 1542.0242,143.86577 1543.2818,139.40536 C 1544.5393,134.94497 1545.1681,130.54351 1545.1681,126.20099 C 1545.1681,121.8585 1544.5393,117.46688 1543.2818,113.02609 C 1542.0242,108.56572 1540.1379,104.00707 1537.6227,99.350134 L 1546.3765,99.350134 C 1549.3632,104.16427 1551.5738,108.78187 1553.0082,113.20294 C 1554.4622,117.60442 1555.1893,121.95675 1555.1893,126.25994 C 1555.1893,130.56316 1554.4721,134.90567 1553.0377,139.28747 C 1551.6032,143.64963 1549.3829,148.2574 1546.3765,153.11079 L 1537.6227,153.11079"
       id="text3203" />
    <path
       style="font-size:61.30412674000000095px;font-style:normal;font-weight:normal;fill:#ffffff;fill-opacity:1;stroke:#000000;stroke-width:3;stroke-linecap:butt;stroke-linejoin:miter;stroke-opacity:1;font-family:Bitstream Vera Sans;stroke-miterlimit:4;stroke-dasharray:none"
       d="M 1710.2025,96.8322 L 1751.3912,96.8322 L 1751.3912,105.54289 L 1736.5741,105.54289 L 1736.5741,141.52315 L 1725.0496,141.52315 L 1725.0496,105.54289 L 1710.2025,105.54289 L 1710.2025,96.8322 M 1782.163,124.6705 L 1782.163,127.72373 L 1757.1086,127.72373 C 1757.368,130.23817 1758.276,132.12399 1759.8325,133.38119 C 1761.3891,134.63841 1763.5642,135.26702 1766.3581,135.26701 C 1768.613,135.26702 1770.9179,134.93775 1773.2727,134.2792 C 1775.6475,133.60071 1778.0821,132.58297 1780.5766,131.22597 L 1780.5766,139.48766 C 1778.0421,140.44554 1775.5078,141.16394 1772.9734,141.64288 C 1770.439,142.14178 1767.9046,142.39122 1765.3703,142.39122 C 1759.3037,142.39122 1754.5842,140.85463 1751.2116,137.78144 C 1747.8591,134.6883 1746.1828,130.35791 1746.1828,124.79023 C 1746.1828,119.32238 1747.8291,115.02191 1751.1218,111.88883 C 1754.4345,108.75581 1758.9844,107.18928 1764.7716,107.18924 C 1770.0399,107.18928 1774.2505,108.77576 1777.4036,111.9487 C 1780.5765,115.12169 1782.163,119.36229 1782.163,124.6705 M 1771.1475,121.10839 C 1771.1474,119.07293 1770.5488,117.43656 1769.3514,116.19927 C 1768.174,114.94209 1766.6275,114.31348 1764.7117,114.31345 C 1762.6363,114.31348 1760.95,114.90218 1759.6529,116.07954 C 1758.3558,117.237 1757.5476,118.91328 1757.2283,121.10839 L 1771.1475,121.10839 M 1769.4113,92.49182 L 1777.8825,92.49182 L 1766.837,103.74687 L 1760.97,103.74687 L 1769.4113,92.49182 M 1790.2451,94.946379 L 1800.9614,94.946379 L 1800.9614,141.52315 L 1790.2451,141.52315 L 1790.2451,94.946379 M 1844.7842,124.6705 L 1844.7842,127.72373 L 1819.7298,127.72373 C 1819.9892,130.23817 1820.8972,132.12399 1822.4537,133.38119 C 1824.0103,134.63841 1826.1854,135.26702 1828.9793,135.26701 C 1831.2343,135.26702 1833.5391,134.93775 1835.894,134.2792 C 1838.2687,133.60071 1840.7033,132.58297 1843.1978,131.22597 L 1843.1978,139.48766 C 1840.6633,140.44554 1838.129,141.16394 1835.5946,141.64288 C 1833.0602,142.14178 1830.5258,142.39122 1827.9915,142.39122 C 1821.9249,142.39122 1817.2054,140.85463 1813.8328,137.78144 C 1810.4803,134.6883 1808.804,130.35791 1808.804,124.79023 C 1808.804,119.32238 1810.4503,115.02191 1813.743,111.88883 C 1817.0557,108.75581 1821.6056,107.18928 1827.3928,107.18924 C 1832.6611,107.18928 1836.8718,108.77576 1840.0248,111.9487 C 1843.1977,115.12169 1844.7842,119.36229 1844.7842,124.6705 M 1833.7687,121.10839 C 1833.7686,119.07293 1833.17,117.43656 1831.9726,116.19927 C 1830.7952,114.94209 1829.2487,114.31348 1827.3329,114.31345 C 1825.2575,114.31348 1823.5712,114.90218 1822.2741,116.07954 C 1820.977,117.237 1820.1688,118.91328 1819.8495,121.10839 L 1833.7687,121.10839 M 1832.0325,92.49182 L 1840.5037,92.49182 L 1829.4582,103.74687 L 1823.5912,103.74687 L 1832.0325,92.49182 M 1879.9563,109.04513 L 1879.9563,117.78576 C 1878.4995,116.78799 1877.0327,116.04963 1875.556,115.57067 C 1874.0992,115.09176 1872.5826,114.85229 1871.0061,114.85226 C 1868.0127,114.85229 1865.6779,115.73034 1864.0017,117.48642 C 1862.3453,119.2226 1861.5171,121.6572 1861.5172,124.79023 C 1861.5171,127.9233 1862.3453,130.36788 1864.0017,132.12398 C 1865.6779,133.86014 1868.0127,134.72821 1871.0061,134.72821 C 1872.6824,134.72821 1874.2689,134.47877 1875.7656,133.97987 C 1877.2822,133.48098 1878.6791,132.74262 1879.9563,131.76478 L 1879.9563,140.53534 C 1878.28,141.15397 1876.5738,141.61295 1874.8376,141.91229 C 1873.1214,142.23158 1871.3952,142.39122 1869.6591,142.39122 C 1863.6125,142.39122 1858.883,140.84465 1855.4706,137.75151 C 1852.0581,134.63841 1850.3519,130.31799 1850.3519,124.79023 C 1850.3519,119.26251 1852.0581,114.95207 1855.4706,111.85889 C 1858.883,108.74583 1863.6125,107.18928 1869.6591,107.18924 C 1871.4152,107.18928 1873.1414,107.34892 1874.8376,107.66818 C 1876.5538,107.96755 1878.26,108.42654 1879.9563,109.04513 M 1905.2203,114.85226 C 1902.8455,114.85229 1901.0296,115.71038 1899.7724,117.42655 C 1898.5351,119.12282 1897.9165,121.57737 1897.9165,124.79023 C 1897.9165,128.00313 1898.5351,130.46766 1899.7724,132.18385 C 1901.0296,133.8801 1902.8455,134.72821 1905.2203,134.72821 C 1907.5551,134.72821 1909.3411,133.8801 1910.5784,132.18385 C 1911.8156,130.46766 1912.4343,128.00313 1912.4343,124.79023 C 1912.4343,121.57737 1911.8156,119.12282 1910.5784,117.42655 C 1909.3411,115.71038 1907.5551,114.85229 1905.2203,114.85226 M 1905.2203,107.18924 C 1910.9875,107.18928 1915.4875,108.74583 1918.7204,111.85889 C 1921.9731,114.97202 1923.5995,119.28246 1923.5996,124.79023 C 1923.5995,130.29804 1921.9731,134.60848 1918.7204,137.72157 C 1915.4875,140.83467 1910.9875,142.39122 1905.2203,142.39122 C 1899.4331,142.39122 1894.9031,140.83467 1891.6304,137.72157 C 1888.3776,134.60848 1886.7512,130.29804 1886.7512,124.79023 C 1886.7512,119.28246 1888.3776,114.97202 1891.6304,111.85889 C 1894.9031,108.74583 1899.4331,107.18928 1905.2203,107.18924 M 1962.4834,113.56511 C 1963.8403,111.48974 1965.4468,109.91324 1967.3027,108.8356 C 1969.1785,107.73806 1971.2339,107.18928 1973.469,107.18924 C 1977.3204,107.18928 1980.2539,108.37665 1982.2695,110.75135 C 1984.285,113.12611 1985.2928,116.57846 1985.2928,121.10839 L 1985.2928,141.52315 L 1974.5167,141.52315 L 1974.5167,124.04189 C 1974.5366,123.78249 1974.5466,123.51308 1974.5466,123.23368 C 1974.5666,122.95432 1974.5765,122.55521 1974.5766,122.03634 C 1974.5765,119.66162 1974.2273,117.94543 1973.5289,116.88775 C 1972.8304,115.81016 1971.7029,115.27136 1970.1464,115.27133 C 1968.1109,115.27136 1966.5344,116.1095 1965.4169,117.78576 C 1964.3193,119.46207 1963.7505,121.88669 1963.7107,125.05964 L 1963.7107,141.52315 L 1952.9345,141.52315 L 1952.9345,124.04189 C 1952.9345,120.33014 1952.6152,117.94543 1951.9767,116.88775 C 1951.3381,115.81016 1950.2006,115.27136 1948.5642,115.27133 C 1946.5088,115.27136 1944.9223,116.11948 1943.8048,117.81569 C 1942.6872,119.492 1942.1285,121.89667 1942.1285,125.0297 L 1942.1285,141.52315 L 1931.3524,141.52315 L 1931.3524,107.99745 L 1942.1285,107.99745 L 1942.1285,112.90657 C 1943.4456,111.01081 1944.9522,109.58397 1946.6485,108.62606 C 1948.3647,107.66822 1950.2505,107.18928 1952.3059,107.18924 C 1954.6208,107.18928 1956.6662,107.74804 1958.4423,108.86553 C 1960.2184,109.98308 1961.5654,111.54961 1962.4834,113.56511 M 2026.4217,113.56511 C 2027.7786,111.48974 2029.3851,109.91324 2031.241,108.8356 C 2033.1168,107.73806 2035.1722,107.18928 2037.4073,107.18924 C 2041.2587,107.18928 2044.1922,108.37665 2046.2078,110.75135 C 2048.2233,113.12611 2049.231,116.57846 2049.2311,121.10839 L 2049.2311,141.52315 L 2038.455,141.52315 L 2038.455,124.04189 C 2038.4749,123.78249 2038.4849,123.51308 2038.4849,123.23368 C 2038.5048,122.95432 2038.5148,122.55521 2038.5149,122.03634 C 2038.5148,119.66162 2038.1656,117.94543 2037.4672,116.88775 C 2036.7687,115.81016 2035.6412,115.27136 2034.0847,115.27133 C 2032.0491,115.27136 2030.4726,116.1095 2029.3552,117.78576 C 2028.2576,119.46207 2027.6888,121.88669 2027.6489,125.05964 L 2027.6489,141.52315 L 2016.8728,141.52315 L 2016.8728,124.04189 C 2016.8728,120.33014 2016.5535,117.94543 2015.9149,116.88775 C 2015.2763,115.81016 2014.1389,115.27136 2012.5025,115.27133 C 2010.447,115.27136 2008.8606,116.11948 2007.7431,117.81569 C 2006.6255,119.492 2006.0668,121.89667 2006.0668,125.0297 L 2006.0668,141.52315 L 1995.2907,141.52315 L 1995.2907,107.99745 L 2006.0668,107.99745 L 2006.0668,112.90657 C 2007.3838,111.01081 2008.8905,109.58397 2010.5868,108.62606 C 2012.3029,107.66822 2014.1887,107.18928 2016.2442,107.18924 C 2018.5591,107.18928 2020.6045,107.74804 2022.3806,108.86553 C 2024.1566,109.98308 2025.5037,111.54961 2026.4217,113.56511 M 2074.3155,126.43659 C 2072.0804,126.4366 2070.3942,126.81576 2069.2567,127.57406 C 2068.1392,128.3324 2067.5804,129.44992 2067.5804,130.92663 C 2067.5804,132.28364 2068.0294,133.35127 2068.9275,134.12953 C 2069.8454,134.88786 2071.1126,135.26702 2072.729,135.26701 C 2074.7445,135.26702 2076.4408,134.54861 2077.8177,133.11179 C 2079.1947,131.65503 2079.8831,129.83906 2079.8832,127.66387 L 2079.8832,126.43659 L 2074.3155,126.43659 M 2090.6892,122.39554 L 2090.6892,141.52315 L 2079.8832,141.52315 L 2079.8832,136.55416 C 2078.4463,138.58965 2076.8299,140.07636 2075.0339,141.01428 C 2073.2379,141.93224 2071.0527,142.39122 2068.4784,142.39122 C 2065.0061,142.39122 2062.1824,141.38346 2060.0072,139.36792 C 2057.852,137.33244 2056.7744,134.69828 2056.7744,131.46544 C 2056.7744,127.53417 2058.1214,124.65056 2060.8154,122.81461 C 2063.5294,120.9787 2067.78,120.06074 2073.5672,120.06072 L 2079.8832,120.06072 L 2079.8832,119.22257 C 2079.8831,117.52636 2079.2146,116.2891 2077.8776,115.5108 C 2076.5406,114.7126 2074.4552,114.31348 2071.6215,114.31345 C 2069.3266,114.31348 2067.1913,114.54297 2065.2157,115.00193 C 2063.2401,115.46094 2061.4041,116.14941 2059.7079,117.06735 L 2059.7079,108.89546 C 2062.0028,108.33673 2064.3077,107.91766 2066.6226,107.63825 C 2068.9374,107.33895 2071.2523,107.18928 2073.5672,107.18924 C 2079.6137,107.18928 2083.9741,108.38662 2086.6482,110.78128 C 2089.3422,113.15605 2090.6892,117.02746 2090.6892,122.39554 M 2134.4223,121.10839 L 2134.4223,141.52315 L 2123.6462,141.52315 L 2123.6462,138.20051 L 2123.6462,125.89778 C 2123.6462,123.00421 2123.5763,121.00864 2123.4367,119.91105 C 2123.3169,118.8135 2123.0974,118.0053 2122.7781,117.48642 C 2122.359,116.78799 2121.7903,116.24919 2121.0719,115.87 C 2120.3535,115.47092 2119.5353,115.27136 2118.6173,115.27133 C 2116.3823,115.27136 2114.6262,116.13943 2113.349,117.87556 C 2112.0718,119.59178 2111.4332,121.97649 2111.4333,125.0297 L 2111.4333,141.52315 L 2100.717,141.52315 L 2100.717,107.99745 L 2111.4333,107.99745 L 2111.4333,112.90657 C 2113.0497,110.95094 2114.7659,109.51412 2116.5818,108.59613 C 2118.3978,107.65824 2120.4034,107.18928 2122.5985,107.18924 C 2126.4699,107.18928 2129.4034,108.37665 2131.399,110.75135 C 2133.4145,113.12611 2134.4223,116.57846 2134.4223,121.10839 M 2167.2296,112.90657 L 2167.2296,94.946379 L 2178.0057,94.946379 L 2178.0057,141.52315 L 2167.2296,141.52315 L 2167.2296,136.6739 C 2165.7528,138.64952 2164.1264,140.09631 2162.3504,141.01428 C 2160.5743,141.93224 2158.5189,142.39122 2156.1841,142.39122 C 2152.0532,142.39122 2148.6607,140.75485 2146.0066,137.4821 C 2143.3525,134.18941 2142.0254,129.95879 2142.0254,124.79023 C 2142.0254,119.62171 2143.3525,115.40107 2146.0066,112.1283 C 2148.6607,108.83563 2152.0532,107.18928 2156.1841,107.18924 C 2158.4989,107.18928 2160.5444,107.65824 2162.3205,108.59613 C 2164.1165,109.51412 2165.7528,110.95094 2167.2296,112.90657 M 2160.1652,134.60847 C 2162.4601,134.60848 2164.2063,133.77034 2165.4036,132.09405 C 2166.6209,130.41777 2167.2296,127.98317 2167.2296,124.79023 C 2167.2296,121.59733 2166.6209,119.16273 2165.4036,117.48642 C 2164.2063,115.81016 2162.4601,114.97202 2160.1652,114.972 C 2157.8903,114.97202 2156.1441,115.81016 2154.9268,117.48642 C 2153.7295,119.16273 2153.1308,121.59733 2153.1308,124.79023 C 2153.1308,127.98317 2153.7295,130.41777 2154.9268,132.09405 C 2156.1441,133.77034 2157.8903,134.60848 2160.1652,134.60847 M 2221.8286,124.6705 L 2221.8286,127.72373 L 2196.7741,127.72373 C 2197.0335,130.23817 2197.9415,132.12399 2199.4981,133.38119 C 2201.0546,134.63841 2203.2298,135.26702 2206.0236,135.26701 C 2208.2786,135.26702 2210.5835,134.93775 2212.9383,134.2792 C 2215.313,133.60071 2217.7476,132.58297 2220.2421,131.22597 L 2220.2421,139.48766 C 2217.7077,140.44554 2215.1733,141.16394 2212.639,141.64288 C 2210.1045,142.14178 2207.5702,142.39122 2205.0358,142.39122 C 2198.9692,142.39122 2194.2497,140.85463 2190.8772,137.78144 C 2187.5246,134.6883 2185.8483,130.35791 2185.8483,124.79023 C 2185.8483,119.32238 2187.4947,115.02191 2190.7874,111.88883 C 2194.1,108.75581 2198.6499,107.18928 2204.4371,107.18924 C 2209.7054,107.18928 2213.9161,108.77576 2217.0691,111.9487 C 2220.2421,115.12169 2221.8285,119.36229 2221.8286,124.6705 M 2210.813,121.10839 C 2210.813,119.07293 2210.2143,117.43656 2209.017,116.19927 C 2207.8396,114.94209 2206.293,114.31348 2204.3773,114.31345 C 2202.3018,114.31348 2200.6156,114.90218 2199.3185,116.07954 C 2198.0213,117.237 2197.2131,118.91328 2196.8939,121.10839 L 2210.813,121.10839 M 2276.6072,118.7137 L 2292.1128,141.52315 L 2280.1094,141.52315 L 2269.6625,126.25698 L 2259.3055,141.52315 L 2247.2422,141.52315 L 2262.7479,118.7137 L 2247.8409,96.8322 L 2259.8742,96.8322 L 2269.6625,111.23029 L 2279.4209,96.8322 L 2291.5141,96.8322 L 2276.6072,118.7137 M 2316.8978,114.13385 C 2318.7138,114.13388 2320.0907,113.73477 2321.0287,112.93651 C 2321.9666,112.13831 2322.4355,110.96092 2322.4356,109.40434 C 2322.4355,107.86777 2321.9666,106.70036 2321.0287,105.9021 C 2320.0907,105.08395 2318.7138,104.67485 2316.8978,104.67482 L 2310.522,104.67482 L 2310.522,114.13385 L 2316.8978,114.13385 M 2317.287,133.68053 C 2319.6018,133.68054 2321.338,133.19162 2322.4954,132.21378 C 2323.6728,131.23596 2324.2615,129.75923 2324.2615,127.7836 C 2324.2615,125.84791 2323.6828,124.40111 2322.5254,123.44322 C 2321.3679,122.46541 2319.6218,121.97649 2317.287,121.97647 L 2310.522,121.97647 L 2310.522,133.68053 L 2317.287,133.68053 M 2328.0032,117.60616 C 2330.4777,118.32459 2332.3935,119.65165 2333.7505,121.58733 C 2335.1074,123.52306 2335.7859,125.89779 2335.786,128.71154 C 2335.7859,133.022 2334.3292,136.23487 2331.4157,138.35018 C 2328.5021,140.46549 2324.0719,141.52315 2318.1251,141.52315 L 2298.9975,141.52315 L 2298.9975,96.8322 L 2316.2992,96.8322 C 2322.5054,96.832244 2326.9954,97.770165 2329.7693,99.645963 C 2332.5631,101.52185 2333.96,104.52519 2333.96,108.65599 C 2333.96,110.8312 2333.4511,112.68709 2332.4334,114.22365 C 2331.4156,115.74032 2329.9389,116.86782 2328.0032,117.60616 M 2366.1088,104.37548 C 2362.5966,104.37552 2359.8726,105.67264 2357.9369,108.26686 C 2356.0012,110.86114 2355.0333,114.51304 2355.0334,119.22257 C 2355.0333,123.9122 2356.0012,127.55412 2357.9369,130.14836 C 2359.8726,132.74262 2362.5966,134.03974 2366.1088,134.03973 C 2369.641,134.03974 2372.3749,132.74262 2374.3106,130.14836 C 2376.2463,127.55412 2377.2142,123.9122 2377.2142,119.22257 C 2377.2142,114.51304 2376.2463,110.86114 2374.3106,108.26686 C 2372.3749,105.67264 2369.641,104.37552 2366.1088,104.37548 M 2366.1088,96.023991 C 2373.2929,96.024037 2378.9204,98.079479 2382.9914,102.19032 C 2387.0623,106.30125 2389.0978,111.97866 2389.0979,119.22257 C 2389.0978,126.44658 2387.0623,132.11401 2382.9914,136.22489 C 2378.9204,140.33578 2373.2929,142.39122 2366.1088,142.39122 C 2358.9447,142.39122 2353.3171,140.33578 2349.2262,136.22489 C 2345.1552,132.11401 2343.1198,126.44658 2343.1198,119.22257 C 2343.1198,111.97866 2345.1552,106.30125 2349.2262,102.19032 C 2353.3171,98.079479 2358.9447,96.024037 2366.1088,96.023991 M 2420.5282,118.7137 L 2436.0338,141.52315 L 2424.0304,141.52315 L 2413.5836,126.25698 L 2403.2265,141.52315 L 2391.1633,141.52315 L 2406.6689,118.7137 L 2391.7619,96.8322 L 2403.7953,96.8322 L 2413.5836,111.23029 L 2423.3419,96.8322 L 2435.4351,96.8322 L 2420.5282,118.7137 M 2460.3998,149.60523 L 2451.5095,149.60523 C 2448.4563,144.67616 2446.2013,139.99653 2444.7445,135.56635 C 2443.2877,131.11622 2442.5593,126.706 2442.5593,122.33567 C 2442.5593,117.96538 2443.2877,113.54519 2444.7445,109.07506 C 2446.2212,104.58505 2448.4762,99.895452 2451.5095,95.006247 L 2460.3998,95.006247 C 2457.8454,99.735806 2455.9297,104.36554 2454.6525,108.89546 C 2453.3754,113.4055 2452.7368,117.86561 2452.7368,122.27581 C 2452.7368,126.68605 2453.3654,131.15614 2454.6226,135.68608 C 2455.8998,140.21605 2457.8255,144.85576 2460.3998,149.60523 M 2470.9365,96.8322 L 2482.4609,96.8322 L 2482.4609,123.62282 C 2482.4609,127.31465 2483.0596,129.95879 2484.257,131.55524 C 2485.4742,133.13175 2487.4499,133.92001 2490.1838,133.92 C 2492.9377,133.92001 2494.9133,133.13175 2496.1107,131.55524 C 2497.328,129.95879 2497.9366,127.31465 2497.9366,123.62282 L 2497.9366,96.8322 L 2509.4611,96.8322 L 2509.4611,123.62282 C 2509.4611,129.94881 2507.8746,134.65837 2504.7017,137.75151 C 2501.5286,140.84465 2496.6894,142.39122 2490.1838,142.39122 C 2483.6982,142.39122 2478.8689,140.84465 2475.6959,137.75151 C 2472.523,134.65837 2470.9365,129.94881 2470.9365,123.62282 L 2470.9365,96.8322 M 2551.8471,98.239082 L 2551.8471,107.69812 C 2549.3925,106.60058 2546.9978,105.77242 2544.663,105.21362 C 2542.3282,104.6549 2540.1231,104.37552 2538.0477,104.37548 C 2535.2938,104.37552 2533.2583,104.75468 2531.9412,105.51296 C 2530.6241,106.27131 2529.9656,107.4487 2529.9656,109.04513 C 2529.9656,110.24251 2530.4046,111.18043 2531.2827,111.85889 C 2532.1807,112.51746 2533.7971,113.0862 2536.132,113.56511 L 2541.0411,114.55292 C 2546.01,115.55074 2549.5422,117.06738 2551.6376,119.10284 C 2553.7329,121.13835 2554.7806,124.03193 2554.7806,127.7836 C 2554.7806,132.71268 2553.3138,136.38454 2550.3804,138.79918 C 2547.4668,141.19388 2543.0067,142.39122 2537,142.39122 C 2534.1663,142.39122 2531.3226,142.12182 2528.4689,141.58301 C 2525.6153,141.04421 2522.7616,140.24598 2519.9079,139.18832 L 2519.9079,129.45988 C 2522.7616,130.97653 2525.5155,132.12399 2528.1696,132.90225 C 2530.8437,133.66058 2533.418,134.03974 2535.8925,134.03973 C 2538.4069,134.03974 2540.3326,133.62067 2541.6697,132.78252 C 2543.0067,131.94439 2543.6752,130.74704 2543.6752,129.19048 C 2543.6752,127.79359 2543.2162,126.71598 2542.2983,125.95765 C 2541.4003,125.19934 2539.5943,124.52085 2536.8803,123.92216 L 2532.4202,122.93435 C 2527.9501,121.97649 2524.6773,120.44988 2522.6019,118.3545 C 2520.5465,116.25917 2519.5188,113.43543 2519.5188,109.88327 C 2519.5188,105.43317 2520.9556,102.01076 2523.8292,99.61603 C 2526.7028,97.221382 2530.8337,96.024037 2536.2218,96.023991 C 2538.6763,96.024037 2541.2007,96.213616 2543.795,96.59273 C 2546.3892,96.951979 2549.0732,97.500762 2551.8471,98.239082 M 2582.8285,114.13385 C 2584.6444,114.13388 2586.0213,113.73477 2586.9593,112.93651 C 2587.8972,112.13831 2588.3661,110.96092 2588.3662,109.40434 C 2588.3661,107.86777 2587.8972,106.70036 2586.9593,105.9021 C 2586.0213,105.08395 2584.6444,104.67485 2582.8285,104.67482 L 2576.4526,104.67482 L 2576.4526,114.13385 L 2582.8285,114.13385 M 2583.2176,133.68053 C 2585.5324,133.68054 2587.2686,133.19162 2588.426,132.21378 C 2589.6034,131.23596 2590.1921,129.75923 2590.1921,127.7836 C 2590.1921,125.84791 2589.6134,124.40111 2588.456,123.44322 C 2587.2985,122.46541 2585.5524,121.97649 2583.2176,121.97647 L 2576.4526,121.97647 L 2576.4526,133.68053 L 2583.2176,133.68053 M 2593.9338,117.60616 C 2596.4083,118.32459 2598.3241,119.65165 2599.6811,121.58733 C 2601.0381,123.52306 2601.7165,125.89779 2601.7166,128.71154 C 2601.7165,133.022 2600.2598,136.23487 2597.3463,138.35018 C 2594.4327,140.46549 2590.0025,141.52315 2584.0557,141.52315 L 2564.9281,141.52315 L 2564.9281,96.8322 L 2582.2298,96.8322 C 2588.436,96.832244 2592.926,97.770165 2595.6999,99.645963 C 2598.4937,101.52185 2599.8906,104.52519 2599.8906,108.65599 C 2599.8906,110.8312 2599.3817,112.68709 2598.364,114.22365 C 2597.3462,115.74032 2595.8695,116.86782 2593.9338,117.60616 M 2610.9063,149.60523 C 2613.4606,144.85576 2615.3763,140.21605 2616.6535,135.68608 C 2617.9307,131.15614 2618.5693,126.68605 2618.5693,122.27581 C 2618.5693,117.86561 2617.9307,113.4055 2616.6535,108.89546 C 2615.3763,104.36554 2613.4606,99.735806 2610.9063,95.006247 L 2619.7965,95.006247 C 2622.8298,99.895452 2625.0748,104.58505 2626.5316,109.07506 C 2628.0083,113.54519 2628.7467,117.96538 2628.7467,122.33567 C 2628.7467,126.706 2628.0183,131.11622 2626.5616,135.56635 C 2625.1048,139.99653 2622.8498,144.67616 2619.7965,149.60523 L 2610.9063,149.60523"
       id="text3207" />
    <path
       style="font-size:59.34484100000000240px;font-style:normal;font-weight:normal;fill:#ffffff;fill-opacity:1;stroke:#000000;stroke-width:3;stroke-linecap:butt;stroke-linejoin:miter;stroke-opacity:1;font-family:Bitstream Vera Sans;stroke-miterlimit:4;stroke-dasharray:none"
       d="M 1443.6867,987.6778 L 1443.6867,1014.0758 L 1447.6855,1014.0758 C 1452.2445,1014.0758 1455.7218,1012.9457 1458.1172,1010.6855 C 1460.5319,1008.4253 1461.7393,1005.1413 1461.7393,1000.8333 C 1461.7393,996.54478 1460.5416,993.28004 1458.1462,991.03912 C 1455.7507,988.79827 1452.2639,987.67783 1447.6855,987.6778 L 1443.6867,987.6778 M 1432.5306,979.2455 L 1444.2952,979.2455 C 1450.8633,979.24554 1455.7507,979.71883 1458.9576,980.66537 C 1462.1836,981.59267 1464.9461,983.17675 1467.245,985.41759 C 1469.2733,987.36874 1470.7801,989.61929 1471.7654,992.16923 C 1472.7505,994.71923 1473.2432,997.60726 1473.2432,1000.8333 C 1473.2432,1004.0981 1472.7505,1007.0151 1471.7654,1009.5844 C 1470.7801,1012.1344 1469.2733,1014.3849 1467.245,1016.336 C 1464.9268,1018.5769 1462.145,1020.1706 1458.8996,1021.1172 C 1455.6542,1022.0445 1450.786,1022.5081 1444.2952,1022.5081 L 1432.5306,1022.5081 L 1432.5306,979.2455 M 1505.4366,998.89188 C 1504.5286,998.46691 1503.6207,998.15783 1502.7128,997.96462 C 1501.8241,997.75215 1500.9258,997.6459 1500.0179,997.64587 C 1497.352,997.6459 1495.2947,998.50555 1493.8458,1000.2248 C 1492.4163,1001.9248 1491.7015,1004.3686 1491.7015,1007.556 L 1491.7015,1022.5081 L 1481.3278,1022.5081 L 1481.3278,990.05391 L 1491.7015,990.05391 L 1491.7015,995.38567 C 1493.0345,993.26072 1494.5606,991.71529 1496.2799,990.74936 C 1498.0185,989.76417 1500.0952,989.27156 1502.5099,989.27153 C 1502.8576,989.27156 1503.2343,989.29088 1503.64,989.32948 C 1504.0457,989.34883 1504.6349,989.40679 1505.4076,989.50335 L 1505.4366,998.89188 M 1510.6525,990.05391 L 1521.0262,990.05391 L 1521.0262,1022.5081 L 1510.6525,1022.5081 L 1510.6525,990.05391 M 1510.6525,977.41995 L 1521.0262,977.41995 L 1521.0262,985.88122 L 1510.6525,985.88122 L 1510.6525,977.41995 M 1526.9665,990.05391 L 1537.3403,990.05391 L 1545.4248,1012.4821 L 1553.4804,990.05391 L 1563.8832,990.05391 L 1551.1043,1022.5081 L 1539.7164,1022.5081 L 1526.9665,990.05391 M 1602.1618,1006.1941 L 1602.1618,1009.1497 L 1577.908,1009.1497 C 1578.1592,1011.5838 1579.0381,1013.4094 1580.5449,1014.6264 C 1582.0517,1015.8434 1584.1574,1016.4519 1586.8619,1016.4519 C 1589.0448,1016.4519 1591.276,1016.1332 1593.5556,1015.4957 C 1595.8544,1014.8389 1598.2112,1013.8537 1600.626,1012.54 L 1600.626,1020.5377 C 1598.1726,1021.4649 1595.7192,1022.1604 1593.2658,1022.624 C 1590.8124,1023.107 1588.359,1023.3484 1585.9057,1023.3484 C 1580.033,1023.3484 1575.4643,1021.861 1572.1996,1018.886 C 1568.9541,1015.8917 1567.3314,1011.6997 1567.3314,1006.31 C 1567.3314,1001.0169 1568.9252,996.85386 1572.1126,993.82091 C 1575.3194,990.78802 1579.7239,989.27156 1585.3261,989.27153 C 1590.4261,989.27156 1594.5021,990.80734 1597.5544,993.87887 C 1600.6259,996.95045 1602.1617,1001.0555 1602.1618,1006.1941 M 1591.4982,1002.7458 C 1591.4982,1000.7754 1590.9187,999.19134 1589.7596,997.9936 C 1588.6198,996.77659 1587.1227,996.16808 1585.2682,996.16805 C 1583.2591,996.16808 1581.6267,996.73796 1580.3711,997.87769 C 1579.1154,998.99816 1578.333,1000.6209 1578.0239,1002.7458 L 1591.4982,1002.7458 M 1627.3717,1030.3319 L 1618.7656,1030.3319 C 1615.8099,1025.5604 1613.627,1021.0303 1612.2168,1016.7417 C 1610.8065,1012.4338 1610.1014,1008.1645 1610.1014,1003.9339 C 1610.1014,999.70326 1610.8065,995.42433 1612.2168,991.09708 C 1613.6463,986.75057 1615.8292,982.21085 1618.7656,977.4779 L 1627.3717,977.4779 C 1624.899,982.0563 1623.0445,986.53807 1621.8081,990.92322 C 1620.5718,995.28911 1619.9536,999.60667 1619.9536,1003.8759 C 1619.9536,1008.1452 1620.5621,1012.4724 1621.7792,1016.8576 C 1623.0155,1021.2428 1624.8797,1025.7342 1627.3717,1030.3319 M 1653.422,998.42825 C 1655.7595,998.42828 1657.4305,997.99362 1658.435,997.12429 C 1659.4589,996.25501 1659.9708,994.82548 1659.9708,992.8357 C 1659.9708,990.86529 1659.4589,989.45508 1658.435,988.60506 C 1657.4305,987.7551 1655.7595,987.33011 1653.422,987.33007 L 1648.7278,987.33007 L 1648.7278,998.42825 L 1653.422,998.42825 M 1648.7278,1006.1361 L 1648.7278,1022.5081 L 1637.5716,1022.5081 L 1637.5716,979.2455 L 1654.6101,979.2455 C 1660.3089,979.24554 1664.4815,980.20178 1667.1281,982.11422 C 1669.794,984.02674 1671.1269,987.05 1671.127,991.18401 C 1671.1269,994.0431 1670.4315,996.39023 1669.0406,998.22541 C 1667.669,1000.0606 1665.5923,1001.4129 1662.8106,1002.2822 C 1664.3367,1002.6299 1665.6986,1003.422 1666.8963,1004.6583 C 1668.1133,1005.8754 1669.34,1007.7299 1670.5764,1010.2219 L 1676.6326,1022.5081 L 1664.752,1022.5081 L 1659.4782,1011.7577 C 1658.4157,1009.5941 1657.3339,1008.1162 1656.2328,1007.3242 C 1655.151,1006.5322 1653.7021,1006.1361 1651.8862,1006.1361 L 1648.7278,1006.1361 M 1713.3464,980.60741 L 1713.3464,989.76414 C 1710.9703,988.70168 1708.6521,987.89999 1706.3919,987.35905 C 1704.1317,986.81818 1701.9971,986.54773 1699.988,986.54769 C 1697.3221,986.54773 1695.3517,986.91477 1694.0767,987.64882 C 1692.8017,988.38294 1692.1642,989.5227 1692.1642,991.0681 C 1692.1642,992.22721 1692.5892,993.13516 1693.4392,993.79194 C 1694.3085,994.42946 1695.8733,994.98002 1698.1335,995.44362 L 1702.8857,996.39986 C 1707.6959,997.36579 1711.1151,998.83395 1713.1436,1000.8044 C 1715.1719,1002.7748 1716.1861,1005.5759 1716.1861,1009.2077 C 1716.1861,1013.9792 1714.7662,1017.5337 1711.9265,1019.8712 C 1709.1061,1022.1894 1704.7885,1023.3484 1698.9738,1023.3484 C 1696.2307,1023.3484 1693.4778,1023.0877 1690.7154,1022.5661 C 1687.9529,1022.0445 1685.1904,1021.2718 1682.428,1020.2479 L 1682.428,1010.8304 C 1685.1904,1012.2986 1687.8563,1013.4094 1690.4256,1014.1627 C 1693.0142,1014.8968 1695.5062,1015.2639 1697.9017,1015.2639 C 1700.3357,1015.2639 1702.1999,1014.8582 1703.4942,1014.0468 C 1704.7885,1013.2355 1705.4357,1012.0764 1705.4357,1010.5696 C 1705.4357,1009.2174 1704.9913,1008.1742 1704.1027,1007.4401 C 1703.2334,1006.706 1701.4851,1006.0492 1698.8579,1005.4697 L 1694.5403,1004.5134 C 1690.2131,1003.5862 1687.045,1002.1083 1685.0359,1000.0799 C 1683.0461,998.05158 1682.0513,995.31809 1682.0513,991.87946 C 1682.0513,987.57158 1683.4422,984.25855 1686.224,981.94036 C 1689.0057,979.62224 1693.0046,978.46316 1698.2204,978.46312 C 1700.5965,978.46316 1703.0402,978.64668 1705.5516,979.01368 C 1708.0629,979.36145 1710.6612,979.89269 1713.3464,980.60741 M 1737.6581,1014.3076 L 1756.696,1014.3076 L 1756.696,1022.5081 L 1725.2559,1022.5081 L 1725.2559,1014.3076 L 1741.0484,1000.3697 C 1742.4586,999.09475 1743.5018,997.84874 1744.1779,996.63168 C 1744.854,995.41467 1745.1921,994.14935 1745.1921,992.8357 C 1745.1921,990.80734 1744.5063,989.17497 1743.1347,987.93859 C 1741.7825,986.70227 1739.9762,986.0841 1737.716,986.08406 C 1735.9774,986.0841 1734.0746,986.4608 1732.0076,987.21416 C 1729.9405,987.94828 1727.7286,989.04941 1725.3719,990.51754 L 1725.3719,981.01309 C 1727.8832,980.18246 1730.3655,979.55463 1732.8189,979.12959 C 1735.2723,978.68532 1737.6774,978.46316 1740.0342,978.46312 C 1745.2114,978.46316 1749.2295,979.60292 1752.0886,981.8824 C 1754.967,984.16196 1756.4062,987.33977 1756.4062,991.41583 C 1756.4062,993.77265 1755.7976,995.9749 1754.5806,998.02258 C 1753.3636,1000.051 1750.8039,1002.7748 1746.9017,1006.1941 L 1737.6581,1014.3076 M 1789.4689,999.18165 C 1792.3859,999.93508 1794.5978,1001.2487 1796.1046,1003.1225 C 1797.6307,1004.9771 1798.3938,1007.3435 1798.3938,1010.2219 C 1798.3938,1014.5105 1796.7518,1017.7752 1793.4677,1020.0161 C 1790.1837,1022.2377 1785.3928,1023.3484 1779.0952,1023.3484 C 1776.8736,1023.3484 1774.6424,1023.1649 1772.4015,1022.7979 C 1770.1799,1022.4502 1767.9777,1021.9189 1765.7947,1021.2042 L 1765.7947,1012.598 C 1767.8811,1013.6412 1769.9481,1014.4332 1771.9958,1014.9741 C 1774.0628,1015.4957 1776.0912,1015.7565 1778.081,1015.7565 C 1781.0366,1015.7565 1783.2968,1015.2446 1784.8616,1014.2207 C 1786.4456,1013.1969 1787.2377,1011.7287 1787.2377,1009.8162 C 1787.2377,1007.8458 1786.4263,1006.3583 1784.8036,1005.3537 C 1783.2002,1004.3299 1780.8241,1003.818 1777.6753,1003.818 L 1773.2128,1003.818 L 1773.2128,996.63168 L 1777.9071,996.63168 C 1780.7082,996.63171 1782.7945,996.19705 1784.1661,995.32772 C 1785.5377,994.43912 1786.2235,993.09652 1786.2235,991.29992 C 1786.2235,989.6386 1785.557,988.35396 1784.2241,987.44598 C 1782.8911,986.53807 1781.0076,986.0841 1778.5736,986.08406 C 1776.777,986.0841 1774.9611,986.28694 1773.1259,986.69258 C 1771.2907,987.09829 1769.4651,987.69715 1767.6493,988.48915 L 1767.6493,980.31764 C 1769.8515,979.69951 1772.0344,979.23588 1774.1981,978.92675 C 1776.3617,978.61771 1778.4866,978.46316 1780.573,978.46312 C 1786.1945,978.46316 1790.3962,979.39042 1793.178,981.24491 C 1795.979,983.08016 1797.3796,985.85228 1797.3796,989.5613 C 1797.3796,992.09199 1796.7131,994.16867 1795.3802,995.79135 C 1794.0473,997.39477 1792.0768,998.52487 1789.4689,999.18165 M 1820.1845,1014.3076 L 1839.2224,1014.3076 L 1839.2224,1022.5081 L 1807.7824,1022.5081 L 1807.7824,1014.3076 L 1823.5748,1000.3697 C 1824.985,999.09475 1826.0282,997.84874 1826.7043,996.63168 C 1827.3804,995.41467 1827.7185,994.14935 1827.7185,992.8357 C 1827.7185,990.80734 1827.0327,989.17497 1825.6612,987.93859 C 1824.3089,986.70227 1822.5027,986.0841 1820.2425,986.08406 C 1818.5038,986.0841 1816.601,986.4608 1814.534,987.21416 C 1812.467,987.94828 1810.2551,989.04941 1807.8983,990.51754 L 1807.8983,981.01309 C 1810.4096,980.18246 1812.892,979.55463 1815.3454,979.12959 C 1817.7987,978.68532 1820.2038,978.46316 1822.5606,978.46312 C 1827.7378,978.46316 1831.756,979.60292 1834.6151,981.8824 C 1837.4934,984.16196 1838.9326,987.33977 1838.9326,991.41583 C 1838.9326,993.77265 1838.3241,995.9749 1837.1071,998.02258 C 1835.89,1000.051 1833.3304,1002.7748 1829.4282,1006.1941 L 1820.1845,1014.3076 M 1849.1035,1030.3319 C 1851.5762,1025.7342 1853.4307,1021.2428 1854.6671,1016.8576 C 1855.9034,1012.4724 1856.5216,1008.1452 1856.5216,1003.8759 C 1856.5216,999.60667 1855.9034,995.28911 1854.6671,990.92322 C 1853.4307,986.53807 1851.5762,982.0563 1849.1035,977.4779 L 1857.7097,977.4779 C 1860.646,982.21085 1862.8193,986.75057 1864.2295,991.09708 C 1865.659,995.42433 1866.3738,999.70326 1866.3738,1003.9339 C 1866.3738,1008.1645 1865.6687,1012.4338 1864.2585,1016.7417 C 1862.8482,1021.0303 1860.6653,1025.5604 1857.7097,1030.3319 L 1849.1035,1030.3319"
       id="text3211" />
  </g>
</svg>
